{
.appVersion = "1286";
DisplayStrings = (
ABCDEFGHIJKLMNOPQRSTUVWXYZabcdefghijklmnopqrstuvwxyz0123456789,

glyphs = (
{
glyphname = A;
layers = (
{
layerId = "CFFEBDE4-599A-46B2-9328-D96E42CD9C81";
paths = (
{
closed = 1;
nodes = (
"638 0 LINE",
"360 717 LINE",
"279 717 LINE",
"0 0 LINE",
"91 0 LINE",
"176 221 LINE",
"459 221 LINE",
"545 0 LINE",
"545 0 LINE"
);
},
{
closed = 1;
nodes = (
"206 301 LINE",
"287 517 LINE SMOOTH",
"293 534 OFFCURVE",
"311 593 OFFCURVE",
"318 624 QCURVE",
"322 612 OFFCURVE",
"335 567 OFFCURVE",
"349 525 OFFCURVE",
"352 517 QCURVE SMOOTH",
"432 301 LINE",
"432 301 LINE"
);
}
);
width = 639;
}
);
leftKerningGroup = A;
note = A;
rightKerningGroup = A;
unicode = 0041;
},
{
glyphname = B;
layers = (
{
layerId = "CFFEBDE4-599A-46B2-9328-D96E42CD9C81";
paths = (
{
closed = 1;
nodes = (
"97 0 LINE",
"348 0 LINE SMOOTH",
"463 0 OFFCURVE",
"596 106 OFFCURVE",
"596 203 QCURVE SMOOTH",
"596 259 OFFCURVE",
"554 329 OFFCURVE",
"481 367 OFFCURVE",
"436 374 QCURVE",
"436 379 LINE",
"502 391 OFFCURVE",
"572 474 OFFCURVE",
"572 537 QCURVE SMOOTH",
"572 635 OFFCURVE",
"435 714 OFFCURVE",
"301 714 QCURVE SMOOTH",
"97 714 LINE",
"97 714 LINE"
);
},
{
closed = 1;
nodes = (
"187 637 LINE",
"305 637 LINE SMOOTH",
"396 637 OFFCURVE",
"479 586 OFFCURVE",
"479 527 QCURVE SMOOTH",
"479 469 OFFCURVE",
"411 410 OFFCURVE",
"319 410 QCURVE SMOOTH",
"187 410 LINE",
"187 410 LINE"
);
},
{
closed = 1;
nodes = (
"324 335 LINE SMOOTH",
"423 335 OFFCURVE",
"500 266 OFFCURVE",
"500 210 QCURVE SMOOTH",
"500 150 OFFCURVE",
"426 76 OFFCURVE",
"331 76 QCURVE SMOOTH",
"187 76 LINE",
"187 335 LINE",
"187 335 LINE"
);
}
);
width = 650;
}
);
note = B;
unicode = 0042;
},
{
glyphname = C;
layers = (
{
layerId = "CFFEBDE4-599A-46B2-9328-D96E42CD9C81";
paths = (
{
closed = 1;
nodes = (
"451 645 OFFCURVE",
"532 621 OFFCURVE",
"565 606 QCURVE",
"601 682 LINE",
"517 724 OFFCURVE",
"404 724 QCURVE SMOOTH",
"294 724 OFFCURVE",
"140 631 OFFCURVE",
"61 466 OFFCURVE",
"61 358 QCURVE SMOOTH",
"61 246 OFFCURVE",
"134 80 OFFCURVE",
"280 -10 OFFCURVE",
"389 -10 QCURVE SMOOTH",
"448 -10 OFFCURVE",
"533 4 OFFCURVE",
"573 19 QCURVE",
"573 97 LINE",
"533 85 OFFCURVE",
"449 69 OFFCURVE",
"402 69 QCURVE SMOOTH",
"279 69 OFFCURVE",
"156 224 OFFCURVE",
"156 357 QCURVE SMOOTH",
"156 491 OFFCURVE",
"288 645 OFFCURVE",
"403 645 QCURVE",
"403 645 LINE"
);
}
);
width = 632;
}
);
leftKerningGroup = C;
note = C;
rightKerningGroup = C;
unicode = 0043;
},
{
glyphname = D;
layers = (
{
layerId = "CFFEBDE4-599A-46B2-9328-D96E42CD9C81";
paths = (
{
closed = 1;
nodes = (
"669 479 OFFCURVE",
"583 634 OFFCURVE",
"425 714 OFFCURVE",
"317 714 QCURVE SMOOTH",
"97 714 LINE",
"97 0 LINE",
"296 0 LINE SMOOTH",
"472 0 OFFCURVE",
"669 183 OFFCURVE",
"669 364 QCURVE",
"669 364 LINE"
);
},
{
closed = 1;
nodes = (
"574 77 OFFCURVE",
"284 77 QCURVE SMOOTH",
"187 77 LINE",
"187 637 LINE",
"304 637 LINE SMOOTH",
"433 637 OFFCURVE",
"574 504 OFFCURVE",
"574 361 QCURVE",
"574 361 LINE"
);
}
);
width = 730;
}
);
note = D;
rightKerningGroup = D;
unicode = 0044;
},
{
glyphname = E;
layers = (
{
layerId = "CFFEBDE4-599A-46B2-9328-D96E42CD9C81";
paths = (
{
closed = 1;
nodes = (
"496 79 LINE",
"187 79 LINE",
"187 334 LINE",
"478 334 LINE",
"478 412 LINE",
"187 412 LINE",
"187 635 LINE",
"496 635 LINE",
"496 714 LINE",
"97 714 LINE",
"97 0 LINE",
"496 0 LINE",
"496 0 LINE"
);
}
);
width = 556;
}
);
note = E;
rightKerningGroup = E;
unicode = 0045;
},
{
glyphname = F;
layers = (
{
layerId = "CFFEBDE4-599A-46B2-9328-D96E42CD9C81";
paths = (
{
closed = 1;
nodes = (
"187 303 LINE",
"477 303 LINE",
"477 382 LINE",
"187 382 LINE",
"187 635 LINE",
"496 635 LINE",
"496 714 LINE",
"97 714 LINE",
"97 0 LINE",
"187 0 LINE",
"187 0 LINE"
);
}
);
width = 519;
}
);
note = F;
unicode = 0046;
},
{
glyphname = G;
layers = (
{
layerId = "CFFEBDE4-599A-46B2-9328-D96E42CD9C81";
paths = (
{
closed = 1;
nodes = (
"407 297 LINE",
"564 297 LINE",
"564 85 LINE",
"537 78 OFFCURVE",
"471 68 OFFCURVE",
"424 68 QCURVE SMOOTH",
"328 68 OFFCURVE",
"210 141 OFFCURVE",
"155 272 OFFCURVE",
"155 357 QCURVE SMOOTH",
"155 491 OFFCURVE",
"298 645 OFFCURVE",
"426 645 QCURVE SMOOTH",
"477 645 OFFCURVE",
"572 621 OFFCURVE",
"610 604 QCURVE",
"644 682 LINE",
"598 702 OFFCURVE",
"491 724 OFFCURVE",
"431 724 QCURVE SMOOTH",
"314 724 OFFCURVE",
"149 633 OFFCURVE",
"61 469 OFFCURVE",
"61 357 QCURVE SMOOTH",
"61 244 OFFCURVE",
"140 79 OFFCURVE",
"292 -10 OFFCURVE",
"403 -10 QCURVE SMOOTH",
"478 -10 OFFCURVE",
"596 8 OFFCURVE",
"654 27 QCURVE",
"654 377 LINE",
"407 377 LINE",
"407 377 LINE"
);
}
);
width = 728;
}
);
leftKerningGroup = C;
note = G;
unicode = 0047;
},
{
glyphname = H;
layers = (
{
layerId = "CFFEBDE4-599A-46B2-9328-D96E42CD9C81";
paths = (
{
closed = 1;
nodes = (
"643 714 LINE",
"553 714 LINE",
"553 412 LINE",
"187 412 LINE",
"187 714 LINE",
"97 714 LINE",
"97 0 LINE",
"187 0 LINE",
"187 333 LINE",
"553 333 LINE",
"553 0 LINE",
"643 0 LINE",
"643 0 LINE"
);
}
);
width = 741;
}
);
note = H;
unicode = 0048;
},
{
glyphname = I;
layers = (
{
layerId = "CFFEBDE4-599A-46B2-9328-D96E42CD9C81";
paths = (
{
closed = 1;
nodes = (
"298 52 LINE",
"214 71 LINE",
"214 642 LINE",
"298 662 LINE",
"298 714 LINE",
"40 714 LINE",
"40 662 LINE",
"124 642 LINE",
"124 71 LINE",
"40 52 LINE",
"40 0 LINE",
"298 0 LINE",
"298 0 LINE"
);
}
);
width = 339;
}
);
note = I;
unicode = 0049;
},
{
glyphname = J;
layers = (
{
layerId = "CFFEBDE4-599A-46B2-9328-D96E42CD9C81";
paths = (
{
closed = 1;
nodes = (
"80 -190 OFFCURVE",
"182 -92 OFFCURVE",
"182 11 QCURVE SMOOTH",
"182 714 LINE",
"92 714 LINE",
"92 4 LINE SMOOTH",
"92 -41 OFFCURVE",
"64 -91 OFFCURVE",
"19 -111 OFFCURVE",
"-6 -111 QCURVE SMOOTH",
"-26 -111 OFFCURVE",
"-62 -105 OFFCURVE",
"-78 -101 QCURVE",
"-78 -177 LINE",
"-64 -183 OFFCURVE",
"-28 -190 OFFCURVE",
"-4 -190 QCURVE",
"-4 -190 LINE"
);
}
);
width = 273;
}
);
note = J;
unicode = 004A;
},
{
glyphname = K;
layers = (
{
layerId = "CFFEBDE4-599A-46B2-9328-D96E42CD9C81";
paths = (
{
closed = 1;
nodes = (
"325 403 LINE",
"608 714 LINE",
"503 714 LINE",
"310 498 LINE SMOOTH",
"279 464 OFFCURVE",
"217 396 OFFCURVE",
"187 362 QCURVE",
"187 714 LINE",
"97 714 LINE",
"97 0 LINE",
"187 0 LINE",
"187 277 LINE",
"260 341 LINE",
"513 0 LINE",
"619 0 LINE",
"619 0 LINE"
);
}
);
width = 600;
}
);
note = K;
rightKerningGroup = K;
unicode = 004B;
},
{
glyphname = L;
layers = (
{
layerId = "CFFEBDE4-599A-46B2-9328-D96E42CD9C81";
paths = (
{
closed = 1;
nodes = (
"499 0 LINE",
"499 80 LINE",
"187 80 LINE",
"187 714 LINE",
"97 714 LINE",
"97 0 LINE",
"97 0 LINE"
);
}
);
width = 524;
}
);
note = L;
rightKerningGroup = L;
unicode = 004C;
},
{
glyphname = M;
layers = (
{
layerId = "CFFEBDE4-599A-46B2-9328-D96E42CD9C81";
paths = (
{
closed = 1;
nodes = (
"486 0 LINE",
"724 625 LINE",
"728 625 LINE",
"726 593 OFFCURVE",
"721 491 OFFCURVE",
"721 439 QCURVE SMOOTH",
"721 0 LINE",
"810 0 LINE",
"810 714 LINE",
"678 714 LINE",
"454 129 LINE",
"450 129 LINE",
"230 714 LINE",
"97 714 LINE",
"97 0 LINE",
"180 0 LINE",
"180 433 LINE SMOOTH",
"180 490 OFFCURVE",
"176 595 OFFCURVE",
"173 626 QCURVE",
"177 626 LINE",
"412 0 LINE",
"412 0 LINE"
);
}
);
width = 907;
}
);
note = M;
unicode = 004D;
},
{
glyphname = N;
layers = (
{
layerId = "CFFEBDE4-599A-46B2-9328-D96E42CD9C81";
paths = (
{
closed = 1;
nodes = (
"663 714 LINE",
"579 714 LINE",
"579 311 LINE SMOOTH",
"579 279 OFFCURVE",
"582 203 OFFCURVE",
"585 139 OFFCURVE",
"586 123 QCURVE",
"582 123 LINE",
"201 714 LINE",
"97 714 LINE",
"97 0 LINE",
"180 0 LINE",
"180 399 LINE SMOOTH",
"180 454 OFFCURVE",
"174 558 OFFCURVE",
"172 593 QCURVE",
"176 593 LINE",
"558 0 LINE",
"663 0 LINE",
"663 0 LINE"
);
}
);
width = 760;
}
);
note = N;
unicode = 004E;
},
{
glyphname = O;
layers = (
{
layerId = "CFFEBDE4-599A-46B2-9328-D96E42CD9C81";
paths = (
{
closed = 1;
nodes = (
"720 469 OFFCURVE",
"645 634 OFFCURVE",
"499 725 OFFCURVE",
"392 725 QCURVE SMOOTH",
"280 725 OFFCURVE",
"133 633 OFFCURVE",
"61 469 OFFCURVE",
"61 359 QCURVE SMOOTH",
"61 248 OFFCURVE",
"133 82 OFFCURVE",
"280 -10 OFFCURVE",
"391 -10 QCURVE SMOOTH",
"499 -10 OFFCURVE",
"645 82 OFFCURVE",
"720 247 OFFCURVE",
"720 358 QCURVE",
"720 358 LINE"
);
},
{
closed = 1;
nodes = (
"156 493 OFFCURVE",
"271 646 OFFCURVE",
"392 646 QCURVE SMOOTH",
"513 646 OFFCURVE",
"625 493 OFFCURVE",
"625 358 QCURVE SMOOTH",
"625 223 OFFCURVE",
"513 68 OFFCURVE",
"391 68 QCURVE SMOOTH",
"270 68 OFFCURVE",
"156 223 OFFCURVE",
"156 358 QCURVE",
"156 358 LINE"
);
}
);
userData = {
assembly = "NPUSHB[ ]	/* 28 values pushed */\0120 3 3 1 97 0 1 1 112 77 0 2 2 0 97 0 0 0 113 0 78 36 37 38 35 4 13 26 \012CALL[ ]	/* CallFunction */";
};
width = 781;
}
);
leftKerningGroup = C;
note = O;
rightKerningGroup = D;
unicode = 004F;
},
{
glyphname = P;
layers = (
{
layerId = "CFFEBDE4-599A-46B2-9328-D96E42CD9C81";
paths = (
{
closed = 1;
nodes = (
"97 714 LINE",
"97 0 LINE",
"187 0 LINE",
"187 278 LINE",
"269 278 LINE SMOOTH",
"376 278 OFFCURVE",
"501 342 OFFCURVE",
"554 445 OFFCURVE",
"554 504 QCURVE SMOOTH",
"554 604 OFFCURVE",
"426 714 OFFCURVE",
"286 714 QCURVE",
"286 714 LINE"
);
},
{
closed = 1;
nodes = (
"373 637 OFFCURVE",
"461 569 OFFCURVE",
"461 500 QCURVE SMOOTH",
"461 421 OFFCURVE",
"361 355 OFFCURVE",
"259 355 QCURVE SMOOTH",
"187 355 LINE",
"187 637 LINE",
"278 637 LINE",
"278 637 LINE"
);
}
);
width = 605;
}
);
note = P;
rightKerningGroup = P;
unicode = 0050;
},
{
glyphname = Q;
layers = (
{
layerId = "CFFEBDE4-599A-46B2-9328-D96E42CD9C81";
paths = (
{
closed = 1;
nodes = (
"720 469 OFFCURVE",
"645 634 OFFCURVE",
"499 725 OFFCURVE",
"392 725 QCURVE SMOOTH",
"280 725 OFFCURVE",
"133 633 OFFCURVE",
"61 469 OFFCURVE",
"61 359 QCURVE SMOOTH",
"61 248 OFFCURVE",
"133 82 OFFCURVE",
"280 -10 OFFCURVE",
"391 -10 QCURVE SMOOTH",
"397 -10 OFFCURVE",
"410 -9 OFFCURVE",
"416 -9 QCURVE",
"554 -170 LINE",
"683 -170 LINE",
"512 8 LINE",
"615 43 OFFCURVE",
"720 227 OFFCURVE",
"720 358 QCURVE",
"720 358 LINE"
);
},
{
closed = 1;
nodes = (
"156 493 OFFCURVE",
"271 646 OFFCURVE",
"392 646 QCURVE SMOOTH",
"513 646 OFFCURVE",
"625 493 OFFCURVE",
"625 358 QCURVE SMOOTH",
"625 223 OFFCURVE",
"513 68 OFFCURVE",
"391 68 QCURVE SMOOTH",
"270 68 OFFCURVE",
"156 223 OFFCURVE",
"156 358 QCURVE",
"156 358 LINE"
);
}
);
width = 781;
}
);
leftKerningGroup = C;
note = Q;
rightKerningGroup = D;
unicode = 0051;
},
{
glyphname = R;
layers = (
{
layerId = "CFFEBDE4-599A-46B2-9328-D96E42CD9C81";
paths = (
{
closed = 1;
nodes = (
"97 714 LINE",
"97 0 LINE",
"187 0 LINE",
"187 295 LINE",
"329 295 LINE",
"502 0 LINE",
"607 0 LINE",
"411 320 LINE",
"447 333 OFFCURVE",
"512 378 OFFCURVE",
"554 454 OFFCURVE",
"554 511 QCURVE SMOOTH",
"554 613 OFFCURVE",
"427 714 OFFCURVE",
"294 714 QCURVE",
"294 714 LINE"
);
},
{
closed = 1;
nodes = (
"377 636 OFFCURVE",
"461 577 OFFCURVE",
"461 507 QCURVE SMOOTH",
"461 440 OFFCURVE",
"381 371 OFFCURVE",
"294 371 QCURVE SMOOTH",
"187 371 LINE",
"187 636 LINE",
"289 636 LINE",
"289 636 LINE"
);
}
);
width = 622;
}
);
note = R;
unicode = 0052;
},
{
glyphname = S;
layers = (
{
layerId = "CFFEBDE4-599A-46B2-9328-D96E42CD9C81";
paths = (
{
closed = 1;
nodes = (
"502 247 OFFCURVE",
"457 321 OFFCURVE",
"370 374 OFFCURVE",
"307 397 QCURVE SMOOTH",
"249 419 OFFCURVE",
"181 457 OFFCURVE",
"151 505 OFFCURVE",
"151 541 QCURVE SMOOTH",
"151 588 OFFCURVE",
"219 645 OFFCURVE",
"286 645 QCURVE SMOOTH",
"333 645 OFFCURVE",
"420 623 OFFCURVE",
"457 607 QCURVE",
"485 684 LINE",
"445 702 OFFCURVE",
"347 724 OFFCURVE",
"288 724 QCURVE SMOOTH",
"221 724 OFFCURVE",
"118 680 OFFCURVE",
"60 599 OFFCURVE",
"60 542 QCURVE SMOOTH",
"60 459 OFFCURVE",
"153 363 OFFCURVE",
"244 330 QCURVE SMOOTH",
"309 307 OFFCURVE",
"382 266 OFFCURVE",
"412 218 OFFCURVE",
"412 183 QCURVE SMOOTH",
"412 130 OFFCURVE",
"331 68 OFFCURVE",
"251 68 QCURVE SMOOTH",
"194 68 OFFCURVE",
"87 94 OFFCURVE",
"51 110 QCURVE",
"51 24 LINE",
"85 8 OFFCURVE",
"187 -10 OFFCURVE",
"247 -10 QCURVE SMOOTH",
"364 -10 OFFCURVE",
"502 96 OFFCURVE",
"502 191 QCURVE",
"502 191 LINE"
);
}
);
width = 549;
}
);
note = S;
unicode = 0053;
},
{
glyphname = T;
layers = (
{
layerId = "CFFEBDE4-599A-46B2-9328-D96E42CD9C81";
paths = (
{
closed = 1;
nodes = (
"323 635 LINE",
"545 635 LINE",
"545 714 LINE",
"10 714 LINE",
"10 635 LINE",
"233 635 LINE",
"233 0 LINE",
"323 0 LINE",
"323 0 LINE"
);
}
);
width = 556;
}
);
leftKerningGroup = T;
note = T;
rightKerningGroup = T;
unicode = 0054;
},
{
glyphname = U;
layers = (
{
layerId = "CFFEBDE4-599A-46B2-9328-D96E42CD9C81";
paths = (
{
closed = 1;
nodes = (
"551 714 LINE",
"551 252 LINE SMOOTH",
"551 171 OFFCURVE",
"464 68 OFFCURVE",
"367 68 QCURVE SMOOTH",
"273 68 OFFCURVE",
"180 164 OFFCURVE",
"180 251 QCURVE SMOOTH",
"180 714 LINE",
"90 714 LINE",
"90 254 LINE SMOOTH",
"90 135 OFFCURVE",
"229 -10 OFFCURVE",
"362 -10 QCURVE SMOOTH",
"457 -10 OFFCURVE",
"580 59 OFFCURVE",
"640 178 OFFCURVE",
"640 252 QCURVE SMOOTH",
"640 714 LINE",
"640 714 LINE"
);
}
);
width = 731;
}
);
leftKerningGroup = U;
note = U;
rightKerningGroup = U;
unicode = 0055;
},
{
glyphname = V;
layers = (
{
layerId = "CFFEBDE4-599A-46B2-9328-D96E42CD9C81";
paths = (
{
closed = 1;
nodes = (
"505 714 LINE",
"345 258 LINE SMOOTH",
"329 213 OFFCURVE",
"307 135 OFFCURVE",
"300 100 QCURVE",
"293 135 OFFCURVE",
"271 212 OFFCURVE",
"255 256 QCURVE SMOOTH",
"94 714 LINE",
"0 714 LINE",
"255 0 LINE",
"345 0 LINE",
"600 714 LINE",
"600 714 LINE"
);
}
);
width = 600;
}
);
leftKerningGroup = V;
note = V;
rightKerningGroup = V;
unicode = 0056;
},
{
glyphname = W;
layers = (
{
layerId = "CFFEBDE4-599A-46B2-9328-D96E42CD9C81";
paths = (
{
closed = 1;
nodes = (
"823 714 LINE",
"713 279 LINE SMOOTH",
"701 232 OFFCURVE",
"683 145 OFFCURVE",
"678 108 QCURVE",
"673 143 OFFCURVE",
"653 234 OFFCURVE",
"639 280 QCURVE SMOOTH",
"508 714 LINE",
"415 714 LINE",
"289 283 LINE SMOOTH",
"276 239 OFFCURVE",
"256 147 OFFCURVE",
"251 108 QCURVE",
"246 146 OFFCURVE",
"229 232 OFFCURVE",
"217 278 QCURVE SMOOTH",
"106 714 LINE",
"12 714 LINE",
"201 0 LINE",
"292 0 LINE",
"427 465 LINE SMOOTH",
"441 511 OFFCURVE",
"460 596 OFFCURVE",
"461 609 QCURVE",
"463 600 OFFCURVE",
"473 555 OFFCURVE",
"489 497 OFFCURVE",
"497 468 QCURVE SMOOTH",
"636 0 LINE",
"727 0 LINE",
"917 714 LINE",
"917 714 LINE"
);
}
);
width = 930;
}
);
leftKerningGroup = V;
note = W;
rightKerningGroup = V;
unicode = 0057;
},
{
glyphname = X;
layers = (
{
layerId = "CFFEBDE4-599A-46B2-9328-D96E42CD9C81";
paths = (
{
closed = 1;
nodes = (
"344 374 LINE",
"565 714 LINE",
"470 714 LINE",
"294 434 LINE",
"119 714 LINE",
"19 714 LINE",
"241 372 LINE",
"4 0 LINE",
"99 0 LINE",
"291 310 LINE",
"480 0 LINE",
"582 0 LINE",
"582 0 LINE"
);
}
);
width = 586;
}
);
note = X;
rightKerningGroup = K;
unicode = 0058;
},
{
glyphname = Y;
layers = (
{
layerId = "CFFEBDE4-599A-46B2-9328-D96E42CD9C81";
paths = (
{
closed = 1;
nodes = (
"98 714 LINE",
"0 714 LINE",
"238 273 LINE",
"238 0 LINE",
"328 0 LINE",
"328 277 LINE",
"566 714 LINE",
"469 714 LINE",
"283 363 LINE",
"283 363 LINE"
);
}
);
width = 566;
}
);
leftKerningGroup = Y;
note = Y;
rightKerningGroup = Y;
unicode = 0059;
},
{
glyphname = Z;
layers = (
{
layerId = "CFFEBDE4-599A-46B2-9328-D96E42CD9C81";
paths = (
{
closed = 1;
nodes = (
"533 80 LINE",
"147 80 LINE",
"523 646 LINE",
"523 714 LINE",
"50 714 LINE",
"50 634 LINE",
"414 634 LINE",
"38 68 LINE",
"38 0 LINE",
"533 0 LINE",
"533 0 LINE"
);
}
);
width = 572;
}
);
leftKerningGroup = Z;
note = Z;
rightKerningGroup = Z;
unicode = 005A;
},
{
glyphname = a;
layers = (
{
layerId = "CFFEBDE4-599A-46B2-9328-D96E42CD9C81";
paths = (
{
closed = 1;
nodes = (
"236 545 OFFCURVE",
"140 518 OFFCURVE",
"105 499 QCURVE",
"132 433 LINE",
"165 449 OFFCURVE",
"241 474 OFFCURVE",
"283 474 QCURVE SMOOTH",
"336 474 OFFCURVE",
"394 422 OFFCURVE",
"394 355 QCURVE SMOOTH",
"394 323 LINE",
"303 320 LINE SMOOTH",
"172 316 OFFCURVE",
"46 229 OFFCURVE",
"46 149 QCURVE SMOOTH",
"46 67 OFFCURVE",
"142 -10 OFFCURVE",
"215 -10 QCURVE SMOOTH",
"283 -10 OFFCURVE",
"360 32 OFFCURVE",
"395 76 QCURVE",
"399 76 LINE",
"416 0 LINE",
"480 0 LINE",
"480 365 LINE SMOOTH",
"480 459 OFFCURVE",
"386 545 OFFCURVE",
"288 545 QCURVE",
"288 545 LINE"
);
},
{
closed = 1;
nodes = (
"393 214 LINE SMOOTH",
"393 136 OFFCURVE",
"303 61 OFFCURVE",
"235 61 QCURVE SMOOTH",
"192 61 OFFCURVE",
"137 103 OFFCURVE",
"137 148 QCURVE SMOOTH",
"137 199 OFFCURVE",
"214 255 OFFCURVE",
"314 259 QCURVE SMOOTH",
"393 262 LINE",
"393 262 LINE"
);
}
);
width = 561;
}
);
leftKerningGroup = a;
note = a;
rightKerningGroup = a;
unicode = 0061;
},
{
glyphname = b;
layers = (
{
layerId = "CFFEBDE4-599A-46B2-9328-D96E42CD9C81";
paths = (
{
closed = 1;
nodes = (
"85 760 LINE",
"85 0 LINE",
"148 0 LINE",
"166 68 LINE",
"173 68 LINE",
"196 36 OFFCURVE",
"276 -10 OFFCURVE",
"339 -10 QCURVE SMOOTH",
"438 -10 OFFCURVE",
"560 130 OFFCURVE",
"560 268 QCURVE SMOOTH",
"560 406 OFFCURVE",
"439 545 OFFCURVE",
"339 545 QCURVE SMOOTH",
"276 545 OFFCURVE",
"196 499 OFFCURVE",
"173 465 QCURVE",
"168 465 LINE",
"170 482 OFFCURVE",
"173 541 OFFCURVE",
"173 575 QCURVE SMOOTH",
"173 760 LINE",
"173 760 LINE"
);
},
{
closed = 1;
nodes = (
"469 472 OFFCURVE",
"469 269 QCURVE SMOOTH",
"469 169 OFFCURVE",
"398 63 OFFCURVE",
"326 63 QCURVE SMOOTH",
"238 63 OFFCURVE",
"173 168 OFFCURVE",
"173 267 QCURVE SMOOTH",
"173 271 LINE SMOOTH",
"173 374 OFFCURVE",
"239 472 OFFCURVE",
"324 472 QCURVE",
"324 472 LINE"
);
}
);
width = 615;
}
);
leftKerningGroup = b;
note = b;
rightKerningGroup = b;
unicode = 0062;
},
{
glyphname = c;
layers = (
{
layerId = "CFFEBDE4-599A-46B2-9328-D96E42CD9C81";
paths = (
{
closed = 1;
nodes = (
"346 -10 OFFCURVE",
"411 5 OFFCURVE",
"438 19 QCURVE",
"438 97 LINE",
"410 84 OFFCURVE",
"343 66 OFFCURVE",
"299 66 QCURVE SMOOTH",
"223 66 OFFCURVE",
"146 169 OFFCURVE",
"146 266 QCURVE SMOOTH",
"146 469 OFFCURVE",
"304 469 QCURVE SMOOTH",
"332 469 OFFCURVE",
"396 453 OFFCURVE",
"420 444 QCURVE",
"447 517 LINE",
"423 529 OFFCURVE",
"347 546 OFFCURVE",
"306 546 QCURVE SMOOTH",
"234 546 OFFCURVE",
"121 488 OFFCURVE",
"55 364 OFFCURVE",
"55 265 QCURVE SMOOTH",
"55 170 OFFCURVE",
"118 48 OFFCURVE",
"229 -10 OFFCURVE",
"300 -10 QCURVE",
"300 -10 LINE"
);
}
);
width = 480;
}
);
leftKerningGroup = c;
note = c;
unicode = 0063;
},
{
glyphname = d;
layers = (
{
layerId = "CFFEBDE4-599A-46B2-9328-D96E42CD9C81";
paths = (
{
closed = 1;
nodes = (
"338 -10 OFFCURVE",
"418 38 OFFCURVE",
"442 72 QCURVE",
"446 72 LINE",
"459 0 LINE",
"530 0 LINE",
"530 760 LINE",
"442 760 LINE",
"442 546 LINE SMOOTH",
"442 531 OFFCURVE",
"447 480 OFFCURVE",
"448 467 QCURVE",
"442 467 LINE",
"417 500 OFFCURVE",
"338 546 OFFCURVE",
"276 546 QCURVE SMOOTH",
"176 546 OFFCURVE",
"55 405 OFFCURVE",
"55 267 QCURVE SMOOTH",
"55 129 OFFCURVE",
"175 -10 OFFCURVE",
"275 -10 QCURVE",
"275 -10 LINE"
);
},
{
closed = 1;
nodes = (
"217 63 OFFCURVE",
"146 169 OFFCURVE",
"146 265 QCURVE SMOOTH",
"146 360 OFFCURVE",
"217 473 OFFCURVE",
"288 473 QCURVE SMOOTH",
"377 473 OFFCURVE",
"443 366 OFFCURVE",
"443 266 QCURVE SMOOTH",
"443 250 LINE SMOOTH",
"443 156 OFFCURVE",
"374 63 OFFCURVE",
"289 63 QCURVE",
"289 63 LINE"
);
}
);
width = 615;
}
);
leftKerningGroup = c;
note = d;
unicode = 0064;
},
{
glyphname = e;
layers = (
{
layerId = "CFFEBDE4-599A-46B2-9328-D96E42CD9C81";
paths = (
{
closed = 1;
nodes = (
"221 546 OFFCURVE",
"114 478 OFFCURVE",
"55 352 OFFCURVE",
"55 264 QCURVE SMOOTH",
"55 175 OFFCURVE",
"120 52 OFFCURVE",
"237 -10 OFFCURVE",
"313 -10 QCURVE SMOOTH",
"368 -10 OFFCURVE",
"448 7 OFFCURVE",
"489 25 QCURVE",
"489 102 LINE",
"447 84 OFFCURVE",
"368 65 OFFCURVE",
"317 65 QCURVE SMOOTH",
"237 65 OFFCURVE",
"148 160 OFFCURVE",
"146 251 QCURVE",
"513 251 LINE",
"513 304 LINE SMOOTH",
"513 377 OFFCURVE",
"460 486 OFFCURVE",
"361 546 OFFCURVE",
"292 546 QCURVE",
"292 546 LINE"
);
},
{
closed = 1;
nodes = (
"358 474 OFFCURVE",
"420 389 OFFCURVE",
"421 321 QCURVE",
"148 321 LINE",
"155 393 OFFCURVE",
"228 474 OFFCURVE",
"291 474 QCURVE",
"291 474 LINE"
);
}
);
width = 564;
}
);
leftKerningGroup = c;
note = e;
rightKerningGroup = b;
unicode = 0065;
},
{
glyphname = f;
layers = (
{
layerId = "CFFEBDE4-599A-46B2-9328-D96E42CD9C81";
paths = (
{
closed = 1;
nodes = (
"332 536 LINE",
"197 536 LINE",
"197 571 LINE SMOOTH",
"197 634 OFFCURVE",
"240 693 OFFCURVE",
"284 693 QCURVE SMOOTH",
"306 693 OFFCURVE",
"348 683 OFFCURVE",
"364 678 QCURVE",
"387 747 LINE",
"368 754 OFFCURVE",
"315 765 OFFCURVE",
"283 765 QCURVE SMOOTH",
"201 765 OFFCURVE",
"109 674 OFFCURVE",
"109 570 QCURVE SMOOTH",
"109 539 LINE",
"15 509 LINE",
"15 468 LINE",
"109 468 LINE",
"109 0 LINE",
"197 0 LINE",
"197 468 LINE",
"332 468 LINE",
"332 468 LINE"
);
}
);
width = 344;
}
);
leftKerningGroup = f;
note = f;
rightKerningGroup = f;
unicode = 0066;
},
{
glyphname = g;
layers = (
{
layerId = "CFFEBDE4-599A-46B2-9328-D96E42CD9C81";
paths = (
{
closed = 1;
nodes = (
"172 546 OFFCURVE",
"55 395 OFFCURVE",
"55 267 QCURVE SMOOTH",
"55 136 OFFCURVE",
"172 -10 OFFCURVE",
"276 -10 QCURVE SMOOTH",
"388 -10 OFFCURVE",
"442 71 QCURVE",
"446 71 LINE",
"445 62 OFFCURVE",
"443 17 OFFCURVE",
"443 5 QCURVE SMOOTH",
"443 -16 LINE SMOOTH",
"443 -86 OFFCURVE",
"364 -167 OFFCURVE",
"295 -167 QCURVE SMOOTH",
"176 -167 OFFCURVE",
"97 -125 QCURVE",
"97 -206 LINE",
"172 -240 OFFCURVE",
"290 -240 QCURVE SMOOTH",
"413 -240 OFFCURVE",
"530 -124 OFFCURVE",
"530 -9 QCURVE SMOOTH",
"530 536 LINE",
"460 536 LINE",
"448 465 LINE",
"443 465 LINE",
"413 506 OFFCURVE",
"328 546 OFFCURVE",
"275 546 QCURVE",
"275 546 LINE"
);
},
{
closed = 1;
nodes = (
"368 472 OFFCURVE",
"444 377 OFFCURVE",
"444 267 QCURVE SMOOTH",
"444 246 LINE SMOOTH",
"444 149 OFFCURVE",
"370 62 OFFCURVE",
"289 62 QCURVE SMOOTH",
"219 62 OFFCURVE",
"146 167 OFFCURVE",
"146 266 QCURVE SMOOTH",
"146 365 OFFCURVE",
"220 472 OFFCURVE",
"287 472 QCURVE",
"287 472 LINE"
);
}
);
width = 615;
}
);
leftKerningGroup = g;
note = g;
unicode = 0067;
},
{
glyphname = h;
layers = (
{
layerId = "CFFEBDE4-599A-46B2-9328-D96E42CD9C81";
paths = (
{
closed = 1;
nodes = (
"85 760 LINE",
"85 0 LINE",
"173 0 LINE",
"173 277 LINE SMOOTH",
"173 371 OFFCURVE",
"240 472 OFFCURVE",
"330 472 QCURVE SMOOTH",
"450 472 OFFCURVE",
"450 343 QCURVE SMOOTH",
"450 0 LINE",
"537 0 LINE",
"537 349 LINE SMOOTH",
"537 452 OFFCURVE",
"439 545 OFFCURVE",
"341 545 QCURVE SMOOTH",
"289 545 OFFCURVE",
"200 503 OFFCURVE",
"174 462 QCURVE",
"168 462 LINE",
"173 497 OFFCURVE",
"173 537 QCURVE SMOOTH",
"173 760 LINE",
"173 760 LINE"
);
}
);
width = 618;
}
);
leftKerningGroup = b;
note = h;
rightKerningGroup = a;
unicode = 0068;
},
{
glyphname = i;
layers = (
{
layerId = "CFFEBDE4-599A-46B2-9328-D96E42CD9C81";
paths = (
{
closed = 1;
nodes = (
"108 737 OFFCURVE",
"78 710 OFFCURVE",
"78 681 QCURVE SMOOTH",
"78 653 OFFCURVE",
"108 625 OFFCURVE",
"130 625 QCURVE SMOOTH",
"150 625 OFFCURVE",
"181 653 OFFCURVE",
"181 681 QCURVE SMOOTH",
"181 710 OFFCURVE",
"150 737 OFFCURVE",
"130 737 QCURVE",
"130 737 LINE"
);
},
{
closed = 1;
nodes = (
"85 536 LINE",
"85 0 LINE",
"173 0 LINE",
"173 536 LINE",
"173 536 LINE"
);
}
);
width = 258;
}
);
note = i;
unicode = 0069;
},
{
glyphname = j;
layers = (
{
layerId = "CFFEBDE4-599A-46B2-9328-D96E42CD9C81";
paths = (
{
closed = 1;
nodes = (
"78 653 OFFCURVE",
"108 625 OFFCURVE",
"130 625 QCURVE SMOOTH",
"150 625 OFFCURVE",
"181 653 OFFCURVE",
"181 681 QCURVE SMOOTH",
"181 710 OFFCURVE",
"150 737 OFFCURVE",
"130 737 QCURVE SMOOTH",
"108 737 OFFCURVE",
"78 710 OFFCURVE",
"78 681 QCURVE",
"78 681 LINE"
);
},
{
closed = 1;
nodes = (
"101 -240 OFFCURVE",
"173 -155 OFFCURVE",
"173 -80 QCURVE SMOOTH",
"173 536 LINE",
"85 536 LINE",
"85 -83 LINE SMOOTH",
"85 -132 OFFCURVE",
"43 -167 OFFCURVE",
"11 -167 QCURVE SMOOTH",
"-8 -167 OFFCURVE",
"-40 -161 OFFCURVE",
"-55 -157 QCURVE",
"-55 -228 LINE",
"-41 -233 OFFCURVE",
"-3 -240 OFFCURVE",
"22 -240 QCURVE",
"22 -240 LINE"
);
}
);
width = 258;
}
);
note = j;
unicode = 006A;
},
{
glyphname = k;
layers = (
{
layerId = "CFFEBDE4-599A-46B2-9328-D96E42CD9C81";
paths = (
{
closed = 1;
nodes = (
"85 760 LINE",
"85 0 LINE",
"172 0 LINE",
"172 197 LINE",
"233 250 LINE",
"419 0 LINE",
"525 0 LINE",
"293 307 LINE",
"510 536 LINE",
"407 536 LINE",
"236 355 LINE SMOOTH",
"227 345 OFFCURVE",
"202 314 OFFCURVE",
"178 284 OFFCURVE",
"172 276 QCURVE",
"168 276 LINE",
"169 295 OFFCURVE",
"172 347 OFFCURVE",
"172 363 QCURVE SMOOTH",
"172 760 LINE",
"172 760 LINE"
);
}
);
width = 534;
}
);
leftKerningGroup = b;
note = k;
unicode = 006B;
},
{
glyphname = l;
layers = (
{
layerId = "CFFEBDE4-599A-46B2-9328-D96E42CD9C81";
paths = (
{
closed = 1;
nodes = (
"173 760 LINE",
"85 760 LINE",
"85 0 LINE",
"173 0 LINE",
"173 0 LINE"
);
}
);
width = 258;
}
);
leftKerningGroup = b;
note = l;
unicode = 006C;
},
{
glyphname = m;
layers = (
{
layerId = "CFFEBDE4-599A-46B2-9328-D96E42CD9C81";
paths = (
{
closed = 1;
nodes = (
"621 546 OFFCURVE",
"528 502 OFFCURVE",
"501 456 QCURVE",
"496 456 LINE",
"458 546 OFFCURVE",
"332 546 QCURVE SMOOTH",
"284 546 OFFCURVE",
"199 505 OFFCURVE",
"174 463 QCURVE",
"169 463 LINE",
"156 536 LINE",
"85 536 LINE",
"85 0 LINE",
"173 0 LINE",
"173 278 LINE SMOOTH",
"173 372 OFFCURVE",
"235 472 OFFCURVE",
"316 472 QCURVE SMOOTH",
"426 472 OFFCURVE",
"426 345 QCURVE SMOOTH",
"426 0 LINE",
"513 0 LINE",
"513 296 LINE SMOOTH",
"513 382 OFFCURVE",
"580 472 OFFCURVE",
"658 472 QCURVE SMOOTH",
"767 472 OFFCURVE",
"767 345 QCURVE SMOOTH",
"767 0 LINE",
"854 0 LINE",
"854 349 LINE SMOOTH",
"854 453 OFFCURVE",
"764 546 OFFCURVE",
"673 546 QCURVE",
"673 546 LINE"
);
}
);
width = 935;
}
);
leftKerningGroup = m;
note = m;
rightKerningGroup = a;
unicode = 006D;
},
{
glyphname = n;
layers = (
{
layerId = "CFFEBDE4-599A-46B2-9328-D96E42CD9C81";
paths = (
{
closed = 1;
nodes = (
"292 546 OFFCURVE",
"200 505 OFFCURVE",
"174 463 QCURVE",
"169 463 LINE",
"156 536 LINE",
"85 536 LINE",
"85 0 LINE",
"173 0 LINE",
"173 278 LINE SMOOTH",
"173 372 OFFCURVE",
"241 472 OFFCURVE",
"330 472 QCURVE SMOOTH",
"450 472 OFFCURVE",
"450 343 QCURVE SMOOTH",
"450 0 LINE",
"537 0 LINE",
"537 349 LINE SMOOTH",
"537 453 OFFCURVE",
"439 546 OFFCURVE",
"343 546 QCURVE",
"343 546 LINE"
);
}
);
width = 618;
}
);
leftKerningGroup = m;
note = n;
rightKerningGroup = a;
unicode = 006E;
},
{
glyphname = o;
layers = (
{
layerId = "CFFEBDE4-599A-46B2-9328-D96E42CD9C81";
paths = (
{
closed = 1;
nodes = (
"551 358 OFFCURVE",
"488 481 OFFCURVE",
"377 546 OFFCURVE",
"304 546 QCURVE SMOOTH",
"189 546 OFFCURVE",
"55 402 OFFCURVE",
"55 269 QCURVE SMOOTH",
"55 180 OFFCURVE",
"119 55 OFFCURVE",
"230 -10 OFFCURVE",
"301 -10 QCURVE SMOOTH",
"416 -10 OFFCURVE",
"551 136 OFFCURVE",
"551 269 QCURVE",
"551 269 LINE"
);
},
{
closed = 1;
nodes = (
"146 364 OFFCURVE",
"220 472 OFFCURVE",
"302 472 QCURVE SMOOTH",
"384 472 OFFCURVE",
"460 364 OFFCURVE",
"460 269 QCURVE SMOOTH",
"460 174 OFFCURVE",
"384 63 OFFCURVE",
"303 63 QCURVE SMOOTH",
"221 63 OFFCURVE",
"146 174 OFFCURVE",
"146 269 QCURVE",
"146 269 LINE"
);
}
);
width = 605;
}
);
leftKerningGroup = c;
note = o;
rightKerningGroup = b;
unicode = 006F;
},
{
glyphname = p;
layers = (
{
layerId = "CFFEBDE4-599A-46B2-9328-D96E42CD9C81";
paths = (
{
closed = 1;
nodes = (
"275 546 OFFCURVE",
"197 498 OFFCURVE",
"173 463 QCURVE",
"169 463 LINE",
"157 536 LINE",
"85 536 LINE",
"85 -240 LINE",
"173 -240 LINE",
"173 -20 LINE SMOOTH",
"173 -1 OFFCURVE",
"169 51 OFFCURVE",
"167 68 QCURVE",
"173 68 LINE",
"196 37 OFFCURVE",
"277 -10 OFFCURVE",
"339 -10 QCURVE SMOOTH",
"439 -10 OFFCURVE",
"560 132 OFFCURVE",
"560 269 QCURVE SMOOTH",
"560 408 OFFCURVE",
"439 546 OFFCURVE",
"340 546 QCURVE",
"340 546 LINE"
);
},
{
closed = 1;
nodes = (
"398 472 OFFCURVE",
"469 362 OFFCURVE",
"469 270 QCURVE SMOOTH",
"469 210 OFFCURVE",
"438 117 OFFCURVE",
"375 63 OFFCURVE",
"326 63 QCURVE SMOOTH",
"238 63 OFFCURVE",
"173 170 OFFCURVE",
"173 269 QCURVE SMOOTH",
"173 286 LINE SMOOTH",
"175 380 OFFCURVE",
"242 472 OFFCURVE",
"324 472 QCURVE",
"324 472 LINE"
);
}
);
width = 615;
}
);
leftKerningGroup = m;
note = p;
rightKerningGroup = b;
unicode = 0070;
},
{
glyphname = q;
layers = (
{
layerId = "CFFEBDE4-599A-46B2-9328-D96E42CD9C81";
paths = (
{
closed = 1;
nodes = (
"530 -240 LINE",
"530 536 LINE",
"460 536 LINE",
"447 463 LINE",
"443 463 LINE",
"419 498 OFFCURVE",
"339 546 OFFCURVE",
"276 546 QCURVE SMOOTH",
"178 546 OFFCURVE",
"55 405 OFFCURVE",
"55 267 QCURVE SMOOTH",
"55 129 OFFCURVE",
"176 -10 OFFCURVE",
"273 -10 QCURVE SMOOTH",
"337 -10 OFFCURVE",
"418 38 OFFCURVE",
"441 72 QCURVE",
"447 72 LINE",
"444 55 OFFCURVE",
"442 7 OFFCURVE",
"442 -11 QCURVE SMOOTH",
"442 -240 LINE",
"442 -240 LINE"
);
},
{
closed = 1;
nodes = (
"217 63 OFFCURVE",
"146 170 OFFCURVE",
"146 265 QCURVE SMOOTH",
"146 360 OFFCURVE",
"216 473 OFFCURVE",
"288 473 QCURVE SMOOTH",
"375 473 OFFCURVE",
"443 368 OFFCURVE",
"443 266 QCURVE SMOOTH",
"443 248 LINE SMOOTH",
"442 154 OFFCURVE",
"373 63 OFFCURVE",
"290 63 QCURVE",
"290 63 LINE"
);
}
);
width = 615;
}
);
leftKerningGroup = c;
note = q;
unicode = 0071;
},
{
glyphname = r;
layers = (
{
layerId = "CFFEBDE4-599A-46B2-9328-D96E42CD9C81";
paths = (
{
closed = 1;
nodes = (
"279 546 OFFCURVE",
"197 482 OFFCURVE",
"171 438 QCURVE",
"167 438 LINE",
"157 536 LINE",
"85 536 LINE",
"85 0 LINE",
"173 0 LINE",
"173 286 LINE SMOOTH",
"173 340 OFFCURVE",
"216 421 OFFCURVE",
"288 466 OFFCURVE",
"329 466 QCURVE SMOOTH",
"343 466 OFFCURVE",
"374 462 OFFCURVE",
"387 459 QCURVE",
"398 540 LINE",
"385 543 OFFCURVE",
"350 546 OFFCURVE",
"335 546 QCURVE",
"335 546 LINE"
);
}
);
width = 413;
}
);
leftKerningGroup = m;
note = r;
rightKerningGroup = r;
unicode = 0072;
},
{
glyphname = s;
layers = (
{
layerId = "CFFEBDE4-599A-46B2-9328-D96E42CD9C81";
paths = (
{
closed = 1;
nodes = (
"434 191 OFFCURVE",
"396 248 OFFCURVE",
"324 288 OFFCURVE",
"273 307 QCURVE SMOOTH",
"222 327 OFFCURVE",
"161 356 OFFCURVE",
"135 387 OFFCURVE",
"135 409 QCURVE SMOOTH",
"135 439 OFFCURVE",
"192 474 OFFCURVE",
"246 474 QCURVE SMOOTH",
"285 474 OFFCURVE",
"359 454 OFFCURVE",
"393 440 QCURVE",
"423 510 LINE",
"386 527 OFFCURVE",
"301 546 OFFCURVE",
"252 546 QCURVE SMOOTH",
"162 546 OFFCURVE",
"51 472 OFFCURVE",
"51 404 QCURVE SMOOTH",
"51 360 OFFCURVE",
"91 304 OFFCURVE",
"165 264 OFFCURVE",
"217 244 QCURVE SMOOTH",
"270 224 OFFCURVE",
"327 192 OFFCURVE",
"349 160 OFFCURVE",
"349 140 QCURVE SMOOTH",
"349 104 OFFCURVE",
"289 61 OFFCURVE",
"222 61 QCURVE SMOOTH",
"175 61 OFFCURVE",
"84 88 OFFCURVE",
"52 104 QCURVE",
"52 24 LINE",
"83 8 OFFCURVE",
"164 -10 OFFCURVE",
"220 -10 QCURVE SMOOTH",
"318 -10 OFFCURVE",
"434 70 OFFCURVE",
"434 148 QCURVE",
"434 148 LINE"
);
}
);
width = 479;
}
);
leftKerningGroup = s;
note = s;
unicode = 0073;
},
{
glyphname = t;
layers = (
{
layerId = "CFFEBDE4-599A-46B2-9328-D96E42CD9C81";
paths = (
{
closed = 1;
nodes = (
"227 62 OFFCURVE",
"180 109 OFFCURVE",
"180 158 QCURVE SMOOTH",
"180 468 LINE",
"335 468 LINE",
"335 536 LINE",
"180 536 LINE",
"180 659 LINE",
"128 659 LINE",
"93 545 LINE",
"16 510 LINE",
"16 468 LINE",
"92 468 LINE",
"92 156 LINE SMOOTH",
"92 91 OFFCURVE",
"136 19 OFFCURVE",
"207 -10 OFFCURVE",
"249 -10 QCURVE SMOOTH",
"273 -10 OFFCURVE",
"325 -1 OFFCURVE",
"339 6 QCURVE",
"339 73 LINE",
"326 69 OFFCURVE",
"284 62 OFFCURVE",
"264 62 QCURVE",
"264 62 LINE"
);
}
);
width = 361;
}
);
leftKerningGroup = t;
note = t;
rightKerningGroup = t;
unicode = 0074;
},
{
glyphname = u;
layers = (
{
layerId = "CFFEBDE4-599A-46B2-9328-D96E42CD9C81";
paths = (
{
closed = 1;
nodes = (
"445 536 LINE",
"445 257 LINE SMOOTH",
"445 163 OFFCURVE",
"376 63 OFFCURVE",
"287 63 QCURVE SMOOTH",
"168 63 OFFCURVE",
"168 191 QCURVE SMOOTH",
"168 536 LINE",
"79 536 LINE",
"79 185 LINE SMOOTH",
"79 83 OFFCURVE",
"177 -10 OFFCURVE",
"274 -10 QCURVE SMOOTH",
"326 -10 OFFCURVE",
"418 29 OFFCURVE",
"444 71 QCURVE",
"448 71 LINE",
"461 0 LINE",
"533 0 LINE",
"533 536 LINE",
"533 536 LINE"
);
}
);
width = 618;
}
);
leftKerningGroup = m;
note = u;
unicode = 0075;
},
{
glyphname = v;
layers = (
{
layerId = "CFFEBDE4-599A-46B2-9328-D96E42CD9C81";
paths = (
{
closed = 1;
nodes = (
"304 0 LINE",
"508 536 LINE",
"414 536 LINE",
"300 220 LINE SMOOTH",
"293 199 OFFCURVE",
"274 145 OFFCURVE",
"259 95 OFFCURVE",
"255 78 QCURVE",
"251 78 LINE",
"248 95 OFFCURVE",
"234 144 OFFCURVE",
"216 198 OFFCURVE",
"208 220 QCURVE SMOOTH",
"94 536 LINE",
"0 536 LINE",
"203 0 LINE",
"203 0 LINE"
);
}
);
width = 508;
}
);
leftKerningGroup = v;
note = v;
rightKerningGroup = v;
unicode = 0076;
},
{
glyphname = w;
layers = (
{
layerId = "CFFEBDE4-599A-46B2-9328-D96E42CD9C81";
paths = (
{
closed = 1;
nodes = (
"626 1 LINE",
"775 537 LINE",
"685 537 LINE",
"610 251 LINE SMOOTH",
"598 205 OFFCURVE",
"577 117 OFFCURVE",
"574 92 QCURVE",
"570 92 LINE",
"566 121 OFFCURVE",
"545 201 OFFCURVE",
"534 235 QCURVE SMOOTH",
"442 537 LINE",
"346 537 LINE",
"251 235 LINE SMOOTH",
"244 213 OFFCURVE",
"230 158 OFFCURVE",
"219 108 OFFCURVE",
"215 91 QCURVE",
"211 91 LINE",
"207 120 OFFCURVE",
"187 208 OFFCURVE",
"176 251 QCURVE SMOOTH",
"102 537 LINE",
"11 537 LINE",
"158 1 LINE",
"258 1 LINE",
"354 302 LINE SMOOTH",
"368 344 OFFCURVE",
"386 423 OFFCURVE",
"390 445 QCURVE",
"394 445 LINE",
"399 423 OFFCURVE",
"418 344 OFFCURVE",
"431 303 QCURVE SMOOTH",
"523 1 LINE",
"523 1 LINE"
);
}
);
width = 786;
}
);
leftKerningGroup = v;
note = w;
rightKerningGroup = v;
unicode = 0077;
},
{
glyphname = x;
layers = (
{
layerId = "CFFEBDE4-599A-46B2-9328-D96E42CD9C81";
paths = (
{
closed = 1;
nodes = (
"18 0 LINE",
"117 0 LINE",
"265 214 LINE",
"411 0 LINE",
"511 0 LINE",
"316 274 LINE",
"501 536 LINE",
"402 536 LINE",
"265 334 LINE",
"127 536 LINE",
"27 536 LINE",
"212 274 LINE",
"212 274 LINE"
);
}
);
width = 529;
}
);
leftKerningGroup = v;
note = x;
rightKerningGroup = x;
unicode = 0078;
},
{
glyphname = y;
layers = (
{
layerId = "CFFEBDE4-599A-46B2-9328-D96E42CD9C81";
paths = (
{
closed = 1;
nodes = (
"217 -2 LINE",
"189 -73 LINE SMOOTH",
"173 -116 OFFCURVE",
"116 -168 OFFCURVE",
"70 -168 QCURVE SMOOTH",
"53 -168 OFFCURVE",
"22 -164 OFFCURVE",
"11 -162 QCURVE",
"11 -232 LINE",
"24 -235 OFFCURVE",
"60 -240 OFFCURVE",
"84 -240 QCURVE SMOOTH",
"162 -240 OFFCURVE",
"251 -150 OFFCURVE",
"279 -74 QCURVE SMOOTH",
"510 536 LINE",
"415 536 LINE",
"306 232 LINE SMOOTH",
"292 191 OFFCURVE",
"266 110 OFFCURVE",
"260 85 QCURVE",
"256 85 LINE",
"250 118 OFFCURVE",
"226 191 OFFCURVE",
"211 231 QCURVE SMOOTH",
"95 536 LINE",
"1 536 LINE",
"1 536 LINE"
);
}
);
width = 600;
}
);
leftKerningGroup = v;
note = y;
rightKerningGroup = v;
unicode = 0079;
},
{
glyphname = z;
layers = (
{
layerId = "CFFEBDE4-599A-46B2-9328-D96E42CD9C81";
paths = (
{
closed = 1;
nodes = (
"431 68 LINE",
"140 68 LINE",
"424 470 LINE",
"424 536 LINE",
"56 536 LINE",
"56 468 LINE",
"327 468 LINE",
"39 58 LINE",
"39 0 LINE",
"431 0 LINE",
"431 0 LINE"
);
}
);
width = 470;
}
);
leftKerningGroup = z;
note = z;
unicode = 007A;
},
{
glyphname = zero;
layers = (
{
layerId = "CFFEBDE4-599A-46B2-9328-D96E42CD9C81";
paths = (
{
closed = 1;
nodes = (
"523 532 OFFCURVE",
"405 725 OFFCURVE",
"285 725 QCURVE SMOOTH",
"200 725 OFFCURVE",
"96 638 OFFCURVE",
"49 474 OFFCURVE",
"49 358 QCURVE SMOOTH",
"49 185 OFFCURVE",
"164 -10 OFFCURVE",
"285 -10 QCURVE SMOOTH",
"371 -10 OFFCURVE",
"475 78 OFFCURVE",
"523 243 OFFCURVE",
"523 358 QCURVE",
"523 358 LINE"
);
},
{
closed = 1;
nodes = (
"137 504 OFFCURVE",
"204 650 OFFCURVE",
"285 650 QCURVE SMOOTH",
"365 650 OFFCURVE",
"434 504 OFFCURVE",
"434 358 QCURVE SMOOTH",
"434 210 OFFCURVE",
"365 65 OFFCURVE",
"285 65 QCURVE SMOOTH",
"204 65 OFFCURVE",
"137 211 OFFCURVE",
"137 358 QCURVE",
"137 358 LINE"
);
}
);
width = 572;
}
);
note = zero;
unicode = 0030;
},
{
glyphname = one;
layers = (
{
layerId = "CFFEBDE4-599A-46B2-9328-D96E42CD9C81";
paths = (
{
closed = 1;
nodes = (
"355 714 LINE",
"282 714 LINE",
"89 564 LINE",
"135 505 LINE",
"211 567 LINE SMOOTH",
"231 584 OFFCURVE",
"257 606 OFFCURVE",
"273 622 QCURVE",
"271 594 OFFCURVE",
"269 542 OFFCURVE",
"269 499 QCURVE SMOOTH",
"269 0 LINE",
"355 0 LINE",
"355 0 LINE"
);
}
);
width = 572;
}
);
note = one;
unicode = 0031;
},
{
glyphname = two;
layers = (
{
layerId = "CFFEBDE4-599A-46B2-9328-D96E42CD9C81";
paths = (
{
closed = 1;
nodes = (
"520 80 LINE",
"159 80 LINE",
"159 84 LINE",
"308 231 LINE SMOOTH",
"363 285 OFFCURVE",
"445 380 OFFCURVE",
"491 478 OFFCURVE",
"491 534 QCURVE SMOOTH",
"491 623 OFFCURVE",
"375 724 OFFCURVE",
"275 724 QCURVE SMOOTH",
"207 724 OFFCURVE",
"98 675 OFFCURVE",
"56 640 QCURVE",
"103 581 LINE",
"144 613 OFFCURVE",
"223 649 OFFCURVE",
"275 649 QCURVE SMOOTH",
"331 649 OFFCURVE",
"401 588 OFFCURVE",
"401 529 QCURVE SMOOTH",
"401 481 OFFCURVE",
"363 400 OFFCURVE",
"289 316 OFFCURVE",
"235 262 QCURVE SMOOTH",
"48 73 LINE",
"48 0 LINE",
"520 0 LINE",
"520 0 LINE"
);
}
);
width = 572;
}
);
note = two;
unicode = 0032;
},
{
glyphname = three;
layers = (
{
layerId = "CFFEBDE4-599A-46B2-9328-D96E42CD9C81";
paths = (
{
closed = 1;
nodes = (
"493 624 OFFCURVE",
"384 724 OFFCURVE",
"272 724 QCURVE SMOOTH",
"200 724 OFFCURVE",
"87 680 OFFCURVE",
"49 650 QCURVE",
"93 590 LINE",
"133 616 OFFCURVE",
"215 650 OFFCURVE",
"273 650 QCURVE SMOOTH",
"333 650 OFFCURVE",
"403 593 OFFCURVE",
"403 541 QCURVE SMOOTH",
"403 480 OFFCURVE",
"312 406 OFFCURVE",
"224 406 QCURVE SMOOTH",
"154 406 LINE",
"154 331 LINE",
"223 331 LINE SMOOTH",
"318 331 OFFCURVE",
"423 272 OFFCURVE",
"423 205 QCURVE SMOOTH",
"423 139 OFFCURVE",
"338 64 OFFCURVE",
"242 64 QCURVE SMOOTH",
"194 64 OFFCURVE",
"90 89 OFFCURVE",
"45 111 QCURVE",
"45 29 LINE",
"89 7 OFFCURVE",
"185 -10 OFFCURVE",
"241 -10 QCURVE SMOOTH",
"336 -10 OFFCURVE",
"457 44 OFFCURVE",
"515 141 OFFCURVE",
"515 203 QCURVE SMOOTH",
"515 274 OFFCURVE",
"431 362 OFFCURVE",
"345 372 QCURVE",
"345 376 LINE",
"413 390 OFFCURVE",
"493 475 OFFCURVE",
"493 547 QCURVE",
"493 547 LINE"
);
}
);
width = 572;
}
);
note = three;
unicode = 0033;
},
{
glyphname = four;
layers = (
{
layerId = "CFFEBDE4-599A-46B2-9328-D96E42CD9C81";
paths = (
{
closed = 1;
nodes = (
"552 241 LINE",
"448 241 LINE",
"448 718 LINE",
"357 718 LINE",
"21 237 LINE",
"21 162 LINE",
"363 162 LINE",
"363 0 LINE",
"448 0 LINE",
"448 162 LINE",
"552 162 LINE",
"552 162 LINE"
);
},
{
closed = 1;
nodes = (
"107 241 LINE",
"321 546 LINE SMOOTH",
"332 561 OFFCURVE",
"356 605 OFFCURVE",
"364 624 QCURVE",
"368 624 LINE",
"367 591 OFFCURVE",
"363 518 OFFCURVE",
"363 466 QCURVE SMOOTH",
"363 241 LINE",
"363 241 LINE"
);
}
);
width = 572;
}
);
note = four;
unicode = 0034;
},
{
glyphname = five;
layers = (
{
layerId = "CFFEBDE4-599A-46B2-9328-D96E42CD9C81";
paths = (
{
closed = 1;
nodes = (
"240 438 OFFCURVE",
"182 430 OFFCURVE",
"165 427 QCURVE",
"182 634 LINE",
"465 634 LINE",
"465 714 LINE",
"107 714 LINE",
"80 377 LINE",
"124 349 LINE",
"146 354 OFFCURVE",
"218 364 OFFCURVE",
"246 364 QCURVE SMOOTH",
"339 364 OFFCURVE",
"425 289 OFFCURVE",
"425 219 QCURVE SMOOTH",
"425 140 OFFCURVE",
"328 65 OFFCURVE",
"249 65 QCURVE SMOOTH",
"202 65 OFFCURVE",
"99 90 OFFCURVE",
"63 112 QCURVE",
"63 29 LINE",
"96 10 OFFCURVE",
"193 -10 OFFCURVE",
"248 -10 QCURVE SMOOTH",
"374 -10 OFFCURVE",
"515 117 OFFCURVE",
"515 228 QCURVE SMOOTH",
"515 328 OFFCURVE",
"385 438 OFFCURVE",
"275 438 QCURVE",
"275 438 LINE"
);
}
);
width = 572;
}
);
note = five;
unicode = 0035;
},
{
glyphname = six;
layers = (
{
layerId = "CFFEBDE4-599A-46B2-9328-D96E42CD9C81";
paths = (
{
closed = 1;
nodes = (
"55 198 OFFCURVE",
"120 58 OFFCURVE",
"230 -10 OFFCURVE",
"298 -10 QCURVE SMOOTH",
"402 -10 OFFCURVE",
"525 118 OFFCURVE",
"525 230 QCURVE SMOOTH",
"525 334 OFFCURVE",
"411 447 OFFCURVE",
"318 447 QCURVE SMOOTH",
"254 447 OFFCURVE",
"172 398 OFFCURVE",
"149 363 QCURVE",
"143 363 LINE",
"146 422 OFFCURVE",
"170 526 OFFCURVE",
"223 606 OFFCURVE",
"315 652 OFFCURVE",
"384 652 QCURVE SMOOTH",
"407 652 OFFCURVE",
"452 646 OFFCURVE",
"470 640 QCURVE",
"470 715 LINE",
"454 720 OFFCURVE",
"403 724 OFFCURVE",
"382 724 QCURVE SMOOTH",
"281 724 OFFCURVE",
"153 652 OFFCURVE",
"82 531 OFFCURVE",
"55 382 OFFCURVE",
"55 305 QCURVE",
"55 305 LINE"
);
},
{
closed = 1;
nodes = (
"246 64 OFFCURVE",
"178 119 OFFCURVE",
"144 204 OFFCURVE",
"144 247 QCURVE SMOOTH",
"144 279 OFFCURVE",
"183 339 OFFCURVE",
"253 378 OFFCURVE",
"300 378 QCURVE SMOOTH",
"369 378 OFFCURVE",
"438 298 OFFCURVE",
"438 230 QCURVE SMOOTH",
"438 145 OFFCURVE",
"360 64 OFFCURVE",
"297 64 QCURVE",
"297 64 LINE"
);
}
);
width = 572;
}
);
note = six;
unicode = 0036;
},
{
glyphname = seven;
layers = (
{
layerId = "CFFEBDE4-599A-46B2-9328-D96E42CD9C81";
paths = (
{
closed = 1;
nodes = (
"233 0 LINE",
"523 646 LINE",
"523 714 LINE",
"44 714 LINE",
"44 634 LINE",
"429 634 LINE",
"136 0 LINE",
"136 0 LINE"
);
}
);
width = 572;
}
);
note = seven;
unicode = 0037;
},
{
glyphname = eight;
layers = (
{
layerId = "CFFEBDE4-599A-46B2-9328-D96E42CD9C81";
paths = (
{
closed = 1;
nodes = (
"224 724 OFFCURVE",
"128 684 OFFCURVE",
"72 609 OFFCURVE",
"72 554 QCURVE SMOOTH",
"72 488 OFFCURVE",
"145 403 OFFCURVE",
"197 373 QCURVE",
"158 355 OFFCURVE",
"90 303 OFFCURVE",
"49 231 OFFCURVE",
"49 182 QCURVE SMOOTH",
"49 91 OFFCURVE",
"173 -10 OFFCURVE",
"288 -10 QCURVE SMOOTH",
"395 -10 OFFCURVE",
"522 95 OFFCURVE",
"522 185 QCURVE SMOOTH",
"522 234 OFFCURVE",
"479 304 OFFCURVE",
"407 357 OFFCURVE",
"363 378 QCURVE",
"400 397 OFFCURVE",
"462 446 OFFCURVE",
"499 510 OFFCURVE",
"499 553 QCURVE SMOOTH",
"499 636 OFFCURVE",
"379 724 OFFCURVE",
"285 724 QCURVE",
"285 724 LINE"
);
},
{
closed = 1;
nodes = (
"342 653 OFFCURVE",
"412 600 OFFCURVE",
"412 550 QCURVE SMOOTH",
"412 496 OFFCURVE",
"341 434 OFFCURVE",
"289 412 QCURVE",
"253 428 OFFCURVE",
"193 463 OFFCURVE",
"158 513 OFFCURVE",
"158 550 QCURVE SMOOTH",
"158 600 OFFCURVE",
"229 653 OFFCURVE",
"284 653 QCURVE",
"284 653 LINE"
);
},
{
closed = 1;
nodes = (
"135 236 OFFCURVE",
"204 309 OFFCURVE",
"270 337 QCURVE",
"286 331 LINE SMOOTH",
"354 305 OFFCURVE",
"436 236 OFFCURVE",
"436 184 QCURVE SMOOTH",
"436 129 OFFCURVE",
"359 60 OFFCURVE",
"286 60 QCURVE SMOOTH",
"209 60 OFFCURVE",
"135 129 OFFCURVE",
"135 181 QCURVE",
"135 181 LINE"
);
}
);
width = 572;
}
);
note = eight;
unicode = 0038;
},
{
glyphname = nine;
layers = (
{
layerId = "CFFEBDE4-599A-46B2-9328-D96E42CD9C81";
paths = (
{
closed = 1;
nodes = (
"520 516 OFFCURVE",
"456 655 OFFCURVE",
"346 724 OFFCURVE",
"278 724 QCURVE SMOOTH",
"209 724 OFFCURVE",
"107 666 OFFCURVE",
"50 558 OFFCURVE",
"50 483 QCURVE SMOOTH",
"50 380 OFFCURVE",
"163 267 OFFCURVE",
"255 267 QCURVE SMOOTH",
"320 267 OFFCURVE",
"403 316 OFFCURVE",
"425 350 QCURVE",
"431 350 LINE",
"429 292 OFFCURVE",
"405 187 OFFCURVE",
"351 108 OFFCURVE",
"260 62 OFFCURVE",
"190 62 QCURVE SMOOTH",
"141 62 OFFCURVE",
"102 75 QCURVE",
"102 0 LINE",
"119 -5 OFFCURVE",
"172 -10 OFFCURVE",
"192 -10 QCURVE SMOOTH",
"293 -10 OFFCURVE",
"422 62 OFFCURVE",
"493 183 OFFCURVE",
"520 332 OFFCURVE",
"520 409 QCURVE",
"520 409 LINE"
);
},
{
closed = 1;
nodes = (
"329 650 OFFCURVE",
"397 594 OFFCURVE",
"431 510 OFFCURVE",
"431 467 QCURVE SMOOTH",
"431 435 OFFCURVE",
"392 375 OFFCURVE",
"322 336 OFFCURVE",
"274 336 QCURVE SMOOTH",
"204 336 OFFCURVE",
"137 415 OFFCURVE",
"137 484 QCURVE SMOOTH",
"137 568 OFFCURVE",
"216 650 OFFCURVE",
"278 650 QCURVE",
"278 650 LINE"
);
}
);
width = 572;
}
);
note = nine;
unicode = 0039;
},
{
glyphname = period;
layers = (
{
layerId = "CFFEBDE4-599A-46B2-9328-D96E42CD9C81";
paths = (
{
closed = 1;
nodes = (
"72 18 OFFCURVE",
"108 -14 OFFCURVE",
"133 -14 QCURVE SMOOTH",
"159 -14 OFFCURVE",
"196 18 OFFCURVE",
"196 54 QCURVE SMOOTH",
"196 91 OFFCURVE",
"159 121 OFFCURVE",
"133 121 QCURVE SMOOTH",
"108 121 OFFCURVE",
"72 91 OFFCURVE",
"72 54 QCURVE",
"72 54 LINE"
);
}
);
width = 268;
}
);
leftKerningGroup = comma;
note = period;
rightKerningGroup = comma;
unicode = 002E;
},
{
glyphname = comma;
layers = (
{
layerId = "CFFEBDE4-599A-46B2-9328-D96E42CD9C81";
paths = (
{
closed = 1;
nodes = (
"91 116 LINE",
"84 64 OFFCURVE",
"55 -72 OFFCURVE",
"41 -129 QCURVE",
"106 -129 LINE",
"130 -75 OFFCURVE",
"179 52 OFFCURVE",
"192 105 QCURVE",
"185 116 LINE",
"185 116 LINE"
);
}
);
width = 268;
}
);
leftKerningGroup = comma;
note = comma;
rightKerningGroup = comma;
unicode = 002C;
},
{
glyphname = hyphen;
layers = (
{
layerId = "CFFEBDE4-599A-46B2-9328-D96E42CD9C81";
paths = (
{
closed = 1;
nodes = (
"282 229 LINE",
"282 307 LINE",
"40 307 LINE",
"40 229 LINE",
"40 229 LINE"
);
}
);
width = 322;
}
);
leftKerningGroup = hyphen;
note = hyphen;
rightKerningGroup = hyphen;
unicode = 002D;
},
{
glyphname = .notdef;
lastChange = "2020-01-07 18:40:50 +0000";
layers = (
{
associatedMasterId = "CFFEBDE4-599A-46B2-9328-D96E42CD9C81";
layerId = "0A718E2F-231D-484E-9433-16A5230D2CE8";
name = Bold;
paths = (
{
closed = 1;
nodes = (
"496 0 LINE",
"496 714 LINE",
"85 714 LINE",
"85 0 LINE"
);
},
{
closed = 1;
nodes = (
"136 663 LINE",
"445 663 LINE",
"445 51 LINE",
"136 51 LINE"
);
}
);
width = 582;
},
{
associatedMasterId = "CFFEBDE4-599A-46B2-9328-D96E42CD9C81";
layerId = "98E204A9-1C79-49C7-AB3E-40A925F56409";
name = "Bold Condensed";
paths = (
{
closed = 1;
nodes = (
"496 0 LINE",
"496 714 LINE",
"85 714 LINE",
"85 0 LINE"
);
},
{
closed = 1;
nodes = (
"136 663 LINE",
"445 663 LINE",
"445 51 LINE",
"136 51 LINE"
);
}
);
width = 582;
},
{
associatedMasterId = "CFFEBDE4-599A-46B2-9328-D96E42CD9C81";
layerId = "9FF96064-8718-4A86-A5C8-73C592101F67";
name = Regular;
paths = (
{
closed = 1;
nodes = (
"505 0 LINE",
"505 714 LINE",
"94 714 LINE",
"94 0 LINE"
);
},
{
closed = 1;
nodes = (
"145 663 LINE",
"454 663 LINE",
"454 51 LINE",
"145 51 LINE"
);
}
);
width = 600;
},
{
associatedMasterId = "CFFEBDE4-599A-46B2-9328-D96E42CD9C81";
layerId = "134B12F2-BF5D-48E3-8003-C7502B438C7E";
name = SemiBold;
paths = (
{
closed = 1;
nodes = (
"505 0 LINE",
"505 714 LINE",
"94 714 LINE",
"94 0 LINE"
);
},
{
closed = 1;
nodes = (
"145 663 LINE",
"454 663 LINE",
"454 51 LINE",
"145 51 LINE"
);
}
);
width = 600;
},
{
associatedMasterId = "CFFEBDE4-599A-46B2-9328-D96E42CD9C81";
layerId = "36F3C8CB-53EE-4548-BFDE-2C03212BACAA";
name = Condensed;
paths = (
{
closed = 1;
nodes = (
"496 0 LINE",
"496 714 LINE",
"85 714 LINE",
"85 0 LINE"
);
},
{
closed = 1;
nodes = (
"136 663 LINE",
"445 663 LINE",
"445 51 LINE",
"136 51 LINE"
);
}
);
width = 595;
},
{
associatedMasterId = "CFFEBDE4-599A-46B2-9328-D96E42CD9C81";
layerId = "43B45EC1-5522-4B1A-B0C7-88628E50A583";
name = "SemiBold Condensed";
paths = (
{
closed = 1;
nodes = (
"496 0 LINE",
"496 714 LINE",
"85 714 LINE",
"85 0 LINE"
);
},
{
closed = 1;
nodes = (
"136 663 LINE",
"445 663 LINE",
"445 51 LINE",
"136 51 LINE"
);
}
);
width = 587;
},
{
layerId = "CFFEBDE4-599A-46B2-9328-D96E42CD9C81";
paths = (
{
closed = 1;
nodes = (
"505 0 LINE",
"505 714 LINE",
"94 714 LINE",
"94 0 LINE",
"94 0 LINE"
);
},
{
closed = 1;
nodes = (
"145 663 LINE",
"454 663 LINE",
"454 51 LINE",
"145 51 LINE",
"145 51 LINE"
);
}
);
userData = {
assembly = "NPUSHB[ ]	/* 39 values pushed */\0120 0 0 3 2 0 3 103 0 2 1 1 2 87 0 2 2 1 95 4 1 1 2 1 79 0 0 7 6 5 4 0 3 0 3 17 5 6 23 \012CALL[ ]	/* CallFunction */";
};
width = 600;
},
{
associatedMasterId = "CFFEBDE4-599A-46B2-9328-D96E42CD9C81";
layerId = "029FEF0C-5FA4-4A3E-AC23-838A1147A554";
name = "Light Condensed";
paths = (
{
closed = 1;
nodes = (
"496 0 LINE",
"496 714 LINE",
"85 714 LINE",
"85 0 LINE"
);
},
{
closed = 1;
nodes = (
"136 663 LINE",
"445 663 LINE",
"445 51 LINE",
"136 51 LINE"
);
}
);
width = 600;
},
{
associatedMasterId = "CFFEBDE4-599A-46B2-9328-D96E42CD9C81";
layerId = "6CD3EE05-C8AD-47E9-A0AE-B645441B0163";
name = Regular;
paths = (
{
closed = 1;
nodes = (
"496 0 LINE",
"496 714 LINE",
"85 714 LINE",
"85 0 LINE"
);
},
{
closed = 1;
nodes = (
"136 663 LINE",
"445 663 LINE",
"445 51 LINE",
"136 51 LINE"
);
}
);
width = 582;
},
{
associatedMasterId = "CFFEBDE4-599A-46B2-9328-D96E42CD9C81";
layerId = "4BA813F0-6E24-42D1-9A84-D42DCF76A6FD";
name = Regular;
paths = (
{
closed = 1;
nodes = (
"496 0 LINE",
"496 714 LINE",
"85 714 LINE",
"85 0 LINE"
);
},
{
closed = 1;
nodes = (
"136 663 LINE",
"445 663 LINE",
"445 51 LINE",
"136 51 LINE"
);
}
);
width = 582;
},
{
associatedMasterId = "CFFEBDE4-599A-46B2-9328-D96E42CD9C81";
layerId = "11C7202F-BDE1-4540-9196-841830120CA8";
name = Regular;
paths = (
{
closed = 1;
nodes = (
"505 0 LINE",
"505 714 LINE",
"94 714 LINE",
"94 0 LINE"
);
},
{
closed = 1;
nodes = (
"145 663 LINE",
"454 663 LINE",
"454 51 LINE",
"145 51 LINE"
);
}
);
width = 600;
},
{
associatedMasterId = "CFFEBDE4-599A-46B2-9328-D96E42CD9C81";
layerId = "5D16F8A9-2BA9-47A0-99C6-C9F3EBB274A0";
name = Regular;
paths = (
{
closed = 1;
nodes = (
"505 0 LINE",
"505 714 LINE",
"94 714 LINE",
"94 0 LINE"
);
},
{
closed = 1;
nodes = (
"145 663 LINE",
"454 663 LINE",
"454 51 LINE",
"145 51 LINE"
);
}
);
width = 600;
},
{
associatedMasterId = "CFFEBDE4-599A-46B2-9328-D96E42CD9C81";
layerId = "444C4D7B-BB42-46E5-A210-3251DB2C5DF7";
name = Regular;
paths = (
{
closed = 1;
nodes = (
"496 0 LINE",
"496 714 LINE",
"85 714 LINE",
"85 0 LINE"
);
},
{
closed = 1;
nodes = (
"136 663 LINE",
"445 663 LINE",
"445 51 LINE",
"136 51 LINE"
);
}
);
width = 595;
},
{
associatedMasterId = "CFFEBDE4-599A-46B2-9328-D96E42CD9C81";
layerId = "D00C89AE-1924-40D7-BCB8-50F6B6FF00C9";
name = Regular;
paths = (
{
closed = 1;
nodes = (
"496 0 LINE",
"496 714 LINE",
"85 714 LINE",
"85 0 LINE"
);
},
{
closed = 1;
nodes = (
"136 663 LINE",
"445 663 LINE",
"445 51 LINE",
"136 51 LINE"
);
}
);
width = 587;
},
{
associatedMasterId = "CFFEBDE4-599A-46B2-9328-D96E42CD9C81";
layerId = "0C04772A-F31D-4E86-90EF-3402D1EA39CA";
name = Regular;
paths = (
{
closed = 1;
nodes = (
"505 0 LINE",
"505 714 LINE",
"94 714 LINE",
"94 0 LINE"
);
},
{
closed = 1;
nodes = (
"145 663 LINE",
"454 663 LINE",
"454 51 LINE",
"145 51 LINE"
);
}
);
width = 600;
},
{
associatedMasterId = "CFFEBDE4-599A-46B2-9328-D96E42CD9C81";
layerId = "E44A1C33-4DA7-464B-9CD1-E803182C2B8E";
name = Regular;
paths = (
{
closed = 1;
nodes = (
"496 0 LINE",
"496 714 LINE",
"85 714 LINE",
"85 0 LINE"
);
},
{
closed = 1;
nodes = (
"136 663 LINE",
"445 663 LINE",
"445 51 LINE",
"136 51 LINE"
);
}
);
width = 600;
},
{
associatedMasterId = "CFFEBDE4-599A-46B2-9328-D96E42CD9C81";
layerId = "6CD769E4-BA55-4180-AEEB-BBFB0FE71E60";
name = SemiBold;
paths = (
{
closed = 1;
nodes = (
"496 0 LINE",
"496 714 LINE",
"85 714 LINE",
"85 0 LINE"
);
},
{
closed = 1;
nodes = (
"136 663 LINE",
"445 663 LINE",
"445 51 LINE",
"136 51 LINE"
);
}
);
width = 582;
},
{
associatedMasterId = "CFFEBDE4-599A-46B2-9328-D96E42CD9C81";
layerId = "B72AC865-DCE2-4021-9F6A-E52C2F7C36C3";
name = SemiBold;
paths = (
{
closed = 1;
nodes = (
"496 0 LINE",
"496 714 LINE",
"85 714 LINE",
"85 0 LINE"
);
},
{
closed = 1;
nodes = (
"136 663 LINE",
"445 663 LINE",
"445 51 LINE",
"136 51 LINE"
);
}
);
width = 582;
},
{
associatedMasterId = "CFFEBDE4-599A-46B2-9328-D96E42CD9C81";
layerId = "73144C29-A3E1-435F-A101-12EB16795B90";
name = SemiBold;
paths = (
{
closed = 1;
nodes = (
"505 0 LINE",
"505 714 LINE",
"94 714 LINE",
"94 0 LINE"
);
},
{
closed = 1;
nodes = (
"145 663 LINE",
"454 663 LINE",
"454 51 LINE",
"145 51 LINE"
);
}
);
width = 600;
},
{
associatedMasterId = "CFFEBDE4-599A-46B2-9328-D96E42CD9C81";
layerId = "18CF4588-85AB-4745-818C-09CE36B775D2";
name = SemiBold;
paths = (
{
closed = 1;
nodes = (
"505 0 LINE",
"505 714 LINE",
"94 714 LINE",
"94 0 LINE"
);
},
{
closed = 1;
nodes = (
"145 663 LINE",
"454 663 LINE",
"454 51 LINE",
"145 51 LINE"
);
}
);
width = 600;
},
{
associatedMasterId = "CFFEBDE4-599A-46B2-9328-D96E42CD9C81";
layerId = "686EB0C4-EABE-4AD7-86BC-00ECD1BF7E9E";
name = SemiBold;
paths = (
{
closed = 1;
nodes = (
"496 0 LINE",
"496 714 LINE",
"85 714 LINE",
"85 0 LINE"
);
},
{
closed = 1;
nodes = (
"136 663 LINE",
"445 663 LINE",
"445 51 LINE",
"136 51 LINE"
);
}
);
width = 595;
},
{
associatedMasterId = "CFFEBDE4-599A-46B2-9328-D96E42CD9C81";
layerId = "E5BC6AAC-6572-4494-8CA4-C3D39E7EACEC";
name = SemiBold;
paths = (
{
closed = 1;
nodes = (
"496 0 LINE",
"496 714 LINE",
"85 714 LINE",
"85 0 LINE"
);
},
{
closed = 1;
nodes = (
"136 663 LINE",
"445 663 LINE",
"445 51 LINE",
"136 51 LINE"
);
}
);
width = 587;
},
{
associatedMasterId = "CFFEBDE4-599A-46B2-9328-D96E42CD9C81";
layerId = "206B8059-80C9-426C-870D-7DCC5D63B771";
name = SemiBold;
paths = (
{
closed = 1;
nodes = (
"505 0 LINE",
"505 714 LINE",
"94 714 LINE",
"94 0 LINE"
);
},
{
closed = 1;
nodes = (
"145 663 LINE",
"454 663 LINE",
"454 51 LINE",
"145 51 LINE"
);
}
);
width = 600;
},
{
associatedMasterId = "CFFEBDE4-599A-46B2-9328-D96E42CD9C81";
layerId = "8CA70734-D081-4BD8-AD2F-7C5E13D31257";
name = SemiBold;
paths = (
{
closed = 1;
nodes = (
"496 0 LINE",
"496 714 LINE",
"85 714 LINE",
"85 0 LINE"
);
},
{
closed = 1;
nodes = (
"136 663 LINE",
"445 663 LINE",
"445 51 LINE",
"136 51 LINE"
);
}
);
width = 600;
},
{
associatedMasterId = "CFFEBDE4-599A-46B2-9328-D96E42CD9C81";
layerId = "6D228CAF-D3D7-4333-A99C-26716E667E2A";
name = Bold;
paths = (
{
closed = 1;
nodes = (
"496 0 LINE",
"496 714 LINE",
"85 714 LINE",
"85 0 LINE"
);
},
{
closed = 1;
nodes = (
"136 663 LINE",
"445 663 LINE",
"445 51 LINE",
"136 51 LINE"
);
}
);
width = 582;
},
{
associatedMasterId = "CFFEBDE4-599A-46B2-9328-D96E42CD9C81";
layerId = "0F275DA8-301B-4F20-BD77-158CA365DF6E";
name = Bold;
paths = (
{
closed = 1;
nodes = (
"496 0 LINE",
"496 714 LINE",
"85 714 LINE",
"85 0 LINE"
);
},
{
closed = 1;
nodes = (
"136 663 LINE",
"445 663 LINE",
"445 51 LINE",
"136 51 LINE"
);
}
);
width = 582;
},
{
associatedMasterId = "CFFEBDE4-599A-46B2-9328-D96E42CD9C81";
layerId = "D46BE755-DD9E-4EEB-B458-600115B36096";
name = Bold;
paths = (
{
closed = 1;
nodes = (
"505 0 LINE",
"505 714 LINE",
"94 714 LINE",
"94 0 LINE"
);
},
{
closed = 1;
nodes = (
"145 663 LINE",
"454 663 LINE",
"454 51 LINE",
"145 51 LINE"
);
}
);
width = 600;
},
{
associatedMasterId = "CFFEBDE4-599A-46B2-9328-D96E42CD9C81";
layerId = "7FE48EA0-3A2C-4D49-ABA4-E32E78AB57C1";
name = Bold;
paths = (
{
closed = 1;
nodes = (
"505 0 LINE",
"505 714 LINE",
"94 714 LINE",
"94 0 LINE"
);
},
{
closed = 1;
nodes = (
"145 663 LINE",
"454 663 LINE",
"454 51 LINE",
"145 51 LINE"
);
}
);
width = 600;
},
{
associatedMasterId = "CFFEBDE4-599A-46B2-9328-D96E42CD9C81";
layerId = "0C5F2DE2-4894-433A-AF78-14A7760305F4";
name = Bold;
paths = (
{
closed = 1;
nodes = (
"496 0 LINE",
"496 714 LINE",
"85 714 LINE",
"85 0 LINE"
);
},
{
closed = 1;
nodes = (
"136 663 LINE",
"445 663 LINE",
"445 51 LINE",
"136 51 LINE"
);
}
);
width = 595;
},
{
associatedMasterId = "CFFEBDE4-599A-46B2-9328-D96E42CD9C81";
layerId = "218C21A7-D612-4AB3-84F9-0D3A7F75CFA6";
name = Bold;
paths = (
{
closed = 1;
nodes = (
"496 0 LINE",
"496 714 LINE",
"85 714 LINE",
"85 0 LINE"
);
},
{
closed = 1;
nodes = (
"136 663 LINE",
"445 663 LINE",
"445 51 LINE",
"136 51 LINE"
);
}
);
width = 587;
},
{
associatedMasterId = "CFFEBDE4-599A-46B2-9328-D96E42CD9C81";
layerId = "3FB868F8-5CDC-4A46-BA32-95627737ABE0";
name = Bold;
paths = (
{
closed = 1;
nodes = (
"505 0 LINE",
"505 714 LINE",
"94 714 LINE",
"94 0 LINE"
);
},
{
closed = 1;
nodes = (
"145 663 LINE",
"454 663 LINE",
"454 51 LINE",
"145 51 LINE"
);
}
);
width = 600;
},
{
associatedMasterId = "CFFEBDE4-599A-46B2-9328-D96E42CD9C81";
layerId = "5BFF9FCA-B510-42EF-B974-4F4703A3DF37";
name = Bold;
paths = (
{
closed = 1;
nodes = (
"496 0 LINE",
"496 714 LINE",
"85 714 LINE",
"85 0 LINE"
);
},
{
closed = 1;
nodes = (
"136 663 LINE",
"445 663 LINE",
"445 51 LINE",
"136 51 LINE"
);
}
);
width = 600;
},
{
associatedMasterId = "CFFEBDE4-599A-46B2-9328-D96E42CD9C81";
layerId = "10F16149-C491-4EC1-A76D-4B0D82B949A8";
name = "Light Condensed";
paths = (
{
closed = 1;
nodes = (
"496 0 LINE",
"496 714 LINE",
"85 714 LINE",
"85 0 LINE"
);
},
{
closed = 1;
nodes = (
"136 663 LINE",
"445 663 LINE",
"445 51 LINE",
"136 51 LINE"
);
}
);
width = 582;
},
{
associatedMasterId = "CFFEBDE4-599A-46B2-9328-D96E42CD9C81";
layerId = "72186310-A4A1-43C8-93EC-DE7F7E0C04DC";
name = "Light Condensed";
paths = (
{
closed = 1;
nodes = (
"496 0 LINE",
"496 714 LINE",
"85 714 LINE",
"85 0 LINE"
);
},
{
closed = 1;
nodes = (
"136 663 LINE",
"445 663 LINE",
"445 51 LINE",
"136 51 LINE"
);
}
);
width = 582;
},
{
associatedMasterId = "CFFEBDE4-599A-46B2-9328-D96E42CD9C81";
layerId = "3AA2D878-A039-41E2-8382-305C1EBDDC14";
name = "Light Condensed";
paths = (
{
closed = 1;
nodes = (
"505 0 LINE",
"505 714 LINE",
"94 714 LINE",
"94 0 LINE"
);
},
{
closed = 1;
nodes = (
"145 663 LINE",
"454 663 LINE",
"454 51 LINE",
"145 51 LINE"
);
}
);
width = 600;
},
{
associatedMasterId = "CFFEBDE4-599A-46B2-9328-D96E42CD9C81";
layerId = "910244F3-C233-4E50-A821-AC6322E08668";
name = "Light Condensed";
paths = (
{
closed = 1;
nodes = (
"505 0 LINE",
"505 714 LINE",
"94 714 LINE",
"94 0 LINE"
);
},
{
closed = 1;
nodes = (
"145 663 LINE",
"454 663 LINE",
"454 51 LINE",
"145 51 LINE"
);
}
);
width = 600;
},
{
associatedMasterId = "CFFEBDE4-599A-46B2-9328-D96E42CD9C81";
layerId = "3D21177B-E83B-427F-9FBC-21300ED8A213";
name = "Light Condensed";
paths = (
{
closed = 1;
nodes = (
"496 0 LINE",
"496 714 LINE",
"85 714 LINE",
"85 0 LINE"
);
},
{
closed = 1;
nodes = (
"136 663 LINE",
"445 663 LINE",
"445 51 LINE",
"136 51 LINE"
);
}
);
width = 595;
},
{
associatedMasterId = "CFFEBDE4-599A-46B2-9328-D96E42CD9C81";
layerId = "4355EC66-3F59-4296-9F4C-72EC0B481B5D";
name = "Light Condensed";
paths = (
{
closed = 1;
nodes = (
"496 0 LINE",
"496 714 LINE",
"85 714 LINE",
"85 0 LINE"
);
},
{
closed = 1;
nodes = (
"136 663 LINE",
"445 663 LINE",
"445 51 LINE",
"136 51 LINE"
);
}
);
width = 587;
},
{
associatedMasterId = "CFFEBDE4-599A-46B2-9328-D96E42CD9C81";
layerId = "BD31AAF9-E65B-4A30-ACC0-7018B0C27C60";
name = "Light Condensed";
paths = (
{
closed = 1;
nodes = (
"505 0 LINE",
"505 714 LINE",
"94 714 LINE",
"94 0 LINE"
);
},
{
closed = 1;
nodes = (
"145 663 LINE",
"454 663 LINE",
"454 51 LINE",
"145 51 LINE"
);
}
);
width = 600;
},
{
associatedMasterId = "CFFEBDE4-599A-46B2-9328-D96E42CD9C81";
layerId = "D77228BB-6669-4F59-82EB-EFDED494D297";
name = "Light Condensed";
paths = (
{
closed = 1;
nodes = (
"496 0 LINE",
"496 714 LINE",
"85 714 LINE",
"85 0 LINE"
);
},
{
closed = 1;
nodes = (
"136 663 LINE",
"445 663 LINE",
"445 51 LINE",
"136 51 LINE"
);
}
);
width = 600;
},
{
associatedMasterId = "CFFEBDE4-599A-46B2-9328-D96E42CD9C81";
layerId = "81F4823B-D69E-4E11-86B2-52E1D1CABD54";
name = Condensed;
paths = (
{
closed = 1;
nodes = (
"496 0 LINE",
"496 714 LINE",
"85 714 LINE",
"85 0 LINE"
);
},
{
closed = 1;
nodes = (
"136 663 LINE",
"445 663 LINE",
"445 51 LINE",
"136 51 LINE"
);
}
);
width = 582;
},
{
associatedMasterId = "CFFEBDE4-599A-46B2-9328-D96E42CD9C81";
layerId = "1ACF29D9-9C6C-45FA-8C10-238DD2AA8ADF";
name = Condensed;
paths = (
{
closed = 1;
nodes = (
"496 0 LINE",
"496 714 LINE",
"85 714 LINE",
"85 0 LINE"
);
},
{
closed = 1;
nodes = (
"136 663 LINE",
"445 663 LINE",
"445 51 LINE",
"136 51 LINE"
);
}
);
width = 582;
},
{
associatedMasterId = "CFFEBDE4-599A-46B2-9328-D96E42CD9C81";
layerId = "A823C984-E080-4BD5-A1B6-02506CC81AD1";
name = Condensed;
paths = (
{
closed = 1;
nodes = (
"505 0 LINE",
"505 714 LINE",
"94 714 LINE",
"94 0 LINE"
);
},
{
closed = 1;
nodes = (
"145 663 LINE",
"454 663 LINE",
"454 51 LINE",
"145 51 LINE"
);
}
);
width = 600;
},
{
associatedMasterId = "CFFEBDE4-599A-46B2-9328-D96E42CD9C81";
layerId = "7C505BEE-2611-4A04-ABA0-64C0BA48336F";
name = Condensed;
paths = (
{
closed = 1;
nodes = (
"505 0 LINE",
"505 714 LINE",
"94 714 LINE",
"94 0 LINE"
);
},
{
closed = 1;
nodes = (
"145 663 LINE",
"454 663 LINE",
"454 51 LINE",
"145 51 LINE"
);
}
);
width = 600;
},
{
associatedMasterId = "CFFEBDE4-599A-46B2-9328-D96E42CD9C81";
layerId = "CFFC113C-B55C-44E0-A174-84F7BF124894";
name = Condensed;
paths = (
{
closed = 1;
nodes = (
"496 0 LINE",
"496 714 LINE",
"85 714 LINE",
"85 0 LINE"
);
},
{
closed = 1;
nodes = (
"136 663 LINE",
"445 663 LINE",
"445 51 LINE",
"136 51 LINE"
);
}
);
width = 595;
},
{
associatedMasterId = "CFFEBDE4-599A-46B2-9328-D96E42CD9C81";
layerId = "43D1030E-7459-4003-8CF9-EC0A1464FBD9";
name = Condensed;
paths = (
{
closed = 1;
nodes = (
"496 0 LINE",
"496 714 LINE",
"85 714 LINE",
"85 0 LINE"
);
},
{
closed = 1;
nodes = (
"136 663 LINE",
"445 663 LINE",
"445 51 LINE",
"136 51 LINE"
);
}
);
width = 587;
},
{
associatedMasterId = "CFFEBDE4-599A-46B2-9328-D96E42CD9C81";
layerId = "E193C3F6-581C-4255-BA06-39B2C55FEA85";
name = Condensed;
paths = (
{
closed = 1;
nodes = (
"505 0 LINE",
"505 714 LINE",
"94 714 LINE",
"94 0 LINE"
);
},
{
closed = 1;
nodes = (
"145 663 LINE",
"454 663 LINE",
"454 51 LINE",
"145 51 LINE"
);
}
);
width = 600;
},
{
associatedMasterId = "CFFEBDE4-599A-46B2-9328-D96E42CD9C81";
layerId = "BC1F2A7D-5C4C-489A-B80D-F8A78AA87396";
name = Condensed;
paths = (
{
closed = 1;
nodes = (
"496 0 LINE",
"496 714 LINE",
"85 714 LINE",
"85 0 LINE"
);
},
{
closed = 1;
nodes = (
"136 663 LINE",
"445 663 LINE",
"445 51 LINE",
"136 51 LINE"
);
}
);
width = 600;
},
{
associatedMasterId = "CFFEBDE4-599A-46B2-9328-D96E42CD9C81";
layerId = "4A97D365-134C-40CE-A1F4-ACEEDAC52A69";
name = Bold;
paths = (
{
closed = 1;
nodes = (
"496 0 LINE",
"496 714 LINE",
"85 714 LINE",
"85 0 LINE"
);
},
{
closed = 1;
nodes = (
"136 663 LINE",
"445 663 LINE",
"445 51 LINE",
"136 51 LINE"
);
}
);
width = 582;
},
{
associatedMasterId = "CFFEBDE4-599A-46B2-9328-D96E42CD9C81";
layerId = "E30ED5CA-5FDA-483A-B078-9F166668F082";
name = "Bold Condensed";
paths = (
{
closed = 1;
nodes = (
"496 0 LINE",
"496 714 LINE",
"85 714 LINE",
"85 0 LINE"
);
},
{
closed = 1;
nodes = (
"136 663 LINE",
"445 663 LINE",
"445 51 LINE",
"136 51 LINE"
);
}
);
width = 582;
},
{
associatedMasterId = "CFFEBDE4-599A-46B2-9328-D96E42CD9C81";
layerId = "5E9EB60B-4C02-4C45-9028-66D331043723";
name = Regular;
paths = (
{
closed = 1;
nodes = (
"505 0 LINE",
"505 714 LINE",
"94 714 LINE",
"94 0 LINE"
);
},
{
closed = 1;
nodes = (
"145 663 LINE",
"454 663 LINE",
"454 51 LINE",
"145 51 LINE"
);
}
);
width = 600;
},
{
associatedMasterId = "CFFEBDE4-599A-46B2-9328-D96E42CD9C81";
layerId = "CF4745A3-289E-483C-9D08-2C2CDA3793CE";
name = SemiBold;
paths = (
{
closed = 1;
nodes = (
"505 0 LINE",
"505 714 LINE",
"94 714 LINE",
"94 0 LINE"
);
},
{
closed = 1;
nodes = (
"145 663 LINE",
"454 663 LINE",
"454 51 LINE",
"145 51 LINE"
);
}
);
width = 600;
},
{
associatedMasterId = "CFFEBDE4-599A-46B2-9328-D96E42CD9C81";
layerId = "0007F7B2-5B0D-4ECF-8993-9E445AE70882";
name = Condensed;
paths = (
{
closed = 1;
nodes = (
"496 0 LINE",
"496 714 LINE",
"85 714 LINE",
"85 0 LINE"
);
},
{
closed = 1;
nodes = (
"136 663 LINE",
"445 663 LINE",
"445 51 LINE",
"136 51 LINE"
);
}
);
width = 595;
},
{
associatedMasterId = "CFFEBDE4-599A-46B2-9328-D96E42CD9C81";
layerId = "A6240D38-CEDA-4780-B12F-EAC7EDB843D9";
name = "SemiBold Condensed";
paths = (
{
closed = 1;
nodes = (
"496 0 LINE",
"496 714 LINE",
"85 714 LINE",
"85 0 LINE"
);
},
{
closed = 1;
nodes = (
"136 663 LINE",
"445 663 LINE",
"445 51 LINE",
"136 51 LINE"
);
}
);
width = 587;
},
{
associatedMasterId = "CFFEBDE4-599A-46B2-9328-D96E42CD9C81";
layerId = "79A278C6-3EFA-4DDB-B984-DD1D15CE97C9";
name = "Light Condensed";
paths = (
{
closed = 1;
nodes = (
"496 0 LINE",
"496 714 LINE",
"85 714 LINE",
"85 0 LINE"
);
},
{
closed = 1;
nodes = (
"136 663 LINE",
"445 663 LINE",
"445 51 LINE",
"136 51 LINE"
);
}
);
width = 600;
},
{
associatedMasterId = "CFFEBDE4-599A-46B2-9328-D96E42CD9C81";
layerId = "0F2AC913-770D-4B71-A4B9-DFCE7D340767";
name = "SemiBold Condensed";
paths = (
{
closed = 1;
nodes = (
"496 0 LINE",
"496 714 LINE",
"85 714 LINE",
"85 0 LINE"
);
},
{
closed = 1;
nodes = (
"136 663 LINE",
"445 663 LINE",
"445 51 LINE",
"136 51 LINE"
);
}
);
width = 582;
},
{
associatedMasterId = "CFFEBDE4-599A-46B2-9328-D96E42CD9C81";
layerId = "5818F93F-12B0-43EF-AE07-DE875336F2D3";
name = "SemiBold Condensed";
paths = (
{
closed = 1;
nodes = (
"496 0 LINE",
"496 714 LINE",
"85 714 LINE",
"85 0 LINE"
);
},
{
closed = 1;
nodes = (
"136 663 LINE",
"445 663 LINE",
"445 51 LINE",
"136 51 LINE"
);
}
);
width = 582;
},
{
associatedMasterId = "CFFEBDE4-599A-46B2-9328-D96E42CD9C81";
layerId = "69A75AA9-C824-4690-AF06-368352D8C4A0";
name = "SemiBold Condensed";
paths = (
{
closed = 1;
nodes = (
"505 0 LINE",
"505 714 LINE",
"94 714 LINE",
"94 0 LINE"
);
},
{
closed = 1;
nodes = (
"145 663 LINE",
"454 663 LINE",
"454 51 LINE",
"145 51 LINE"
);
}
);
width = 600;
},
{
associatedMasterId = "CFFEBDE4-599A-46B2-9328-D96E42CD9C81";
layerId = "0659F8A8-1CA7-437A-8862-AFE6849E1BC8";
name = "SemiBold Condensed";
paths = (
{
closed = 1;
nodes = (
"505 0 LINE",
"505 714 LINE",
"94 714 LINE",
"94 0 LINE"
);
},
{
closed = 1;
nodes = (
"145 663 LINE",
"454 663 LINE",
"454 51 LINE",
"145 51 LINE"
);
}
);
width = 600;
},
{
associatedMasterId = "CFFEBDE4-599A-46B2-9328-D96E42CD9C81";
layerId = "9849390B-0D5D-419F-BBF7-4CB8DF1108F4";
name = "SemiBold Condensed";
paths = (
{
closed = 1;
nodes = (
"496 0 LINE",
"496 714 LINE",
"85 714 LINE",
"85 0 LINE"
);
},
{
closed = 1;
nodes = (
"136 663 LINE",
"445 663 LINE",
"445 51 LINE",
"136 51 LINE"
);
}
);
width = 595;
},
{
associatedMasterId = "CFFEBDE4-599A-46B2-9328-D96E42CD9C81";
layerId = "435372D3-A5C6-4F91-8D68-18D24F2DC602";
name = "SemiBold Condensed";
paths = (
{
closed = 1;
nodes = (
"496 0 LINE",
"496 714 LINE",
"85 714 LINE",
"85 0 LINE"
);
},
{
closed = 1;
nodes = (
"136 663 LINE",
"445 663 LINE",
"445 51 LINE",
"136 51 LINE"
);
}
);
width = 587;
},
{
associatedMasterId = "CFFEBDE4-599A-46B2-9328-D96E42CD9C81";
layerId = "4D9C3FAB-40EB-4CCF-A752-6D6FE9920038";
name = "SemiBold Condensed";
paths = (
{
closed = 1;
nodes = (
"505 0 LINE",
"505 714 LINE",
"94 714 LINE",
"94 0 LINE"
);
},
{
closed = 1;
nodes = (
"145 663 LINE",
"454 663 LINE",
"454 51 LINE",
"145 51 LINE"
);
}
);
width = 600;
},
{
associatedMasterId = "CFFEBDE4-599A-46B2-9328-D96E42CD9C81";
layerId = "AFC07936-CFE6-40C4-A927-1C79F0D571B9";
name = "SemiBold Condensed";
paths = (
{
closed = 1;
nodes = (
"496 0 LINE",
"496 714 LINE",
"85 714 LINE",
"85 0 LINE"
);
},
{
closed = 1;
nodes = (
"136 663 LINE",
"445 663 LINE",
"445 51 LINE",
"136 51 LINE"
);
}
);
width = 600;
},
{
associatedMasterId = "CFFEBDE4-599A-46B2-9328-D96E42CD9C81";
layerId = "3DB921F2-2B03-4BC4-8509-8FCD7A6F784E";
name = "Bold Condensed";
paths = (
{
closed = 1;
nodes = (
"496 0 LINE",
"496 714 LINE",
"85 714 LINE",
"85 0 LINE"
);
},
{
closed = 1;
nodes = (
"136 663 LINE",
"445 663 LINE",
"445 51 LINE",
"136 51 LINE"
);
}
);
width = 582;
},
{
associatedMasterId = "CFFEBDE4-599A-46B2-9328-D96E42CD9C81";
layerId = "2F2377A1-11C3-41B6-919D-D55F8AA75D07";
name = "Bold Condensed";
paths = (
{
closed = 1;
nodes = (
"496 0 LINE",
"496 714 LINE",
"85 714 LINE",
"85 0 LINE"
);
},
{
closed = 1;
nodes = (
"136 663 LINE",
"445 663 LINE",
"445 51 LINE",
"136 51 LINE"
);
}
);
width = 582;
},
{
associatedMasterId = "CFFEBDE4-599A-46B2-9328-D96E42CD9C81";
layerId = "18EFA2A5-94BA-44A1-8C61-68BF4E401414";
name = "Bold Condensed";
paths = (
{
closed = 1;
nodes = (
"505 0 LINE",
"505 714 LINE",
"94 714 LINE",
"94 0 LINE"
);
},
{
closed = 1;
nodes = (
"145 663 LINE",
"454 663 LINE",
"454 51 LINE",
"145 51 LINE"
);
}
);
width = 600;
},
{
associatedMasterId = "CFFEBDE4-599A-46B2-9328-D96E42CD9C81";
layerId = "9E2FF5C0-3F8B-4CDD-8C0B-518BB51B0C53";
name = "Bold Condensed";
paths = (
{
closed = 1;
nodes = (
"505 0 LINE",
"505 714 LINE",
"94 714 LINE",
"94 0 LINE"
);
},
{
closed = 1;
nodes = (
"145 663 LINE",
"454 663 LINE",
"454 51 LINE",
"145 51 LINE"
);
}
);
width = 600;
},
{
associatedMasterId = "CFFEBDE4-599A-46B2-9328-D96E42CD9C81";
layerId = "49C7FBBB-5D49-485A-90F5-A2972E78A97C";
name = "Bold Condensed";
paths = (
{
closed = 1;
nodes = (
"496 0 LINE",
"496 714 LINE",
"85 714 LINE",
"85 0 LINE"
);
},
{
closed = 1;
nodes = (
"136 663 LINE",
"445 663 LINE",
"445 51 LINE",
"136 51 LINE"
);
}
);
width = 595;
},
{
associatedMasterId = "CFFEBDE4-599A-46B2-9328-D96E42CD9C81";
layerId = "42E87011-FEDB-43C8-99A4-706BFF7CA79F";
name = "Bold Condensed";
paths = (
{
closed = 1;
nodes = (
"496 0 LINE",
"496 714 LINE",
"85 714 LINE",
"85 0 LINE"
);
},
{
closed = 1;
nodes = (
"136 663 LINE",
"445 663 LINE",
"445 51 LINE",
"136 51 LINE"
);
}
);
width = 587;
},
{
associatedMasterId = "CFFEBDE4-599A-46B2-9328-D96E42CD9C81";
layerId = "AD6F6DAA-2D58-4E1D-98AF-ACAAF76D7B9E";
name = "Bold Condensed";
paths = (
{
closed = 1;
nodes = (
"505 0 LINE",
"505 714 LINE",
"94 714 LINE",
"94 0 LINE"
);
},
{
closed = 1;
nodes = (
"145 663 LINE",
"454 663 LINE",
"454 51 LINE",
"145 51 LINE"
);
}
);
width = 600;
},
{
associatedMasterId = "CFFEBDE4-599A-46B2-9328-D96E42CD9C81";
layerId = "001EDBC9-3154-4441-98CE-7D8995D9200E";
name = "Bold Condensed";
paths = (
{
closed = 1;
nodes = (
"496 0 LINE",
"496 714 LINE",
"85 714 LINE",
"85 0 LINE"
);
},
{
closed = 1;
nodes = (
"136 663 LINE",
"445 663 LINE",
"445 51 LINE",
"136 51 LINE"
);
}
);
width = 600;
}
);
note = .notdef;
},
{
color = 3;
glyphname = u1B170;
lastChange = "2020-03-18 16:03:17 +0000";
layers = (
{
layerId = "CFFEBDE4-599A-46B2-9328-D96E42CD9C81";
paths = (
{
closed = 1;
nodes = (
"280 932 LINE",
"288 838 OFFCURVE",
"292 762 OFFCURVE",
"292 649 CURVE SMOOTH",
"292 191 OFFCURVE",
"217 -25 OFFCURVE",
"10 -239 CURVE",
"70 -293 LINE",
"291 -62 OFFCURVE",
"378 180 OFFCURVE",
"378 653 CURVE SMOOTH",
"378 770 OFFCURVE",
"373 851 OFFCURVE",
"365 939 CURVE"
);
}
);
vertOrigin = 90;
vertWidth = 1312;
width = 458;
}
);
unicode = 1B170;
},
{
color = 3;
glyphname = u1B171;
lastChange = "2020-03-18 16:03:17 +0000";
layers = (
{
background = {
paths = (
{
closed = 1;
nodes = (
"367 1074 LINE",
"372 990 OFFCURVE",
"374 912 OFFCURVE",
"374 839 CURVE SMOOTH",
"374 168 OFFCURVE",
"265 -69 OFFCURVE",
"27 -268 CURVE",
"87 -325 LINE",
"339 -109 OFFCURVE",
"460 157 OFFCURVE",
"460 843 CURVE SMOOTH",
"460 917 OFFCURVE",
"456 1001 OFFCURVE",
"451 1079 CURVE"
);
}
);
};
guideLines = (
{
angle = 90;
locked = 1;
position = "{300, 490}";
}
);
layerId = "CFFEBDE4-599A-46B2-9328-D96E42CD9C81";
paths = (
{
closed = 1;
nodes = (
"263 368 OFFCURVE",
"181 172 OFFCURVE",
"0 -28 CURVE",
"57 -83 LINE",
"256 133 OFFCURVE",
"349 362 OFFCURVE",
"349 654 CURVE SMOOTH",
"349 756 OFFCURVE",
"343 846 OFFCURVE",
"330 939 CURVE",
"245 932 LINE",
"258 837 OFFCURVE",
"263 765 OFFCURVE",
"263 652 CURVE SMOOTH"
);
},
{
closed = 1;
nodes = (
"371 193 LINE",
"299 24 OFFCURVE",
"207 -124 OFFCURVE",
"89 -236 CURVE",
"148 -293 LINE",
"269 -177 OFFCURVE",
"366 -20 OFFCURVE",
"448 159 CURVE"
);
}
);
vertOrigin = 90;
vertWidth = 1312;
width = 503;
}
);
unicode = 1B171;
},
{
glyphname = u1B172;
lastChange = "2020-03-18 15:51:28 +0000";
layers = (
{
background = {
components = (
{
name = u1B170;
}
);
};
guideLines = (
{
angle = 90;
locked = 1;
position = "{250, 490}";
}
);
layerId = "CFFEBDE4-599A-46B2-9328-D96E42CD9C81";
paths = (
{
closed = 1;
nodes = (
"313 939 LINE",
"274 628 OFFCURVE",
"171 351 OFFCURVE",
"12 132 CURVE",
"77 83 LINE",
"252 318 OFFCURVE",
"352 613 OFFCURVE",
"396 929 CURVE"
);
},
{
closed = 1;
nodes = (
"219 529 OFFCURVE",
"301 366 OFFCURVE",
"301 147 CURVE SMOOTH",
"301 1 OFFCURVE",
"259 -115 OFFCURVE",
"168 -246 CURVE",
"236 -293 LINE",
"331 -160 OFFCURVE",
"387 -20 OFFCURVE",
"387 147 CURVE SMOOTH",
"387 357 OFFCURVE",
"313 563 OFFCURVE",
"64 771 CURVE",
"10 706 LINE"
);
}
);
vertOrigin = 90;
vertWidth = 1312;
width = 476;
}
);
unicode = 1B172;
},
{
glyphname = u1B173;
lastChange = "2020-03-18 15:51:28 +0000";
layers = (
{
guideLines = (
{
angle = 90;
locked = 1;
position = "{240, 490}";
}
);
layerId = "CFFEBDE4-599A-46B2-9328-D96E42CD9C81";
paths = (
{
closed = 1;
nodes = (
"268 383 LINE",
"305 254 OFFCURVE",
"327 149 OFFCURVE",
"327 37 CURVE SMOOTH",
"327 -80 OFFCURVE",
"306 -172 OFFCURVE",
"268 -272 CURVE",
"350 -293 LINE",
"393 -184 OFFCURVE",
"413 -84 OFFCURVE",
"413 73 CURVE SMOOTH",
"413 193 OFFCURVE",
"387 332 OFFCURVE",
"284 525 CURVE"
);
},
{
closed = 1;
nodes = (
"232 824 OFFCURVE",
"244 730 OFFCURVE",
"244 613 CURVE SMOOTH",
"244 402 OFFCURVE",
"171 232 OFFCURVE",
"10 40 CURVE",
"72 -10 LINE",
"251 192 OFFCURVE",
"330 383 OFFCURVE",
"330 632 CURVE SMOOTH",
"330 744 OFFCURVE",
"317 834 OFFCURVE",
"295 939 CURVE",
"211 924 LINE"
);
}
);
vertOrigin = 90;
vertWidth = 1312;
width = 493;
}
);
unicode = 1B173;
},
{
color = 3;
glyphname = u1B174;
lastChange = "2020-03-18 16:10:42 +0000";
layers = (
{
guideLines = (
{
angle = 90;
locked = 1;
position = "{300, 490}";
}
);
layerId = "CFFEBDE4-599A-46B2-9328-D96E42CD9C81";
paths = (
{
closed = 1;
nodes = (
"86 439 OFFCURVE",
"117 281 OFFCURVE",
"117 112 CURVE SMOOTH",
"117 -21 OFFCURVE",
"93 -138 OFFCURVE",
"41 -262 CURVE",
"115 -293 LINE",
"170 -165 OFFCURVE",
"200 -34 OFFCURVE",
"200 112 CURVE SMOOTH",
"200 300 OFFCURVE",
"167 450 OFFCURVE",
"87 656 CURVE",
"10 624 LINE"
);
},
{
closed = 1;
nodes = (
"411 278 OFFCURVE",
"372 406 OFFCURVE",
"372 591 CURVE SMOOTH",
"372 692 OFFCURVE",
"380 794 OFFCURVE",
"411 923 CURVE",
"332 939 LINE",
"300 812 OFFCURVE",
"289 710 OFFCURVE",
"289 594 CURVE SMOOTH",
"289 391 OFFCURVE",
"344 232 OFFCURVE",
"450 90 CURVE",
"515 138 LINE"
);
}
);
vertOrigin = 90;
vertWidth = 1312;
width = 525;
}
);
unicode = 1B174;
},
{
color = 3;
glyphname = u1B175;
lastChange = "2020-03-18 16:20:45 +0000";
layers = (
{
guideLines = (
{
angle = 90;
locked = 1;
position = "{300, 490}";
}
);
layerId = "CFFEBDE4-599A-46B2-9328-D96E42CD9C81";
paths = (
{
closed = 1;
nodes = (
"482 -273 LINE",
"422 118 OFFCURVE",
"292 459 OFFCURVE",
"91 763 CURVE",
"20 719 LINE",
"211 430 OFFCURVE",
"345 78 OFFCURVE",
"400 -293 CURVE"
);
},
{
closed = 1;
nodes = (
"387 939 LINE",
"338 525 OFFCURVE",
"212 175 OFFCURVE",
"30 -96 CURVE",
"96 -140 LINE",
"292 162 OFFCURVE",
"417 491 OFFCURVE",
"468 927 CURVE"
);
}
);
vertOrigin = 90;
vertWidth = 1312;
width = 512;
}
);
unicode = 1B175;
},
{
color = 3;
glyphname = u1B176;
lastChange = "2020-03-18 16:03:17 +0000";
layers = (
{
guideLines = (
{
angle = 90;
locked = 1;
position = "{223, 490}";
}
);
layerId = "CFFEBDE4-599A-46B2-9328-D96E42CD9C81";
paths = (
{
closed = 1;
nodes = (
"232 732 OFFCURVE",
"265 578 OFFCURVE",
"265 367 CURVE SMOOTH",
"265 116 OFFCURVE",
"184 -87 OFFCURVE",
"44 -243 CURVE",
"104 -293 LINE",
"267 -127 OFFCURVE",
"348 110 OFFCURVE",
"348 368 CURVE SMOOTH",
"348 585 OFFCURVE",
"311 759 OFFCURVE",
"231 939 CURVE",
"152 915 LINE"
);
},
{
closed = 1;
nodes = (
"100 286 OFFCURVE",
"123 303 OFFCURVE",
"123 342 CURVE SMOOTH",
"123 381 OFFCURVE",
"100 398 OFFCURVE",
"72 398 CURVE SMOOTH",
"43 398 OFFCURVE",
"20 381 OFFCURVE",
"20 342 CURVE SMOOTH",
"20 303 OFFCURVE",
"43 286 OFFCURVE",
"72 286 CURVE SMOOTH"
);
}
);
vertOrigin = 90;
vertWidth = 1312;
width = 428;
}
);
unicode = 1B176;
},
{
color = 3;
glyphname = u1B177;
lastChange = "2020-03-18 16:03:17 +0000";
layers = (
{
background = {
paths = (
{
closed = 1;
nodes = (
"362 -133 OFFCURVE",
"291 48 OFFCURVE",
"229 277 CURVE SMOOTH",
"139 609 OFFCURVE",
"198 828 OFFCURVE",
"363 1040 CURVE",
"290 1079 LINE",
"111 848 OFFCURVE",
"52 602 OFFCURVE",
"148 246 CURVE SMOOTH",
"213 6 OFFCURVE",
"289 -183 OFFCURVE",
"388 -350 CURVE",
"465 -318 LINE"
);
}
);
};
guideLines = (
{
angle = 90;
locked = 1;
position = "{330, 490}";
}
);
layerId = "CFFEBDE4-599A-46B2-9328-D96E42CD9C81";
paths = (
{
closed = 1;
nodes = (
"207 939 LINE",
"122 760 OFFCURVE",
"80 576 OFFCURVE",
"80 378 CURVE SMOOTH",
"80 103 OFFCURVE",
"157 -97 OFFCURVE",
"304 -293 CURVE",
"373 -242 LINE",
"239 -43 OFFCURVE",
"166 131 OFFCURVE",
"166 377 CURVE SMOOTH",
"166 580 OFFCURVE",
"207 751 OFFCURVE",
"285 911 CURVE"
);
},
{
closed = 1;
nodes = (
"328 428 OFFCURVE",
"305 411 OFFCURVE",
"305 372 CURVE SMOOTH",
"305 333 OFFCURVE",
"328 316 OFFCURVE",
"356 316 CURVE SMOOTH",
"385 316 OFFCURVE",
"408 333 OFFCURVE",
"408 372 CURVE SMOOTH",
"408 411 OFFCURVE",
"385 428 OFFCURVE",
"356 428 CURVE SMOOTH"
);
}
);
vertOrigin = 90;
vertWidth = 1312;
width = 428;
}
);
unicode = 1B177;
},
{
color = 3;
glyphname = u1B178;
lastChange = "2020-03-18 16:16:04 +0000";
layers = (
{
guideLines = (
{
angle = 90;
locked = 1;
position = "{375, 490}";
}
);
layerId = "CFFEBDE4-599A-46B2-9328-D96E42CD9C81";
paths = (
{
closed = 1;
nodes = (
"173 349 LINE",
"151 154 OFFCURVE",
"120 83 OFFCURVE",
"20 -11 CURVE",
"79 -65 LINE",
"185 32 OFFCURVE",
"236 122 OFFCURVE",
"259 338 CURVE"
);
},
{
closed = 1;
nodes = (
"514 146 OFFCURVE",
"496 57 OFFCURVE",
"496 -41 CURVE SMOOTH",
"496 -135 OFFCURVE",
"506 -206 OFFCURVE",
"537 -283 CURVE",
"617 -255 LINE",
"593 -195 OFFCURVE",
"580 -129 OFFCURVE",
"580 -41 CURVE SMOOTH",
"580 46 OFFCURVE",
"596 129 OFFCURVE",
"643 232 CURVE",
"566 262 LINE"
);
},
{
closed = 1;
nodes = (
"339 931 LINE",
"355 767 OFFCURVE",
"364 633 OFFCURVE",
"364 453 CURVE SMOOTH",
"364 122 OFFCURVE",
"287 -77 OFFCURVE",
"128 -237 CURVE",
"191 -293 LINE",
"364 -116 OFFCURVE",
"450 111 OFFCURVE",
"450 457 CURVE SMOOTH",
"450 642 OFFCURVE",
"440 803 OFFCURVE",
"426 939 CURVE"
);
}
);
vertOrigin = 90;
vertWidth = 1312;
width = 642;
}
);
unicode = 1B178;
},
{
glyphname = u1B179;
lastChange = "2020-03-18 15:51:28 +0000";
layers = (
{
background = {
paths = (
{
closed = 1;
nodes = (
"371 968 OFFCURVE",
"377 873 OFFCURVE",
"377 737 CURVE SMOOTH",
"377 266 OFFCURVE",
"273 -24 OFFCURVE",
"27 -268 CURVE",
"87 -325 LINE",
"352 -67 OFFCURVE",
"463 250 OFFCURVE",
"463 738 CURVE SMOOTH",
"463 863 OFFCURVE",
"456 978 OFFCURVE",
"439 1079 CURVE",
"354 1069 LINE"
);
}
);
};
guideLines = (
{
angle = 90;
locked = 1;
position = "{275, 490}";
}
);
layerId = "CFFEBDE4-599A-46B2-9328-D96E42CD9C81";
paths = (
{
closed = 1;
nodes = (
"318 939 LINE",
"242 744 OFFCURVE",
"152 609 OFFCURVE",
"20 453 CURVE",
"83 400 LINE",
"221 562 OFFCURVE",
"320 702 OFFCURVE",
"401 911 CURVE"
);
},
{
closed = 1;
nodes = (
"331 634 OFFCURVE",
"351 593 OFFCURVE",
"351 530 CURVE SMOOTH",
"351 450 OFFCURVE",
"291 335 OFFCURVE",
"61 134 CURVE",
"116 71 LINE",
"352 282 OFFCURVE",
"437 425 OFFCURVE",
"437 530 CURVE SMOOTH",
"437 620 OFFCURVE",
"409 678 OFFCURVE",
"315 760 CURVE",
"264 693 LINE"
);
},
{
closed = 1;
nodes = (
"242 249 LINE",
"267 123 OFFCURVE",
"272 40 OFFCURVE",
"272 -51 CURVE SMOOTH",
"272 -139 OFFCURVE",
"269 -199 OFFCURVE",
"258 -284 CURVE",
"343 -293 LINE",
"354 -204 OFFCURVE",
"358 -126 OFFCURVE",
"358 -39 CURVE SMOOTH",
"358 68 OFFCURVE",
"347 170 OFFCURVE",
"312 327 CURVE"
);
}
);
vertOrigin = 90;
vertWidth = 1312;
width = 497;
}
);
unicode = 1B179;
},
{
glyphname = u1B17A;
lastChange = "2020-03-18 15:51:28 +0000";
layers = (
{
guideLines = (
{
angle = 90;
locked = 1;
position = "{310, 490}";
}
);
layerId = "CFFEBDE4-599A-46B2-9328-D96E42CD9C81";
paths = (
{
closed = 1;
nodes = (
"283 338 LINE",
"301 213 OFFCURVE",
"307 118 OFFCURVE",
"307 31 CURVE SMOOTH",
"307 -75 OFFCURVE",
"299 -174 OFFCURVE",
"279 -283 CURVE",
"363 -293 LINE",
"384 -176 OFFCURVE",
"391 -76 OFFCURVE",
"391 41 CURVE SMOOTH",
"391 124 OFFCURVE",
"385 225 OFFCURVE",
"359 350 CURVE"
);
},
{
closed = 1;
nodes = (
"300 939 LINE",
"274 642 OFFCURVE",
"208 439 OFFCURVE",
"83 217 CURVE",
"154 172 LINE",
"279 402 OFFCURVE",
"353 615 OFFCURVE",
"384 933 CURVE"
);
},
{
closed = 1;
nodes = (
"220 570 OFFCURVE",
"334 469 OFFCURVE",
"477 322 CURVE",
"530 384 LINE",
"371 542 OFFCURVE",
"270 627 OFFCURVE",
"54 728 CURVE",
"20 655 LINE"
);
}
);
vertOrigin = 90;
vertWidth = 1312;
width = 550;
}
);
unicode = 1B17A;
},
{
glyphname = u1B17B;
lastChange = "2020-03-18 15:51:28 +0000";
layers = (
{
layerId = "CFFEBDE4-599A-46B2-9328-D96E42CD9C81";
paths = (
{
closed = 1;
nodes = (
"307 939 LINE",
"256 714 OFFCURVE",
"155 485 OFFCURVE",
"20 284 CURVE",
"89 241 LINE",
"221 439 OFFCURVE",
"326 679 OFFCURVE",
"388 926 CURVE"
);
},
{
closed = 1;
nodes = (
"21 786 LINE",
"226 469 OFFCURVE",
"342 138 OFFCURVE",
"396 -293 CURVE",
"477 -283 LINE",
"423 187 OFFCURVE",
"281 527 OFFCURVE",
"87 831 CURVE"
);
},
{
closed = 1;
nodes = (
"289 320 LINE",
"226 169 OFFCURVE",
"154 43 OFFCURVE",
"63 -89 CURVE",
"129 -138 LINE",
"215 -13 OFFCURVE",
"282 106 OFFCURVE",
"344 282 CURVE"
);
}
);
vertOrigin = 90;
vertWidth = 1312;
width = 537;
}
);
unicode = 1B17B;
},
{
glyphname = u1B17C;
lastChange = "2020-03-18 15:51:28 +0000";
layers = (
{
layerId = "CFFEBDE4-599A-46B2-9328-D96E42CD9C81";
paths = (
{
closed = 1;
nodes = (
"20 411 LINE",
"135 263 OFFCURVE",
"247 95 OFFCURVE",
"355 -90 CURVE",
"427 -48 LINE",
"313 145 OFFCURVE",
"195 323 OFFCURVE",
"69 489 CURVE",
"79 415 LINE",
"156 580 OFFCURVE",
"214 721 OFFCURVE",
"258 925 CURVE",
"175 939 LINE",
"132 743 OFFCURVE",
"81 626 OFFCURVE",
"20 482 CURVE"
);
},
{
closed = 1;
nodes = (
"222 657 OFFCURVE",
"241 572 OFFCURVE",
"241 442 CURVE SMOOTH",
"241 258 OFFCURVE",
"185 61 OFFCURVE",
"24 -256 CURVE",
"97 -293 LINE",
"263 20 OFFCURVE",
"327 248 OFFCURVE",
"327 442 CURVE SMOOTH",
"327 591 OFFCURVE",
"302 688 OFFCURVE",
"202 853 CURVE",
"167 760 LINE"
);
}
);
vertOrigin = 90;
vertWidth = 1312;
width = 447;
}
);
unicode = 1B17C;
},
{
glyphname = u1B17D;
lastChange = "2020-03-18 15:51:28 +0000";
layers = (
{
layerId = "CFFEBDE4-599A-46B2-9328-D96E42CD9C81";
paths = (
{
closed = 1;
nodes = (
"278 383 LINE",
"292 245 OFFCURVE",
"295 149 OFFCURVE",
"295 37 CURVE SMOOTH",
"295 -80 OFFCURVE",
"282 -172 OFFCURVE",
"258 -272 CURVE",
"340 -293 LINE",
"369 -184 OFFCURVE",
"381 -84 OFFCURVE",
"381 73 CURVE SMOOTH",
"381 193 OFFCURVE",
"365 318 OFFCURVE",
"304 550 CURVE"
);
},
{
closed = 1;
nodes = (
"255 842 OFFCURVE",
"261 773 OFFCURVE",
"261 684 CURVE SMOOTH",
"261 420 OFFCURVE",
"169 232 OFFCURVE",
"20 40 CURVE",
"82 -10 LINE",
"249 192 OFFCURVE",
"347 401 OFFCURVE",
"347 703 CURVE SMOOTH",
"347 787 OFFCURVE",
"340 858 OFFCURVE",
"327 939 CURVE",
"243 929 LINE"
);
},
{
closed = 1;
nodes = (
"568 99 OFFCURVE",
"591 116 OFFCURVE",
"591 155 CURVE SMOOTH",
"591 194 OFFCURVE",
"568 211 OFFCURVE",
"540 211 CURVE SMOOTH",
"511 211 OFFCURVE",
"488 194 OFFCURVE",
"488 155 CURVE SMOOTH",
"488 116 OFFCURVE",
"511 99 OFFCURVE",
"540 99 CURVE SMOOTH"
);
}
);
vertOrigin = 90;
vertWidth = 1312;
width = 611;
}
);
unicode = 1B17D;
},
{
glyphname = u1B17E;
lastChange = "2020-03-18 15:51:28 +0000";
layers = (
{
layerId = "CFFEBDE4-599A-46B2-9328-D96E42CD9C81";
paths = (
{
closed = 1;
nodes = (
"294 939 LINE",
"235 765 OFFCURVE",
"165 639 OFFCURVE",
"57 520 CURVE",
"97 371 OFFCURVE",
"108 254 OFFCURVE",
"108 135 CURVE SMOOTH",
"108 -3 OFFCURVE",
"86 -128 OFFCURVE",
"40 -269 CURVE",
"116 -293 LINE",
"162 -143 OFFCURVE",
"188 -24 OFFCURVE",
"188 145 CURVE SMOOTH",
"188 271 OFFCURVE",
"173 388 OFFCURVE",
"135 538 CURVE",
"130 478 LINE",
"234 592 OFFCURVE",
"312 734 OFFCURVE",
"374 916 CURVE"
);
},
{
closed = 1;
nodes = (
"434 216 LINE",
"423 432 OFFCURVE",
"374 602 OFFCURVE",
"290 777 CURVE",
"247 673 LINE",
"305 540 OFFCURVE",
"340 386 OFFCURVE",
"350 204 CURVE"
);
}
);
vertOrigin = 90;
vertWidth = 1312;
width = 494;
}
);
unicode = 1B17E;
},
{
color = 3;
glyphname = u1B17F;
lastChange = "2020-03-18 16:03:17 +0000";
layers = (
{
layerId = "CFFEBDE4-599A-46B2-9328-D96E42CD9C81";
paths = (
{
closed = 1;
nodes = (
"260 932 LINE",
"268 838 OFFCURVE",
"272 762 OFFCURVE",
"272 649 CURVE SMOOTH",
"272 191 OFFCURVE",
"207 -25 OFFCURVE",
"30 -239 CURVE",
"90 -293 LINE",
"281 -62 OFFCURVE",
"358 180 OFFCURVE",
"358 653 CURVE SMOOTH",
"358 770 OFFCURVE",
"353 851 OFFCURVE",
"345 939 CURVE"
);
},
{
closed = 1;
nodes = (
"100 214 OFFCURVE",
"123 231 OFFCURVE",
"123 270 CURVE SMOOTH",
"123 309 OFFCURVE",
"100 326 OFFCURVE",
"72 326 CURVE SMOOTH",
"43 326 OFFCURVE",
"20 309 OFFCURVE",
"20 270 CURVE SMOOTH",
"20 231 OFFCURVE",
"43 214 OFFCURVE",
"72 214 CURVE SMOOTH"
);
},
{
closed = 1;
nodes = (
"497 -28 OFFCURVE",
"520 -11 OFFCURVE",
"520 28 CURVE SMOOTH",
"520 67 OFFCURVE",
"497 84 OFFCURVE",
"469 84 CURVE SMOOTH",
"440 84 OFFCURVE",
"417 67 OFFCURVE",
"417 28 CURVE SMOOTH",
"417 -11 OFFCURVE",
"440 -28 OFFCURVE",
"469 -28 CURVE SMOOTH"
);
}
);
vertOrigin = 90;
vertWidth = 1312;
width = 590;
}
);
unicode = 1B17F;
},
{
glyphname = u1B180;
lastChange = "2020-03-18 15:51:28 +0000";
layers = (
{
layerId = "CFFEBDE4-599A-46B2-9328-D96E42CD9C81";
paths = (
{
closed = 1;
nodes = (
"414 939 LINE",
"320 606 OFFCURVE",
"209 344 OFFCURVE",
"20 112 CURVE",
"84 59 LINE",
"273 287 OFFCURVE",
"403 586 OFFCURVE",
"496 915 CURVE"
);
},
{
closed = 1;
nodes = (
"523 337 LINE",
"427 120 OFFCURVE",
"313 -79 OFFCURVE",
"169 -242 CURVE",
"234 -293 LINE",
"393 -104 OFFCURVE",
"494 66 OFFCURVE",
"600 299 CURVE"
);
},
{
closed = 1;
nodes = (
"419 -17 LINE",
"336 279 OFFCURVE",
"269 497 OFFCURVE",
"141 758 CURVE",
"64 716 LINE",
"187 463 OFFCURVE",
"263 235 OFFCURVE",
"340 -49 CURVE"
);
}
);
vertOrigin = 90;
vertWidth = 1312;
width = 620;
}
);
unicode = 1B180;
},
{
glyphname = u1B181;
lastChange = "2020-03-18 15:51:28 +0000";
layers = (
{
layerId = "CFFEBDE4-599A-46B2-9328-D96E42CD9C81";
paths = (
{
closed = 1;
nodes = (
"56 289 LINE",
"177 99 OFFCURVE",
"250 -70 OFFCURVE",
"311 -293 CURVE",
"394 -270 LINE",
"327 -29 OFFCURVE",
"249 145 OFFCURVE",
"123 360 CURVE",
"125 289 LINE",
"225 500 OFFCURVE",
"286 679 OFFCURVE",
"334 919 CURVE",
"250 939 LINE",
"206 714 OFFCURVE",
"138 533 OFFCURVE",
"56 360 CURVE"
);
},
{
closed = 1;
nodes = (
"262 578 OFFCURVE",
"294 420 OFFCURVE",
"294 343 CURVE SMOOTH",
"294 212 OFFCURVE",
"229 80 OFFCURVE",
"64 -136 CURVE",
"124 -188 LINE",
"291 20 OFFCURVE",
"378 200 OFFCURVE",
"378 343 CURVE SMOOTH",
"378 470 OFFCURVE",
"320 637 OFFCURVE",
"85 816 CURVE",
"30 750 LINE"
);
}
);
vertOrigin = 90;
vertWidth = 1312;
width = 424;
}
);
unicode = 1B181;
},
{
glyphname = u1B182;
lastChange = "2020-03-18 15:51:28 +0000";
layers = (
{
layerId = "CFFEBDE4-599A-46B2-9328-D96E42CD9C81";
paths = (
{
closed = 1;
nodes = (
"146 386 LINE",
"247 550 OFFCURVE",
"302 671 OFFCURVE",
"349 925 CURVE",
"269 939 LINE",
"230 703 OFFCURVE",
"180 587 OFFCURVE",
"98 456 CURVE"
);
},
{
closed = 1;
nodes = (
"289 640 OFFCURVE",
"312 554 OFFCURVE",
"312 467 CURVE SMOOTH",
"312 292 OFFCURVE",
"251 113 OFFCURVE",
"42 -138 CURVE",
"103 -190 LINE",
"327 80 OFFCURVE",
"396 295 OFFCURVE",
"396 462 CURVE SMOOTH",
"396 580 OFFCURVE",
"371 666 OFFCURVE",
"309 777 CURVE",
"251 740 LINE"
);
},
{
closed = 1;
nodes = (
"30 520 LINE",
"179 248 OFFCURVE",
"242 31 OFFCURVE",
"308 -293 CURVE",
"390 -277 LINE",
"318 61 OFFCURVE",
"251 283 OFFCURVE",
"95 561 CURVE"
);
}
);
vertOrigin = 90;
vertWidth = 1312;
width = 426;
}
);
unicode = 1B182;
},
{
glyphname = u1B183;
lastChange = "2020-03-18 15:51:28 +0000";
layers = (
{
layerId = "CFFEBDE4-599A-46B2-9328-D96E42CD9C81";
paths = (
{
closed = 1;
nodes = (
"207 398 LINE",
"260 240 OFFCURVE",
"302 105 OFFCURVE",
"335 -53 CURVE",
"414 -22 LINE",
"378 144 OFFCURVE",
"334 294 OFFCURVE",
"272 466 CURVE"
);
},
{
closed = 1;
nodes = (
"401 939 LINE",
"307 633 OFFCURVE",
"209 374 OFFCURVE",
"20 142 CURVE",
"84 89 LINE",
"273 317 OFFCURVE",
"393 613 OFFCURVE",
"486 911 CURVE"
);
},
{
closed = 1;
nodes = (
"522 339 LINE",
"426 122 OFFCURVE",
"313 -79 OFFCURVE",
"169 -242 CURVE",
"234 -293 LINE",
"393 -104 OFFCURVE",
"493 68 OFFCURVE",
"599 301 CURVE"
);
}
);
vertOrigin = 90;
vertWidth = 1312;
width = 619;
}
);
unicode = 1B183;
},
{
glyphname = u1B184;
lastChange = "2020-03-18 15:51:28 +0000";
layers = (
{
layerId = "CFFEBDE4-599A-46B2-9328-D96E42CD9C81";
paths = (
{
closed = 1;
nodes = (
"163 -52 OFFCURVE",
"186 -35 OFFCURVE",
"186 4 CURVE SMOOTH",
"186 43 OFFCURVE",
"163 60 OFFCURVE",
"135 60 CURVE SMOOTH",
"106 60 OFFCURVE",
"83 43 OFFCURVE",
"83 4 CURVE SMOOTH",
"83 -35 OFFCURVE",
"106 -52 OFFCURVE",
"135 -52 CURVE SMOOTH"
);
},
{
closed = 1;
nodes = (
"251 430 LINE",
"283 295 OFFCURVE",
"297 206 OFFCURVE",
"297 95 CURVE SMOOTH",
"297 -48 OFFCURVE",
"280 -156 OFFCURVE",
"240 -272 CURVE",
"322 -293 LINE",
"365 -164 OFFCURVE",
"383 -52 OFFCURVE",
"383 107 CURVE SMOOTH",
"383 242 OFFCURVE",
"365 354 OFFCURVE",
"286 550 CURVE"
);
},
{
closed = 1;
nodes = (
"246 844 OFFCURVE",
"253 788 OFFCURVE",
"253 714 CURVE SMOOTH",
"253 513 OFFCURVE",
"192 395 OFFCURVE",
"10 219 CURVE",
"64 160 LINE",
"256 329 OFFCURVE",
"339 494 OFFCURVE",
"339 733 CURVE SMOOTH",
"339 807 OFFCURVE",
"330 866 OFFCURVE",
"309 939 CURVE",
"227 921 LINE"
);
}
);
vertOrigin = 90;
vertWidth = 1312;
width = 463;
}
);
unicode = 1B184;
},
{
glyphname = u1B185;
lastChange = "2020-03-18 15:51:28 +0000";
layers = (
{
layerId = "CFFEBDE4-599A-46B2-9328-D96E42CD9C81";
paths = (
{
closed = 1;
nodes = (
"228 390 LINE",
"244 256 OFFCURVE",
"249 164 OFFCURVE",
"249 51 CURVE SMOOTH",
"249 -77 OFFCURVE",
"241 -174 OFFCURVE",
"221 -283 CURVE",
"305 -293 LINE",
"326 -176 OFFCURVE",
"333 -78 OFFCURVE",
"333 51 CURVE SMOOTH",
"333 170 OFFCURVE",
"329 266 OFFCURVE",
"310 400 CURVE"
);
},
{
closed = 1;
nodes = (
"210 939 LINE",
"185 638 OFFCURVE",
"117 490 OFFCURVE",
"10 279 CURVE",
"85 237 LINE",
"194 437 OFFCURVE",
"271 623 OFFCURVE",
"294 932 CURVE"
);
},
{
closed = 1;
nodes = (
"224 731 LINE",
"278 630 OFFCURVE",
"303 573 OFFCURVE",
"331 516 CURVE SMOOTH",
"372 432 OFFCURVE",
"406 369 OFFCURVE",
"435 292 CURVE",
"520 328 LINE",
"446 504 OFFCURVE",
"368 658 OFFCURVE",
"270 796 CURVE"
);
}
);
vertOrigin = 90;
vertWidth = 1312;
width = 530;
}
);
unicode = 1B185;
},
{
glyphname = u1B186;
lastChange = "2020-03-18 15:51:28 +0000";
layers = (
{
background = {
paths = (
{
closed = 1;
nodes = (
"297 939 LINE",
"238 765 OFFCURVE",
"168 639 OFFCURVE",
"60 520 CURVE",
"100 371 OFFCURVE",
"111 254 OFFCURVE",
"111 135 CURVE SMOOTH",
"111 -3 OFFCURVE",
"89 -128 OFFCURVE",
"43 -269 CURVE",
"119 -293 LINE",
"165 -143 OFFCURVE",
"191 -24 OFFCURVE",
"191 145 CURVE SMOOTH",
"191 271 OFFCURVE",
"176 388 OFFCURVE",
"138 538 CURVE",
"133 478 LINE",
"237 592 OFFCURVE",
"315 734 OFFCURVE",
"377 916 CURVE"
);
},
{
closed = 1;
nodes = (
"437 216 LINE",
"426 432 OFFCURVE",
"377 602 OFFCURVE",
"293 777 CURVE",
"250 673 LINE",
"308 540 OFFCURVE",
"343 386 OFFCURVE",
"353 204 CURVE"
);
}
);
};
layerId = "CFFEBDE4-599A-46B2-9328-D96E42CD9C81";
paths = (
{
closed = 1;
nodes = (
"82 447 OFFCURVE",
"111 284 OFFCURVE",
"111 107 CURVE SMOOTH",
"111 -30 OFFCURVE",
"95 -141 OFFCURVE",
"61 -275 CURVE",
"145 -293 LINE",
"179 -160 OFFCURVE",
"195 -44 OFFCURVE",
"195 119 CURVE SMOOTH",
"195 304 OFFCURVE",
"171 467 OFFCURVE",
"113 665 CURVE",
"30 641 LINE"
);
},
{
closed = 1;
nodes = (
"302 634 OFFCURVE",
"241 475 OFFCURVE",
"131 316 CURVE",
"166 231 LINE",
"311 427 OFFCURVE",
"378 577 OFFCURVE",
"428 927 CURVE",
"344 939 LINE"
);
},
{
closed = 1;
nodes = (
"294 539 LINE",
"343 403 OFFCURVE",
"374 264 OFFCURVE",
"393 94 CURVE",
"480 106 LINE",
"463 303 OFFCURVE",
"420 450 OFFCURVE",
"349 603 CURVE"
);
}
);
vertOrigin = 90;
vertWidth = 1312;
width = 540;
}
);
unicode = 1B186;
},
{
glyphname = u1B187;
lastChange = "2020-03-18 15:51:28 +0000";
layers = (
{
layerId = "CFFEBDE4-599A-46B2-9328-D96E42CD9C81";
paths = (
{
closed = 1;
nodes = (
"323 -293 LINE",
"344 -144 OFFCURVE",
"351 -47 OFFCURVE",
"351 89 CURVE SMOOTH",
"351 382 OFFCURVE",
"260 628 OFFCURVE",
"141 839 CURVE",
"69 796 LINE",
"187 589 OFFCURVE",
"265 374 OFFCURVE",
"265 89 CURVE SMOOTH",
"265 -43 OFFCURVE",
"260 -136 OFFCURVE",
"237 -285 CURVE"
);
},
{
closed = 1;
nodes = (
"362 939 LINE",
"275 719 OFFCURVE",
"177 516 OFFCURVE",
"10 315 CURVE",
"69 263 LINE",
"241 477 OFFCURVE",
"342 668 OFFCURVE",
"439 908 CURVE"
);
},
{
closed = 1;
nodes = (
"436 636 LINE",
"325 412 OFFCURVE",
"236 237 OFFCURVE",
"76 67 CURVE",
"130 11 LINE",
"286 178 OFFCURVE",
"387 366 OFFCURVE",
"503 599 CURVE"
);
}
);
vertOrigin = 90;
vertWidth = 1312;
width = 533;
}
);
unicode = 1B187;
},
{
glyphname = u1B188;
lastChange = "2020-03-18 15:51:28 +0000";
layers = (
{
background = {
paths = (
{
closed = 1;
nodes = (
"450 1074 LINE",
"455 990 OFFCURVE",
"457 912 OFFCURVE",
"457 839 CURVE SMOOTH",
"457 168 OFFCURVE",
"353 -69 OFFCURVE",
"115 -268 CURVE",
"170 -325 LINE",
"422 -109 OFFCURVE",
"543 157 OFFCURVE",
"543 843 CURVE SMOOTH",
"543 917 OFFCURVE",
"539 1001 OFFCURVE",
"534 1079 CURVE"
);
}
);
};
layerId = "CFFEBDE4-599A-46B2-9328-D96E42CD9C81";
paths = (
{
closed = 1;
nodes = (
"342 -218 LINE",
"329 -4 OFFCURVE",
"283 194 OFFCURVE",
"225 375 CURVE",
"138 349 LINE",
"199 167 OFFCURVE",
"240 -19 OFFCURVE",
"257 -230 CURVE",
"357 -253 LINE",
"521 24 OFFCURVE",
"589 279 OFFCURVE",
"589 658 CURVE SMOOTH",
"589 763 OFFCURVE",
"587 842 OFFCURVE",
"580 939 CURVE",
"496 934 LINE",
"501 842 OFFCURVE",
"503 764 OFFCURVE",
"503 662 CURVE SMOOTH",
"503 333 OFFCURVE",
"447 76 OFFCURVE",
"281 -208 CURVE"
);
},
{
closed = 1;
nodes = (
"90 -61 OFFCURVE",
"113 -44 OFFCURVE",
"113 -5 CURVE SMOOTH",
"113 34 OFFCURVE",
"90 51 OFFCURVE",
"62 51 CURVE SMOOTH",
"33 51 OFFCURVE",
"10 34 OFFCURVE",
"10 -5 CURVE SMOOTH",
"10 -44 OFFCURVE",
"33 -61 OFFCURVE",
"62 -61 CURVE SMOOTH"
);
}
);
vertOrigin = 90;
vertWidth = 1312;
width = 599;
}
);
unicode = 1B188;
},
{
glyphname = u1B189;
lastChange = "2020-03-18 15:51:28 +0000";
layers = (
{
layerId = "CFFEBDE4-599A-46B2-9328-D96E42CD9C81";
paths = (
{
closed = 1;
nodes = (
"201 597 LINE",
"261 421 OFFCURVE",
"294 260 OFFCURVE",
"294 38 CURVE SMOOTH",
"294 -77 OFFCURVE",
"287 -171 OFFCURVE",
"270 -284 CURVE",
"349 -293 LINE",
"365 -178 OFFCURVE",
"374 -79 OFFCURVE",
"374 48 CURVE SMOOTH",
"374 291 OFFCURVE",
"344 458 OFFCURVE",
"261 665 CURVE"
);
},
{
closed = 1;
nodes = (
"327 939 LINE",
"247 732 OFFCURVE",
"150 575 OFFCURVE",
"20 416 CURVE",
"77 364 LINE",
"212 536 OFFCURVE",
"311 685 OFFCURVE",
"401 912 CURVE"
);
},
{
closed = 1;
nodes = (
"439 639 LINE",
"332 445 OFFCURVE",
"232 291 OFFCURVE",
"65 125 CURVE",
"116 68 LINE",
"286 231 OFFCURVE",
"389 386 OFFCURVE",
"512 597 CURVE"
);
}
);
vertOrigin = 90;
vertWidth = 1312;
width = 556;
}
);
unicode = 1B189;
},
{
color = 3;
glyphname = u1B18A;
lastChange = "2020-03-18 16:03:17 +0000";
layers = (
{
background = {
paths = (
{
closed = 1;
nodes = (
"355 390 OFFCURVE",
"272 182 OFFCURVE",
"36 -28 CURVE",
"87 -85 LINE",
"352 139 OFFCURVE",
"441 395 OFFCURVE",
"441 797 CURVE SMOOTH",
"441 899 OFFCURVE",
"438 991 OFFCURVE",
"432 1079 CURVE",
"348 1074 LINE",
"353 986 OFFCURVE",
"355 895 OFFCURVE",
"355 809 CURVE SMOOTH"
);
},
{
closed = 1;
nodes = (
"465 201 LINE",
"387 17 OFFCURVE",
"267 -139 OFFCURVE",
"105 -266 CURVE",
"156 -325 LINE",
"331 -183 OFFCURVE",
"449 -32 OFFCURVE",
"537 166 CURVE"
);
}
);
};
layerId = "CFFEBDE4-599A-46B2-9328-D96E42CD9C81";
paths = (
{
closed = 1;
nodes = (
"322 855 OFFCURVE",
"325 785 OFFCURVE",
"325 697 CURVE SMOOTH",
"325 418 OFFCURVE",
"226 256 OFFCURVE",
"40 105 CURVE",
"89 43 LINE",
"288 197 OFFCURVE",
"410 405 OFFCURVE",
"410 697 CURVE SMOOTH",
"410 800 OFFCURVE",
"407 861 OFFCURVE",
"396 939 CURVE",
"313 934 LINE"
);
},
{
closed = 1;
nodes = (
"411 276 LINE",
"324 125 OFFCURVE",
"236 30 OFFCURVE",
"97 -69 CURVE",
"140 -132 LINE",
"284 -30 OFFCURVE",
"379 73 OFFCURVE",
"476 236 CURVE"
);
},
{
closed = 1;
nodes = (
"489 84 LINE",
"400 -46 OFFCURVE",
"293 -151 OFFCURVE",
"163 -232 CURVE",
"206 -293 LINE",
"337 -211 OFFCURVE",
"453 -103 OFFCURVE",
"549 38 CURVE"
);
}
);
vertOrigin = 90;
vertWidth = 1312;
width = 607;
}
);
unicode = 1B18A;
},
{
glyphname = u1B18B;
lastChange = "2020-03-18 15:51:28 +0000";
layers = (
{
layerId = "CFFEBDE4-599A-46B2-9328-D96E42CD9C81";
paths = (
{
closed = 1;
nodes = (
"411 696 LINE",
"381 559 OFFCURVE",
"339 472 OFFCURVE",
"274 392 CURVE",
"320 279 OFFCURVE",
"333 191 OFFCURVE",
"333 74 CURVE SMOOTH",
"333 23 OFFCURVE",
"330 3 OFFCURVE",
"326 -35 CURVE",
"406 -41 LINE",
"413 10 OFFCURVE",
"416 29 OFFCURVE",
"416 80 CURVE SMOOTH",
"416 185 OFFCURVE",
"401 296 OFFCURVE",
"354 406 CURVE",
"349 347 LINE",
"422 442 OFFCURVE",
"466 541 OFFCURVE",
"491 678 CURVE"
);
},
{
closed = 1;
nodes = (
"260 939 LINE",
"228 745 OFFCURVE",
"167 592 OFFCURVE",
"51 435 CURVE",
"99 274 OFFCURVE",
"118 167 OFFCURVE",
"118 51 CURVE SMOOTH",
"118 -53 OFFCURVE",
"102 -153 OFFCURVE",
"63 -274 CURVE",
"143 -293 LINE",
"188 -155 OFFCURVE",
"198 -60 OFFCURVE",
"198 58 CURVE SMOOTH",
"198 180 OFFCURVE",
"176 304 OFFCURVE",
"125 452 CURVE",
"130 397 LINE",
"242 563 OFFCURVE",
"307 714 OFFCURVE",
"342 925 CURVE"
);
}
);
vertOrigin = 90;
vertWidth = 1312;
width = 520;
}
);
unicode = 1B18B;
},
{
color = 3;
glyphname = u1B18C;
lastChange = "2020-03-18 16:10:42 +0000";
layers = (
{
layerId = "CFFEBDE4-599A-46B2-9328-D96E42CD9C81";
paths = (
{
closed = 1;
nodes = (
"157 373 OFFCURVE",
"185 235 OFFCURVE",
"185 106 CURVE SMOOTH",
"185 -32 OFFCURVE",
"157 -129 OFFCURVE",
"75 -254 CURVE",
"139 -293 LINE",
"232 -164 OFFCURVE",
"269 -32 OFFCURVE",
"269 118 CURVE SMOOTH",
"269 244 OFFCURVE",
"234 397 OFFCURVE",
"144 576 CURVE",
"71 535 LINE"
);
},
{
closed = 1;
nodes = (
"436 280 OFFCURVE",
"384 429 OFFCURVE",
"384 632 CURVE SMOOTH",
"384 714 OFFCURVE",
"401 810 OFFCURVE",
"432 918 CURVE",
"354 939 LINE",
"321 833 OFFCURVE",
"300 732 OFFCURVE",
"300 635 CURVE SMOOTH",
"300 414 OFFCURVE",
"370 231 OFFCURVE",
"499 87 CURVE",
"563 138 LINE"
);
},
{
closed = 1;
nodes = (
"572 558 OFFCURVE",
"595 575 OFFCURVE",
"595 614 CURVE SMOOTH",
"595 653 OFFCURVE",
"572 670 OFFCURVE",
"544 670 CURVE SMOOTH",
"515 670 OFFCURVE",
"492 653 OFFCURVE",
"492 614 CURVE SMOOTH",
"492 575 OFFCURVE",
"515 558 OFFCURVE",
"544 558 CURVE SMOOTH"
);
},
{
closed = 1;
nodes = (
"60 66 OFFCURVE",
"83 83 OFFCURVE",
"83 122 CURVE SMOOTH",
"83 161 OFFCURVE",
"60 178 OFFCURVE",
"32 178 CURVE SMOOTH",
"3 178 OFFCURVE",
"-20 161 OFFCURVE",
"-20 122 CURVE SMOOTH",
"-20 83 OFFCURVE",
"3 66 OFFCURVE",
"32 66 CURVE SMOOTH"
);
}
);
vertOrigin = 90;
vertWidth = 1312;
width = 575;
}
);
unicode = 1B18C;
},
{
glyphname = u1B18D;
lastChange = "2020-03-18 15:51:28 +0000";
layers = (
{
layerId = "CFFEBDE4-599A-46B2-9328-D96E42CD9C81";
paths = (
{
closed = 1;
nodes = (
"358 215 LINE",
"346 302 OFFCURVE",
"332 352 OFFCURVE",
"306 419 CURVE",
"232 389 LINE",
"263 314 OFFCURVE",
"280 246 OFFCURVE",
"297 169 CURVE",
"410 182 LINE",
"438 257 OFFCURVE",
"457 343 OFFCURVE",
"457 441 CURVE SMOOTH",
"457 566 OFFCURVE",
"419 664 OFFCURVE",
"295 831 CURVE",
"257 765 LINE",
"357 592 OFFCURVE",
"371 516 OFFCURVE",
"371 400 CURVE SMOOTH",
"371 332 OFFCURVE",
"363 269 OFFCURVE",
"344 206 CURVE"
);
},
{
closed = 1;
nodes = (
"294 939 LINE",
"235 765 OFFCURVE",
"165 639 OFFCURVE",
"57 520 CURVE",
"97 371 OFFCURVE",
"108 254 OFFCURVE",
"108 135 CURVE SMOOTH",
"108 -3 OFFCURVE",
"86 -128 OFFCURVE",
"40 -269 CURVE",
"116 -293 LINE",
"162 -143 OFFCURVE",
"188 -24 OFFCURVE",
"188 145 CURVE SMOOTH",
"188 271 OFFCURVE",
"173 388 OFFCURVE",
"135 538 CURVE",
"130 478 LINE",
"234 592 OFFCURVE",
"312 734 OFFCURVE",
"374 916 CURVE"
);
}
);
vertOrigin = 90;
vertWidth = 1312;
width = 499;
}
);
unicode = 1B18D;
},
{
glyphname = u1B18E;
lastChange = "2020-03-18 15:51:28 +0000";
layers = (
{
layerId = "CFFEBDE4-599A-46B2-9328-D96E42CD9C81";
paths = (
{
closed = 1;
nodes = (
"229 40 LINE",
"199 -73 OFFCURVE",
"166 -162 OFFCURVE",
"122 -252 CURVE",
"194 -284 LINE",
"242 -191 OFFCURVE",
"277 -101 OFFCURVE",
"305 21 CURVE"
);
},
{
closed = 1;
nodes = (
"307 939 LINE",
"240 727 OFFCURVE",
"155 535 OFFCURVE",
"20 334 CURVE",
"88 287 LINE",
"220 485 OFFCURVE",
"310 686 OFFCURVE",
"388 920 CURVE"
);
},
{
closed = 1;
nodes = (
"34 786 LINE",
"239 469 OFFCURVE",
"352 138 OFFCURVE",
"406 -293 CURVE",
"487 -283 LINE",
"433 187 OFFCURVE",
"294 527 OFFCURVE",
"100 831 CURVE"
);
},
{
closed = 1;
nodes = (
"249 410 LINE",
"186 259 OFFCURVE",
"128 143 OFFCURVE",
"43 11 CURVE",
"109 -38 LINE",
"189 87 OFFCURVE",
"242 196 OFFCURVE",
"304 372 CURVE"
);
}
);
vertOrigin = 90;
vertWidth = 1312;
width = 557;
}
);
unicode = 1B18E;
},
{
color = 3;
glyphname = u1B18F;
lastChange = "2020-03-18 16:20:45 +0000";
layers = (
{
layerId = "CFFEBDE4-599A-46B2-9328-D96E42CD9C81";
paths = (
{
closed = 1;
nodes = (
"532 323 OFFCURVE",
"555 340 OFFCURVE",
"555 379 CURVE SMOOTH",
"555 418 OFFCURVE",
"532 435 OFFCURVE",
"504 435 CURVE SMOOTH",
"475 435 OFFCURVE",
"452 418 OFFCURVE",
"452 379 CURVE SMOOTH",
"452 340 OFFCURVE",
"475 323 OFFCURVE",
"504 323 CURVE SMOOTH"
);
},
{
closed = 1;
nodes = (
"80 225 OFFCURVE",
"103 242 OFFCURVE",
"103 281 CURVE SMOOTH",
"103 320 OFFCURVE",
"80 337 OFFCURVE",
"52 337 CURVE SMOOTH",
"23 337 OFFCURVE",
"0 320 OFFCURVE",
"0 281 CURVE SMOOTH",
"0 242 OFFCURVE",
"23 225 OFFCURVE",
"52 225 CURVE SMOOTH"
);
},
{
closed = 1;
nodes = (
"482 -273 LINE",
"422 118 OFFCURVE",
"292 459 OFFCURVE",
"91 763 CURVE",
"20 719 LINE",
"211 430 OFFCURVE",
"345 78 OFFCURVE",
"400 -293 CURVE"
);
},
{
closed = 1;
nodes = (
"387 939 LINE",
"338 525 OFFCURVE",
"212 175 OFFCURVE",
"30 -96 CURVE",
"96 -140 LINE",
"292 162 OFFCURVE",
"417 491 OFFCURVE",
"468 927 CURVE"
);
}
);
vertOrigin = 90;
vertWidth = 1312;
width = 553;
}
);
unicode = 1B18F;
},
{
color = 3;
glyphname = u1B190;
lastChange = "2020-03-18 16:10:42 +0000";
layers = (
{
layerId = "CFFEBDE4-599A-46B2-9328-D96E42CD9C81";
paths = (
{
closed = 1;
nodes = (
"202 -176 OFFCURVE",
"231 -232 OFFCURVE",
"305 -293 CURVE",
"376 -284 LINE",
"447 -173 OFFCURVE",
"477 -72 OFFCURVE",
"477 1 CURVE SMOOTH",
"477 70 OFFCURVE",
"431 127 OFFCURVE",
"360 190 CURVE",
"286 180 LINE",
"221 58 OFFCURVE",
"202 -19 OFFCURVE",
"202 -84 CURVE SMOOTH"
);
},
{
closed = 1;
nodes = (
"300 143 LINE",
"364 82 OFFCURVE",
"389 37 OFFCURVE",
"389 -5 CURVE SMOOTH",
"389 -63 OFFCURVE",
"364 -149 OFFCURVE",
"321 -233 CURVE",
"350 -233 LINE",
"303 -179 OFFCURVE",
"282 -140 OFFCURVE",
"282 -84 CURVE SMOOTH",
"282 -24 OFFCURVE",
"300 48 OFFCURVE",
"353 146 CURVE"
);
},
{
closed = 1;
nodes = (
"112 594 OFFCURVE",
"128 499 OFFCURVE",
"128 386 CURVE SMOOTH",
"128 259 OFFCURVE",
"93 158 OFFCURVE",
"17 50 CURVE",
"82 -2 LINE",
"176 128 OFFCURVE",
"212 239 OFFCURVE",
"212 390 CURVE SMOOTH",
"212 517 OFFCURVE",
"194 612 OFFCURVE",
"151 725 CURVE",
"72 694 LINE"
);
},
{
closed = 1;
nodes = (
"448 414 OFFCURVE",
"415 519 OFFCURVE",
"415 647 CURVE SMOOTH",
"415 745 OFFCURVE",
"426 813 OFFCURVE",
"457 913 CURVE",
"382 939 LINE",
"346 830 OFFCURVE",
"331 749 OFFCURVE",
"331 641 CURVE SMOOTH",
"331 499 OFFCURVE",
"378 357 OFFCURVE",
"486 233 CURVE",
"547 289 LINE"
);
}
);
vertOrigin = 90;
vertWidth = 1312;
width = 602;
}
);
unicode = 1B190;
},
{
glyphname = u1B191;
lastChange = "2020-03-18 15:51:28 +0000";
layers = (
{
layerId = "CFFEBDE4-599A-46B2-9328-D96E42CD9C81";
paths = (
{
closed = 1;
nodes = (
"318 939 LINE",
"237 767 OFFCURVE",
"155 637 OFFCURVE",
"20 493 CURVE",
"83 440 LINE",
"224 590 OFFCURVE",
"312 725 OFFCURVE",
"398 904 CURVE"
);
},
{
closed = 1;
nodes = (
"323 670 OFFCURVE",
"341 630 OFFCURVE",
"341 578 CURVE SMOOTH",
"341 478 OFFCURVE",
"303 386 OFFCURVE",
"71 194 CURVE",
"126 131 LINE",
"364 333 OFFCURVE",
"427 453 OFFCURVE",
"427 578 CURVE SMOOTH",
"427 657 OFFCURVE",
"401 714 OFFCURVE",
"315 780 CURVE",
"264 713 LINE"
);
},
{
closed = 1;
nodes = (
"242 289 LINE",
"267 163 OFFCURVE",
"272 16 OFFCURVE",
"272 -105 CURVE SMOOTH",
"272 -163 OFFCURVE",
"270 -221 OFFCURVE",
"263 -286 CURVE",
"349 -293 LINE",
"356 -224 OFFCURVE",
"358 -150 OFFCURVE",
"358 -93 CURVE SMOOTH",
"358 44 OFFCURVE",
"347 210 OFFCURVE",
"312 367 CURVE"
);
},
{
closed = 1;
nodes = (
"450 298 LINE",
"353 154 OFFCURVE",
"239 36 OFFCURVE",
"92 -78 CURVE",
"139 -148 LINE",
"295 -27 OFFCURVE",
"401 86 OFFCURVE",
"516 242 CURVE"
);
}
);
vertOrigin = 90;
vertWidth = 1312;
width = 524;
}
);
unicode = 1B191;
},
{
glyphname = u1B192;
lastChange = "2020-03-18 15:51:28 +0000";
layers = (
{
layerId = "CFFEBDE4-599A-46B2-9328-D96E42CD9C81";
paths = (
{
closed = 1;
nodes = (
"334 939 LINE",
"275 765 OFFCURVE",
"205 639 OFFCURVE",
"97 520 CURVE",
"168 347 OFFCURVE",
"188 225 OFFCURVE",
"188 105 CURVE SMOOTH",
"188 -47 OFFCURVE",
"161 -135 OFFCURVE",
"88 -256 CURVE",
"156 -293 LINE",
"238 -163 OFFCURVE",
"268 -56 OFFCURVE",
"268 105 CURVE SMOOTH",
"268 242 OFFCURVE",
"238 376 OFFCURVE",
"175 538 CURVE",
"170 478 LINE",
"274 592 OFFCURVE",
"352 734 OFFCURVE",
"414 916 CURVE"
);
},
{
closed = 1;
nodes = (
"474 216 LINE",
"463 432 OFFCURVE",
"414 602 OFFCURVE",
"330 777 CURVE",
"287 673 LINE",
"345 540 OFFCURVE",
"380 386 OFFCURVE",
"390 204 CURVE"
);
},
{
closed = 1;
nodes = (
"80 61 OFFCURVE",
"103 78 OFFCURVE",
"103 117 CURVE SMOOTH",
"103 156 OFFCURVE",
"80 173 OFFCURVE",
"52 173 CURVE SMOOTH",
"23 173 OFFCURVE",
"0 156 OFFCURVE",
"0 117 CURVE SMOOTH",
"0 78 OFFCURVE",
"23 61 OFFCURVE",
"52 61 CURVE SMOOTH"
);
}
);
vertOrigin = 90;
vertWidth = 1312;
width = 501;
}
);
unicode = 1B192;
},
{
glyphname = u1B193;
lastChange = "2020-03-18 15:51:28 +0000";
layers = (
{
layerId = "CFFEBDE4-599A-46B2-9328-D96E42CD9C81";
paths = (
{
closed = 1;
nodes = (
"342 -218 LINE",
"321 -19 OFFCURVE",
"274 147 OFFCURVE",
"195 315 CURVE",
"111 274 LINE",
"193 105 OFFCURVE",
"232 -34 OFFCURVE",
"257 -230 CURVE",
"357 -253 LINE",
"521 24 OFFCURVE",
"589 279 OFFCURVE",
"589 658 CURVE SMOOTH",
"589 763 OFFCURVE",
"587 842 OFFCURVE",
"580 939 CURVE",
"496 934 LINE",
"501 842 OFFCURVE",
"503 764 OFFCURVE",
"503 662 CURVE SMOOTH",
"503 333 OFFCURVE",
"447 76 OFFCURVE",
"281 -208 CURVE"
);
},
{
closed = 1;
nodes = (
"90 -61 OFFCURVE",
"113 -44 OFFCURVE",
"113 -5 CURVE SMOOTH",
"113 34 OFFCURVE",
"90 51 OFFCURVE",
"62 51 CURVE SMOOTH",
"33 51 OFFCURVE",
"10 34 OFFCURVE",
"10 -5 CURVE SMOOTH",
"10 -44 OFFCURVE",
"33 -61 OFFCURVE",
"62 -61 CURVE SMOOTH"
);
},
{
closed = 1;
nodes = (
"359 350 OFFCURVE",
"382 367 OFFCURVE",
"382 406 CURVE SMOOTH",
"382 445 OFFCURVE",
"359 462 OFFCURVE",
"331 462 CURVE SMOOTH",
"302 462 OFFCURVE",
"279 445 OFFCURVE",
"279 406 CURVE SMOOTH",
"279 367 OFFCURVE",
"302 350 OFFCURVE",
"331 350 CURVE SMOOTH"
);
}
);
vertOrigin = 90;
vertWidth = 1312;
width = 599;
}
);
unicode = 1B193;
},
{
glyphname = u1B194;
lastChange = "2020-03-18 15:51:28 +0000";
layers = (
{
background = {
paths = (
{
closed = 1;
nodes = (
"229 40 LINE",
"199 -73 OFFCURVE",
"166 -162 OFFCURVE",
"122 -252 CURVE",
"194 -284 LINE",
"242 -191 OFFCURVE",
"277 -101 OFFCURVE",
"305 21 CURVE"
);
},
{
closed = 1;
nodes = (
"307 939 LINE",
"240 727 OFFCURVE",
"155 535 OFFCURVE",
"20 334 CURVE",
"88 287 LINE",
"220 485 OFFCURVE",
"310 686 OFFCURVE",
"388 920 CURVE"
);
},
{
closed = 1;
nodes = (
"34 786 LINE",
"239 469 OFFCURVE",
"352 138 OFFCURVE",
"406 -293 CURVE",
"487 -283 LINE",
"433 187 OFFCURVE",
"294 527 OFFCURVE",
"100 831 CURVE"
);
},
{
closed = 1;
nodes = (
"249 410 LINE",
"186 259 OFFCURVE",
"128 143 OFFCURVE",
"43 11 CURVE",
"109 -38 LINE",
"189 87 OFFCURVE",
"242 196 OFFCURVE",
"304 372 CURVE"
);
}
);
};
layerId = "CFFEBDE4-599A-46B2-9328-D96E42CD9C81";
paths = (
{
closed = 1;
nodes = (
"286 939 LINE",
"232 718 OFFCURVE",
"169 548 OFFCURVE",
"30 334 CURVE",
"99 291 LINE",
"234 500 OFFCURVE",
"302 683 OFFCURVE",
"367 921 CURVE"
);
},
{
closed = 1;
nodes = (
"35 786 LINE",
"240 469 OFFCURVE",
"342 138 OFFCURVE",
"406 -293 CURVE",
"487 -283 LINE",
"423 187 OFFCURVE",
"295 527 OFFCURVE",
"101 831 CURVE"
);
},
{
closed = 1;
nodes = (
"406 677 LINE",
"316 426 OFFCURVE",
"235 234 OFFCURVE",
"80 26 CURVE",
"144 -19 LINE",
"298 188 OFFCURVE",
"389 387 OFFCURVE",
"481 646 CURVE"
);
},
{
closed = 1;
nodes = (
"332 86 LINE",
"281 -23 OFFCURVE",
"242 -100 OFFCURVE",
"151 -224 CURVE",
"217 -273 LINE",
"303 -148 OFFCURVE",
"342 -69 OFFCURVE",
"381 48 CURVE"
);
}
);
vertOrigin = 90;
vertWidth = 1312;
width = 557;
}
);
unicode = 1B194;
},
{
glyphname = u1B195;
lastChange = "2020-03-18 15:51:28 +0000";
layers = (
{
layerId = "CFFEBDE4-599A-46B2-9328-D96E42CD9C81";
paths = (
{
closed = 1;
nodes = (
"235 807 OFFCURVE",
"236 738 OFFCURVE",
"236 628 CURVE SMOOTH",
"236 382 OFFCURVE",
"173 165 OFFCURVE",
"20 -73 CURVE",
"89 -117 LINE",
"252 128 OFFCURVE",
"319 372 OFFCURVE",
"319 628 CURVE SMOOTH",
"319 740 OFFCURVE",
"315 820 OFFCURVE",
"304 939 CURVE",
"222 932 LINE"
);
},
{
closed = 1;
nodes = (
"466 -273 LINE",
"427 -64 OFFCURVE",
"383 104 OFFCURVE",
"268 392 CURVE",
"233 251 LINE",
"301 65 OFFCURVE",
"343 -90 OFFCURVE",
"383 -293 CURVE"
);
},
{
closed = 1;
nodes = (
"511 229 OFFCURVE",
"534 246 OFFCURVE",
"534 285 CURVE SMOOTH",
"534 324 OFFCURVE",
"511 341 OFFCURVE",
"483 341 CURVE SMOOTH",
"454 341 OFFCURVE",
"431 324 OFFCURVE",
"431 285 CURVE SMOOTH",
"431 246 OFFCURVE",
"454 229 OFFCURVE",
"483 229 CURVE SMOOTH"
);
},
{
closed = 1;
nodes = (
"81 386 OFFCURVE",
"104 403 OFFCURVE",
"104 442 CURVE SMOOTH",
"104 481 OFFCURVE",
"81 498 OFFCURVE",
"53 498 CURVE SMOOTH",
"24 498 OFFCURVE",
"1 481 OFFCURVE",
"1 442 CURVE SMOOTH",
"1 403 OFFCURVE",
"24 386 OFFCURVE",
"53 386 CURVE SMOOTH"
);
}
);
vertOrigin = 90;
vertWidth = 1312;
width = 581;
}
);
unicode = 1B195;
},
{
glyphname = u1B196;
lastChange = "2020-03-18 15:51:28 +0000";
layers = (
{
layerId = "CFFEBDE4-599A-46B2-9328-D96E42CD9C81";
paths = (
{
closed = 1;
nodes = (
"369 714 OFFCURVE",
"346 556 OFFCURVE",
"307 408 CURVE",
"301 377 LINE",
"237 123 OFFCURVE",
"190 -52 OFFCURVE",
"118 -270 CURVE",
"205 -293 LINE",
"264 -121 OFFCURVE",
"301 29 OFFCURVE",
"347 246 CURVE",
"358 286 LINE",
"409 463 OFFCURVE",
"437 611 OFFCURVE",
"472 879 CURVE",
"437 879 LINE",
"469 771 OFFCURVE",
"483 677 OFFCURVE",
"495 581 CURVE",
"586 597 LINE",
"569 718 OFFCURVE",
"540 837 OFFCURVE",
"494 939 CURVE",
"396 928 LINE"
);
},
{
closed = 1;
nodes = (
"260 431 OFFCURVE",
"350 167 OFFCURVE",
"415 -133 CURVE",
"505 -108 LINE",
"430 223 OFFCURVE",
"334 474 OFFCURVE",
"210 733 CURVE",
"115 719 LINE",
"95 559 OFFCURVE",
"78 463 OFFCURVE",
"35 330 CURVE",
"118 305 LINE",
"155 426 OFFCURVE",
"172 519 OFFCURVE",
"190 674 CURVE",
"143 671 LINE"
);
}
);
vertOrigin = 90;
vertWidth = 1312;
width = 627;
}
);
unicode = 1B196;
},
{
glyphname = u1B197;
lastChange = "2020-03-18 15:51:28 +0000";
layers = (
{
layerId = "CFFEBDE4-599A-46B2-9328-D96E42CD9C81";
paths = (
{
closed = 1;
nodes = (
"359 939 LINE",
"261 622 OFFCURVE",
"161 452 OFFCURVE",
"15 258 CURVE",
"81 208 LINE",
"240 418 OFFCURVE",
"337 601 OFFCURVE",
"439 918 CURVE"
);
},
{
closed = 1;
nodes = (
"508 202 LINE",
"399 10 OFFCURVE",
"327 -113 OFFCURVE",
"205 -240 CURVE",
"264 -293 LINE",
"397 -150 OFFCURVE",
"466 -37 OFFCURVE",
"582 164 CURVE"
);
},
{
closed = 1;
nodes = (
"412 -61 LINE",
"353 260 OFFCURVE",
"266 475 OFFCURVE",
"139 784 CURVE",
"60 746 LINE",
"196 432 OFFCURVE",
"276 209 OFFCURVE",
"335 -90 CURVE"
);
},
{
closed = 1;
nodes = (
"413 489 LINE",
"327 317 OFFCURVE",
"231 162 OFFCURVE",
"112 13 CURVE",
"176 -35 LINE",
"295 114 OFFCURVE",
"394 270 OFFCURVE",
"487 452 CURVE"
);
}
);
vertOrigin = 90;
vertWidth = 1312;
width = 632;
}
);
unicode = 1B197;
},
{
glyphname = u1B198;
lastChange = "2020-03-18 15:51:28 +0000";
layers = (
{
background = {
paths = (
{
closed = 1;
nodes = (
"358 215 LINE",
"346 302 OFFCURVE",
"332 352 OFFCURVE",
"306 419 CURVE",
"232 389 LINE",
"263 314 OFFCURVE",
"280 246 OFFCURVE",
"297 169 CURVE",
"410 182 LINE",
"438 257 OFFCURVE",
"457 343 OFFCURVE",
"457 441 CURVE SMOOTH",
"457 566 OFFCURVE",
"419 664 OFFCURVE",
"295 831 CURVE",
"257 765 LINE",
"357 592 OFFCURVE",
"371 516 OFFCURVE",
"371 400 CURVE SMOOTH",
"371 332 OFFCURVE",
"363 269 OFFCURVE",
"344 206 CURVE"
);
},
{
closed = 1;
nodes = (
"294 939 LINE",
"235 765 OFFCURVE",
"165 639 OFFCURVE",
"57 520 CURVE",
"97 371 OFFCURVE",
"108 254 OFFCURVE",
"108 135 CURVE SMOOTH",
"108 -3 OFFCURVE",
"86 -128 OFFCURVE",
"40 -269 CURVE",
"116 -293 LINE",
"162 -143 OFFCURVE",
"188 -24 OFFCURVE",
"188 145 CURVE SMOOTH",
"188 271 OFFCURVE",
"173 388 OFFCURVE",
"135 538 CURVE",
"130 478 LINE",
"234 592 OFFCURVE",
"312 734 OFFCURVE",
"374 916 CURVE"
);
}
);
};
layerId = "CFFEBDE4-599A-46B2-9328-D96E42CD9C81";
paths = (
{
closed = 1;
nodes = (
"244 299 OFFCURVE",
"280 217 OFFCURVE",
"334 141 CURVE",
"407 141 LINE",
"449 217 OFFCURVE",
"476 293 OFFCURVE",
"476 375 CURVE SMOOTH",
"476 478 OFFCURVE",
"423 626 OFFCURVE",
"301 811 CURVE",
"257 746 LINE",
"362 560 OFFCURVE",
"397 451 OFFCURVE",
"397 359 CURVE SMOOTH",
"397 314 OFFCURVE",
"383 258 OFFCURVE",
"345 182 CURVE",
"386 191 LINE",
"345 266 OFFCURVE",
"328 317 OFFCURVE",
"328 362 CURVE SMOOTH",
"328 413 OFFCURVE",
"338 446 OFFCURVE",
"379 520 CURVE",
"350 583 LINE",
"261 481 OFFCURVE",
"244 425 OFFCURVE",
"244 374 CURVE SMOOTH"
);
},
{
closed = 1;
nodes = (
"294 939 LINE",
"235 765 OFFCURVE",
"177 660 OFFCURVE",
"57 519 CURVE",
"90 392 OFFCURVE",
"108 286 OFFCURVE",
"108 130 CURVE SMOOTH",
"108 -10 OFFCURVE",
"85 -132 OFFCURVE",
"40 -269 CURVE",
"116 -293 LINE",
"164 -147 OFFCURVE",
"188 -8 OFFCURVE",
"188 137 CURVE SMOOTH",
"188 299 OFFCURVE",
"169 417 OFFCURVE",
"131 530 CURVE",
"136 481 LINE",
"247 619 OFFCURVE",
"296 702 OFFCURVE",
"374 916 CURVE"
);
}
);
vertOrigin = 90;
vertWidth = 1312;
width = 535;
}
);
unicode = 1B198;
},
{
glyphname = u1B199;
lastChange = "2020-03-18 15:51:28 +0000";
layers = (
{
layerId = "CFFEBDE4-599A-46B2-9328-D96E42CD9C81";
paths = (
{
closed = 1;
nodes = (
"237 367 LINE",
"207 52 OFFCURVE",
"160 -83 OFFCURVE",
"61 -261 CURVE",
"133 -293 LINE",
"231 -118 OFFCURVE",
"284 25 OFFCURVE",
"316 360 CURVE"
);
},
{
closed = 1;
nodes = (
"244 159 LINE",
"292 61 OFFCURVE",
"323 -3 OFFCURVE",
"357 -101 CURVE SMOOTH",
"375 -153 OFFCURVE",
"385 -179 OFFCURVE",
"400 -241 CURVE",
"485 -218 LINE",
"433 -35 OFFCURVE",
"376 84 OFFCURVE",
"296 211 CURVE"
);
},
{
closed = 1;
nodes = (
"230 939 LINE",
"190 615 OFFCURVE",
"129 450 OFFCURVE",
"30 279 CURVE",
"103 235 LINE",
"204 424 OFFCURVE",
"262 581 OFFCURVE",
"312 931 CURVE"
);
},
{
closed = 1;
nodes = (
"223 722 LINE",
"277 621 OFFCURVE",
"309 563 OFFCURVE",
"337 506 CURVE SMOOTH",
"378 422 OFFCURVE",
"409 356 OFFCURVE",
"438 279 CURVE",
"515 318 LINE",
"441 494 OFFCURVE",
"368 642 OFFCURVE",
"270 780 CURVE"
);
}
);
vertOrigin = 90;
vertWidth = 1312;
width = 545;
}
);
unicode = 1B199;
},
{
glyphname = u1B19A;
lastChange = "2020-03-18 15:51:28 +0000";
layers = (
{
layerId = "CFFEBDE4-599A-46B2-9328-D96E42CD9C81";
paths = (
{
closed = 1;
nodes = (
"434 939 LINE",
"375 633 OFFCURVE",
"289 457 OFFCURVE",
"158 301 CURVE",
"207 240 LINE",
"369 423 OFFCURVE",
"452 601 OFFCURVE",
"519 922 CURVE"
);
},
{
closed = 1;
nodes = (
"86 563 OFFCURVE",
"110 409 OFFCURVE",
"110 228 CURVE SMOOTH",
"110 62 OFFCURVE",
"79 -88 OFFCURVE",
"19 -266 CURVE",
"100 -293 LINE",
"166 -106 OFFCURVE",
"196 42 OFFCURVE",
"196 232 CURVE SMOOTH",
"196 431 OFFCURVE",
"171 585 OFFCURVE",
"110 771 CURVE",
"26 746 LINE"
);
},
{
closed = 1;
nodes = (
"433 -173 LINE",
"497 -62 OFFCURVE",
"541 61 OFFCURVE",
"574 214 CURVE",
"487 233 LINE",
"462 96 OFFCURVE",
"427 -12 OFFCURVE",
"379 -107 CURVE",
"412 -125 LINE",
"373 31 OFFCURVE",
"320 151 OFFCURVE",
"221 323 CURVE",
"158 277 LINE",
"249 113 OFFCURVE",
"292 7 OFFCURVE",
"337 -173 CURVE"
);
}
);
vertOrigin = 90;
vertWidth = 1312;
width = 604;
}
);
unicode = 1B19A;
},
{
color = 3;
glyphname = u1B19B;
lastChange = "2020-03-18 16:20:45 +0000";
layers = (
{
layerId = "CFFEBDE4-599A-46B2-9328-D96E42CD9C81";
paths = (
{
closed = 1;
nodes = (
"20 44 OFFCURVE",
"43 61 OFFCURVE",
"43 100 CURVE SMOOTH",
"43 139 OFFCURVE",
"20 156 OFFCURVE",
"-8 156 CURVE SMOOTH",
"-37 156 OFFCURVE",
"-60 139 OFFCURVE",
"-60 100 CURVE SMOOTH",
"-60 61 OFFCURVE",
"-37 44 OFFCURVE",
"-8 44 CURVE SMOOTH"
);
},
{
closed = 1;
nodes = (
"106 233 OFFCURVE",
"129 250 OFFCURVE",
"129 289 CURVE SMOOTH",
"129 328 OFFCURVE",
"106 345 OFFCURVE",
"78 345 CURVE SMOOTH",
"49 345 OFFCURVE",
"26 328 OFFCURVE",
"26 289 CURVE SMOOTH",
"26 250 OFFCURVE",
"49 233 OFFCURVE",
"78 233 CURVE SMOOTH"
);
},
{
closed = 1;
nodes = (
"482 -273 LINE",
"422 118 OFFCURVE",
"292 459 OFFCURVE",
"91 763 CURVE",
"20 719 LINE",
"211 430 OFFCURVE",
"345 78 OFFCURVE",
"400 -293 CURVE"
);
},
{
closed = 1;
nodes = (
"387 939 LINE",
"338 525 OFFCURVE",
"212 175 OFFCURVE",
"30 -96 CURVE",
"96 -140 LINE",
"292 162 OFFCURVE",
"417 491 OFFCURVE",
"468 927 CURVE"
);
}
);
vertOrigin = 90;
vertWidth = 1312;
width = 588;
}
);
unicode = 1B19B;
},
{
glyphname = u1B19C;
lastChange = "2020-03-18 15:51:28 +0000";
layers = (
{
layerId = "CFFEBDE4-599A-46B2-9328-D96E42CD9C81";
paths = (
{
closed = 1;
nodes = (
"502 371 LINE",
"441 254 OFFCURVE",
"417 163 OFFCURVE",
"417 68 CURVE SMOOTH",
"417 -31 OFFCURVE",
"437 -103 OFFCURVE",
"500 -176 CURVE",
"564 -130 LINE",
"515 -61 OFFCURVE",
"500 0 OFFCURVE",
"500 85 CURVE SMOOTH",
"500 163 OFFCURVE",
"521 237 OFFCURVE",
"575 337 CURVE"
);
},
{
closed = 1;
nodes = (
"149 -293 LINE",
"178 -227 OFFCURVE",
"194 -166 OFFCURVE",
"194 -87 CURVE SMOOTH",
"194 0 OFFCURVE",
"171 93 OFFCURVE",
"108 195 CURVE",
"35 153 LINE",
"88 58 OFFCURVE",
"111 -12 OFFCURVE",
"111 -113 CURVE SMOOTH",
"111 -162 OFFCURVE",
"101 -211 OFFCURVE",
"74 -268 CURVE"
);
},
{
closed = 1;
nodes = (
"402 939 LINE",
"384 633 OFFCURVE",
"337 434 OFFCURVE",
"236 209 CURVE",
"276 213 LINE",
"254 368 OFFCURVE",
"212 485 OFFCURVE",
"141 623 CURVE",
"69 588 LINE",
"142 449 OFFCURVE",
"175 349 OFFCURVE",
"206 197 CURVE",
"308 184 LINE",
"412 408 OFFCURVE",
"462 606 OFFCURVE",
"488 933 CURVE"
);
}
);
vertOrigin = 90;
vertWidth = 1312;
width = 594;
}
);
unicode = 1B19C;
},
{
glyphname = u1B19D;
lastChange = "2020-03-18 15:51:28 +0000";
layers = (
{
layerId = "CFFEBDE4-599A-46B2-9328-D96E42CD9C81";
paths = (
{
closed = 1;
nodes = (
"343 548 LINE",
"293 306 OFFCURVE",
"220 125 OFFCURVE",
"92 -78 CURVE",
"163 -122 LINE",
"295 91 OFFCURVE",
"357 276 OFFCURVE",
"413 524 CURVE"
);
},
{
closed = 1;
nodes = (
"140 410 LINE",
"270 187 OFFCURVE",
"317 5 OFFCURVE",
"352 -293 CURVE",
"438 -282 LINE",
"393 47 OFFCURVE",
"331 255 OFFCURVE",
"194 484 CURVE"
);
},
{
closed = 1;
nodes = (
"230 939 LINE",
"190 615 OFFCURVE",
"126 420 OFFCURVE",
"20 219 CURVE",
"95 178 LINE",
"203 397 OFFCURVE",
"262 581 OFFCURVE",
"312 931 CURVE"
);
},
{
closed = 1;
nodes = (
"223 722 LINE",
"277 621 OFFCURVE",
"309 563 OFFCURVE",
"337 506 CURVE SMOOTH",
"378 422 OFFCURVE",
"409 356 OFFCURVE",
"438 279 CURVE",
"515 318 LINE",
"441 494 OFFCURVE",
"368 642 OFFCURVE",
"270 780 CURVE"
);
}
);
vertOrigin = 90;
vertWidth = 1312;
width = 634;
}
);
unicode = 1B19D;
},
{
glyphname = u1B19E;
lastChange = "2020-03-18 15:51:28 +0000";
layers = (
{
layerId = "CFFEBDE4-599A-46B2-9328-D96E42CD9C81";
paths = (
{
closed = 1;
nodes = (
"294 939 LINE",
"212 703 OFFCURVE",
"134 573 OFFCURVE",
"15 423 CURVE",
"79 370 LINE",
"210 531 OFFCURVE",
"289 679 OFFCURVE",
"378 915 CURVE"
);
},
{
closed = 1;
nodes = (
"405 597 LINE",
"302 387 OFFCURVE",
"225 272 OFFCURVE",
"60 103 CURVE",
"117 44 LINE",
"264 191 OFFCURVE",
"369 335 OFFCURVE",
"477 556 CURVE"
);
},
{
closed = 1;
nodes = (
"247 -293 LINE",
"347 -185 OFFCURVE",
"410 -81 OFFCURVE",
"476 79 CURVE",
"398 117 LINE",
"338 -31 OFFCURVE",
"301 -90 OFFCURVE",
"219 -222 CURVE",
"244 -227 LINE",
"260 -97 OFFCURVE",
"268 -10 OFFCURVE",
"268 134 CURVE SMOOTH",
"268 294 OFFCURVE",
"256 456 OFFCURVE",
"219 670 CURVE",
"150 576 LINE",
"175 421 OFFCURVE",
"184 302 OFFCURVE",
"184 129 CURVE SMOOTH",
"184 -45 OFFCURVE",
"177 -127 OFFCURVE",
"158 -266 CURVE"
);
}
);
vertOrigin = 90;
vertWidth = 1312;
width = 606;
}
);
unicode = 1B19E;
},
{
glyphname = u1B19F;
lastChange = "2020-03-18 15:51:28 +0000";
layers = (
{
layerId = "CFFEBDE4-599A-46B2-9328-D96E42CD9C81";
paths = (
{
closed = 1;
nodes = (
"17 243 LINE",
"42 152 OFFCURVE",
"58 65 OFFCURVE",
"70 -43 CURVE",
"145 -31 LINE",
"134 81 OFFCURVE",
"117 171 OFFCURVE",
"90 264 CURVE"
);
},
{
closed = 1;
nodes = (
"80 411 LINE",
"195 263 OFFCURVE",
"307 95 OFFCURVE",
"415 -90 CURVE",
"487 -48 LINE",
"373 145 OFFCURVE",
"255 323 OFFCURVE",
"129 489 CURVE",
"139 415 LINE",
"216 580 OFFCURVE",
"274 721 OFFCURVE",
"318 925 CURVE",
"235 939 LINE",
"192 743 OFFCURVE",
"141 626 OFFCURVE",
"80 482 CURVE"
);
},
{
closed = 1;
nodes = (
"282 657 OFFCURVE",
"301 572 OFFCURVE",
"301 442 CURVE SMOOTH",
"301 258 OFFCURVE",
"245 61 OFFCURVE",
"84 -256 CURVE",
"157 -293 LINE",
"323 20 OFFCURVE",
"387 248 OFFCURVE",
"387 442 CURVE SMOOTH",
"387 591 OFFCURVE",
"362 688 OFFCURVE",
"262 853 CURVE",
"227 760 LINE"
);
}
);
vertOrigin = 90;
vertWidth = 1312;
width = 545;
}
);
unicode = 1B19F;
},
{
glyphname = u1B1A0;
lastChange = "2020-03-18 15:51:28 +0000";
layers = (
{
background = {
paths = (
{
closed = 1;
nodes = (
"369 714 OFFCURVE",
"346 556 OFFCURVE",
"307 408 CURVE",
"301 377 LINE",
"237 123 OFFCURVE",
"190 -52 OFFCURVE",
"118 -270 CURVE",
"205 -293 LINE",
"264 -121 OFFCURVE",
"301 29 OFFCURVE",
"347 246 CURVE",
"358 286 LINE",
"409 463 OFFCURVE",
"437 611 OFFCURVE",
"472 879 CURVE",
"437 879 LINE",
"469 771 OFFCURVE",
"483 677 OFFCURVE",
"495 581 CURVE",
"586 597 LINE",
"569 718 OFFCURVE",
"540 837 OFFCURVE",
"494 939 CURVE",
"396 928 LINE"
);
},
{
closed = 1;
nodes = (
"260 431 OFFCURVE",
"350 167 OFFCURVE",
"415 -133 CURVE",
"505 -108 LINE",
"430 223 OFFCURVE",
"334 474 OFFCURVE",
"210 733 CURVE",
"115 719 LINE",
"95 559 OFFCURVE",
"78 463 OFFCURVE",
"35 330 CURVE",
"118 305 LINE",
"155 426 OFFCURVE",
"172 519 OFFCURVE",
"190 674 CURVE",
"143 671 LINE"
);
}
);
};
layerId = "CFFEBDE4-599A-46B2-9328-D96E42CD9C81";
paths = (
{
closed = 1;
nodes = (
"331 299 LINE",
"414 475 OFFCURVE",
"471 638 OFFCURVE",
"497 879 CURVE",
"463 879 LINE",
"497 779 OFFCURVE",
"524 685 OFFCURVE",
"549 559 CURVE",
"636 575 LINE",
"604 728 OFFCURVE",
"573 830 OFFCURVE",
"521 939 CURVE",
"416 929 LINE",
"389 688 OFFCURVE",
"349 537 OFFCURVE",
"282 388 CURVE"
);
},
{
closed = 1;
nodes = (
"362 370 OFFCURVE",
"306 536 OFFCURVE",
"182 731 CURVE",
"96 715 LINE",
"75 537 OFFCURVE",
"55 433 OFFCURVE",
"24 294 CURVE",
"109 271 LINE",
"141 414 OFFCURVE",
"158 518 OFFCURVE",
"169 676 CURVE",
"122 673 LINE",
"234 481 OFFCURVE",
"277 351 OFFCURVE",
"277 145 CURVE SMOOTH",
"277 0 OFFCURVE",
"267 -108 OFFCURVE",
"236 -278 CURVE",
"325 -293 LINE",
"352 -130 OFFCURVE",
"362 -12 OFFCURVE",
"362 151 CURVE SMOOTH"
);
}
);
vertOrigin = 90;
vertWidth = 1312;
width = 649;
}
);
unicode = 1B1A0;
},
{
glyphname = u1B1A1;
lastChange = "2020-03-18 15:51:28 +0000";
layers = (
{
layerId = "CFFEBDE4-599A-46B2-9328-D96E42CD9C81";
paths = (
{
closed = 1;
nodes = (
"188 271 LINE",
"238 86 OFFCURVE",
"262 -78 OFFCURVE",
"282 -276 CURVE",
"371 -293 LINE",
"464 -142 OFFCURVE",
"517 18 OFFCURVE",
"571 222 CURVE",
"490 245 LINE",
"448 71 OFFCURVE",
"401 -65 OFFCURVE",
"331 -222 CURVE",
"358 -224 LINE",
"344 -42 OFFCURVE",
"320 113 OFFCURVE",
"263 302 CURVE"
);
},
{
closed = 1;
nodes = (
"346 939 LINE",
"306 586 OFFCURVE",
"219 331 OFFCURVE",
"37 -8 CURVE",
"110 -42 LINE",
"291 289 OFFCURVE",
"384 574 OFFCURVE",
"430 925 CURVE"
);
},
{
closed = 1;
nodes = (
"137 454 OFFCURVE",
"160 471 OFFCURVE",
"160 510 CURVE SMOOTH",
"160 549 OFFCURVE",
"137 566 OFFCURVE",
"109 566 CURVE SMOOTH",
"80 566 OFFCURVE",
"57 549 OFFCURVE",
"57 510 CURVE SMOOTH",
"57 471 OFFCURVE",
"80 454 OFFCURVE",
"109 454 CURVE SMOOTH"
);
}
);
vertOrigin = 90;
vertWidth = 1312;
width = 576;
}
);
unicode = 1B1A1;
},
{
glyphname = u1B1A2;
lastChange = "2020-03-18 15:51:28 +0000";
layers = (
{
layerId = "CFFEBDE4-599A-46B2-9328-D96E42CD9C81";
paths = (
{
closed = 1;
nodes = (
"304 -199 LINE",
"249 -8 OFFCURVE",
"181 171 OFFCURVE",
"73 363 CURVE",
"3 316 LINE",
"106 134 OFFCURVE",
"176 -46 OFFCURVE",
"237 -243 CURVE",
"318 -253 LINE",
"488 28 OFFCURVE",
"583 312 OFFCURVE",
"645 605 CURVE",
"563 618 LINE",
"504 333 OFFCURVE",
"403 53 OFFCURVE",
"263 -199 CURVE"
);
},
{
closed = 1;
nodes = (
"373 939 LINE",
"328 587 OFFCURVE",
"281 387 OFFCURVE",
"164 67 CURVE",
"221 -1 LINE",
"348 347 OFFCURVE",
"407 574 OFFCURVE",
"456 929 CURVE"
);
},
{
closed = 1;
nodes = (
"74 665 LINE",
"216 448 OFFCURVE",
"320 245 OFFCURVE",
"399 19 CURVE",
"456 88 LINE",
"380 317 OFFCURVE",
"285 491 OFFCURVE",
"146 713 CURVE"
);
}
);
vertOrigin = 90;
vertWidth = 1312;
width = 655;
}
);
unicode = 1B1A2;
},
{
glyphname = u1B1A3;
lastChange = "2020-03-18 15:51:28 +0000";
layers = (
{
layerId = "CFFEBDE4-599A-46B2-9328-D96E42CD9C81";
paths = (
{
closed = 1;
nodes = (
"223 -293 LINE",
"327 -143 OFFCURVE",
"386 -9 OFFCURVE",
"386 203 CURVE SMOOTH",
"386 382 OFFCURVE",
"337 534 OFFCURVE",
"238 694 CURVE",
"191 634 LINE",
"265 495 OFFCURVE",
"310 382 OFFCURVE",
"310 191 CURVE SMOOTH",
"310 14 OFFCURVE",
"263 -106 OFFCURVE",
"159 -248 CURVE"
);
},
{
closed = 1;
nodes = (
"324 939 LINE",
"237 758 OFFCURVE",
"152 644 OFFCURVE",
"20 528 CURVE",
"73 468 LINE",
"206 581 OFFCURVE",
"305 716 OFFCURVE",
"403 909 CURVE"
);
},
{
closed = 1;
nodes = (
"438 684 LINE",
"352 524 OFFCURVE",
"242 409 OFFCURVE",
"107 312 CURVE",
"152 244 LINE",
"318 374 OFFCURVE",
"415 475 OFFCURVE",
"509 648 CURVE"
);
},
{
closed = 1;
nodes = (
"89 64 LINE",
"231 -23 OFFCURVE",
"342 -116 OFFCURVE",
"433 -223 CURVE",
"489 -166 LINE",
"382 -46 OFFCURVE",
"272 41 OFFCURVE",
"135 133 CURVE"
);
}
);
vertOrigin = 90;
vertWidth = 1312;
width = 529;
}
);
unicode = 1B1A3;
},
{
glyphname = u1B1A4;
lastChange = "2020-03-18 15:51:28 +0000";
layers = (
{
layerId = "CFFEBDE4-599A-46B2-9328-D96E42CD9C81";
paths = (
{
closed = 1;
nodes = (
"190 356 OFFCURVE",
"298 239 OFFCURVE",
"370 131 CURVE",
"370 189 LINE",
"293 12 OFFCURVE",
"223 -110 OFFCURVE",
"136 -251 CURVE",
"205 -293 LINE",
"298 -146 OFFCURVE",
"370 -19 OFFCURVE",
"451 168 CURVE",
"361 294 OFFCURVE",
"254 416 OFFCURVE",
"147 528 CURVE",
"147 491 LINE",
"215 620 OFFCURVE",
"274 759 OFFCURVE",
"323 917 CURVE",
"241 939 LINE",
"193 782 OFFCURVE",
"147 661 OFFCURVE",
"60 496 CURVE"
);
},
{
closed = 1;
nodes = (
"367 614 LINE",
"276 416 OFFCURVE",
"184 265 OFFCURVE",
"74 102 CURVE",
"136 54 LINE",
"261 237 OFFCURVE",
"349 380 OFFCURVE",
"437 581 CURVE"
);
}
);
vertOrigin = 90;
vertWidth = 1312;
width = 481;
}
);
unicode = 1B1A4;
},
{
glyphname = u1B1A5;
lastChange = "2020-03-18 15:51:28 +0000";
layers = (
{
background = {
paths = (
{
closed = 1;
nodes = (
"294 939 LINE",
"235 765 OFFCURVE",
"165 639 OFFCURVE",
"57 520 CURVE",
"97 371 OFFCURVE",
"108 254 OFFCURVE",
"108 135 CURVE SMOOTH",
"108 -3 OFFCURVE",
"86 -128 OFFCURVE",
"40 -269 CURVE",
"116 -293 LINE",
"162 -143 OFFCURVE",
"188 -24 OFFCURVE",
"188 145 CURVE SMOOTH",
"188 271 OFFCURVE",
"173 388 OFFCURVE",
"135 538 CURVE",
"130 478 LINE",
"234 592 OFFCURVE",
"312 734 OFFCURVE",
"374 916 CURVE"
);
},
{
closed = 1;
nodes = (
"434 216 LINE",
"423 432 OFFCURVE",
"374 602 OFFCURVE",
"290 777 CURVE",
"247 673 LINE",
"305 540 OFFCURVE",
"340 386 OFFCURVE",
"350 204 CURVE"
);
}
);
};
layerId = "CFFEBDE4-599A-46B2-9328-D96E42CD9C81";
paths = (
{
closed = 1;
nodes = (
"436 705 LINE",
"359 528 OFFCURVE",
"280 411 OFFCURVE",
"137 276 CURVE",
"174 208 LINE",
"331 350 OFFCURVE",
"426 490 OFFCURVE",
"507 674 CURVE"
);
},
{
closed = 1;
nodes = (
"207 673 LINE",
"297 454 OFFCURVE",
"336 264 OFFCURVE",
"349 54 CURVE",
"429 62 LINE",
"419 296 OFFCURVE",
"366 495 OFFCURVE",
"265 738 CURVE"
);
},
{
closed = 1;
nodes = (
"294 939 LINE",
"229 755 OFFCURVE",
"169 645 OFFCURVE",
"56 520 CURVE",
"90 397 OFFCURVE",
"108 270 OFFCURVE",
"108 160 CURVE SMOOTH",
"108 -5 OFFCURVE",
"86 -128 OFFCURVE",
"40 -269 CURVE",
"116 -293 LINE",
"162 -152 OFFCURVE",
"188 -24 OFFCURVE",
"188 148 CURVE SMOOTH",
"188 288 OFFCURVE",
"170 416 OFFCURVE",
"130 538 CURVE",
"135 482 LINE",
"238 607 OFFCURVE",
"297 700 OFFCURVE",
"374 916 CURVE"
);
}
);
vertOrigin = 90;
vertWidth = 1312;
width = 547;
}
);
unicode = 1B1A5;
},
{
glyphname = u1B1A6;
lastChange = "2020-03-18 15:51:28 +0000";
layers = (
{
layerId = "CFFEBDE4-599A-46B2-9328-D96E42CD9C81";
paths = (
{
closed = 1;
nodes = (
"277 939 LINE",
"232 657 OFFCURVE",
"127 339 OFFCURVE",
"0 54 CURVE",
"77 18 LINE",
"220 334 OFFCURVE",
"309 623 OFFCURVE",
"363 923 CURVE"
);
},
{
closed = 1;
nodes = (
"35 784 LINE",
"199 551 OFFCURVE",
"327 331 OFFCURVE",
"454 96 CURVE",
"525 134 LINE",
"385 398 OFFCURVE",
"272 592 OFFCURVE",
"99 832 CURVE"
);
},
{
closed = 1;
nodes = (
"398 665 LINE",
"326 335 OFFCURVE",
"236 47 OFFCURVE",
"100 -254 CURVE",
"175 -293 LINE",
"309 9 OFFCURVE",
"397 301 OFFCURVE",
"482 644 CURVE"
);
},
{
closed = 1;
nodes = (
"-16 473 LINE",
"138 265 OFFCURVE",
"246 53 OFFCURVE",
"361 -198 CURVE",
"431 -161 LINE",
"306 123 OFFCURVE",
"196 312 OFFCURVE",
"47 528 CURVE"
);
}
);
vertOrigin = 90;
vertWidth = 1312;
width = 610;
}
);
unicode = 1B1A6;
},
{
glyphname = u1B1A7;
lastChange = "2020-03-18 15:51:28 +0000";
layers = (
{
background = {
paths = (
{
closed = 1;
nodes = (
"359 939 LINE",
"261 622 OFFCURVE",
"161 452 OFFCURVE",
"15 258 CURVE",
"81 208 LINE",
"240 418 OFFCURVE",
"337 601 OFFCURVE",
"439 918 CURVE"
);
},
{
closed = 1;
nodes = (
"508 202 LINE",
"399 10 OFFCURVE",
"327 -113 OFFCURVE",
"205 -240 CURVE",
"264 -293 LINE",
"397 -150 OFFCURVE",
"466 -37 OFFCURVE",
"582 164 CURVE"
);
},
{
closed = 1;
nodes = (
"412 -61 LINE",
"353 260 OFFCURVE",
"266 475 OFFCURVE",
"139 784 CURVE",
"60 746 LINE",
"196 432 OFFCURVE",
"276 209 OFFCURVE",
"335 -90 CURVE"
);
},
{
closed = 1;
nodes = (
"413 489 LINE",
"327 317 OFFCURVE",
"231 162 OFFCURVE",
"112 13 CURVE",
"176 -35 LINE",
"295 114 OFFCURVE",
"394 270 OFFCURVE",
"487 452 CURVE"
);
}
);
};
layerId = "CFFEBDE4-599A-46B2-9328-D96E42CD9C81";
paths = (
{
closed = 1;
nodes = (
"359 939 LINE",
"264 622 OFFCURVE",
"170 465 OFFCURVE",
"11 256 CURVE",
"72 206 LINE",
"247 438 OFFCURVE",
"335 604 OFFCURVE",
"437 921 CURVE"
);
},
{
closed = 1;
nodes = (
"511 202 LINE",
"402 10 OFFCURVE",
"327 -112 OFFCURVE",
"208 -240 CURVE",
"264 -293 LINE",
"394 -149 OFFCURVE",
"466 -37 OFFCURVE",
"582 164 CURVE"
);
},
{
closed = 1;
nodes = (
"177 450 LINE",
"247 271 OFFCURVE",
"301 86 OFFCURVE",
"348 -109 CURVE",
"420 -77 LINE",
"371 141 OFFCURVE",
"307 340 OFFCURVE",
"235 525 CURVE"
);
},
{
closed = 1;
nodes = (
"418 488 LINE",
"332 316 OFFCURVE",
"238 167 OFFCURVE",
"114 16 CURVE",
"175 -31 LINE",
"299 120 OFFCURVE",
"396 279 OFFCURVE",
"489 453 CURVE"
);
}
);
vertOrigin = 90;
vertWidth = 1312;
width = 632;
}
);
unicode = 1B1A7;
},
{
glyphname = u1B1A8;
lastChange = "2020-03-18 15:51:28 +0000";
layers = (
{
layerId = "CFFEBDE4-599A-46B2-9328-D96E42CD9C81";
paths = (
{
closed = 1;
nodes = (
"190 -134 OFFCURVE",
"213 -117 OFFCURVE",
"213 -78 CURVE SMOOTH",
"213 -39 OFFCURVE",
"190 -22 OFFCURVE",
"162 -22 CURVE SMOOTH",
"133 -22 OFFCURVE",
"110 -39 OFFCURVE",
"110 -78 CURVE SMOOTH",
"110 -117 OFFCURVE",
"133 -134 OFFCURVE",
"162 -134 CURVE SMOOTH"
);
},
{
closed = 1;
nodes = (
"522 199 OFFCURVE",
"545 216 OFFCURVE",
"545 255 CURVE SMOOTH",
"545 294 OFFCURVE",
"522 311 OFFCURVE",
"494 311 CURVE SMOOTH",
"465 311 OFFCURVE",
"442 294 OFFCURVE",
"442 255 CURVE SMOOTH",
"442 216 OFFCURVE",
"465 199 OFFCURVE",
"494 199 CURVE SMOOTH"
);
},
{
closed = 1;
nodes = (
"201 597 LINE",
"261 421 OFFCURVE",
"294 260 OFFCURVE",
"294 38 CURVE SMOOTH",
"294 -77 OFFCURVE",
"287 -171 OFFCURVE",
"270 -284 CURVE",
"349 -293 LINE",
"365 -178 OFFCURVE",
"374 -79 OFFCURVE",
"374 48 CURVE SMOOTH",
"374 291 OFFCURVE",
"344 458 OFFCURVE",
"261 665 CURVE"
);
},
{
closed = 1;
nodes = (
"327 939 LINE",
"247 732 OFFCURVE",
"150 575 OFFCURVE",
"20 416 CURVE",
"77 364 LINE",
"212 536 OFFCURVE",
"311 685 OFFCURVE",
"401 912 CURVE"
);
},
{
closed = 1;
nodes = (
"439 639 LINE",
"332 445 OFFCURVE",
"232 291 OFFCURVE",
"65 125 CURVE",
"116 68 LINE",
"286 231 OFFCURVE",
"389 386 OFFCURVE",
"512 597 CURVE"
);
}
);
vertOrigin = 90;
vertWidth = 1312;
width = 575;
}
);
unicode = 1B1A8;
},
{
glyphname = u1B1A9;
lastChange = "2020-03-18 15:51:28 +0000";
layers = (
{
layerId = "CFFEBDE4-599A-46B2-9328-D96E42CD9C81";
paths = (
{
closed = 1;
nodes = (
"308 151 LINE",
"303 259 OFFCURVE",
"292 351 OFFCURVE",
"269 441 CURVE",
"202 385 LINE",
"216 284 OFFCURVE",
"226 200 OFFCURVE",
"231 96 CURVE"
);
},
{
closed = 1;
nodes = (
"435 368 LINE",
"319 225 OFFCURVE",
"209 128 OFFCURVE",
"45 22 CURVE",
"88 -45 LINE",
"257 64 OFFCURVE",
"363 147 OFFCURVE",
"495 313 CURVE"
);
},
{
closed = 1;
nodes = (
"391 170 OFFCURVE",
"401 135 OFFCURVE",
"401 93 CURVE SMOOTH",
"401 9 OFFCURVE",
"330 -90 OFFCURVE",
"95 -226 CURVE",
"132 -293 LINE",
"380 -152 OFFCURVE",
"480 -50 OFFCURVE",
"480 97 CURVE SMOOTH",
"480 161 OFFCURVE",
"461 213 OFFCURVE",
"414 284 CURVE",
"359 233 LINE"
);
},
{
closed = 1;
nodes = (
"342 939 LINE",
"252 800 OFFCURVE",
"152 698 OFFCURVE",
"12 579 CURVE",
"69 517 LINE",
"207 630 OFFCURVE",
"324 745 OFFCURVE",
"415 901 CURVE"
);
},
{
closed = 1;
nodes = (
"328 755 OFFCURVE",
"351 714 OFFCURVE",
"351 657 CURVE SMOOTH",
"351 555 OFFCURVE",
"273 462 OFFCURVE",
"29 295 CURVE",
"76 223 LINE",
"324 395 OFFCURVE",
"434 529 OFFCURVE",
"434 657 CURVE SMOOTH",
"434 733 OFFCURVE",
"402 798 OFFCURVE",
"352 849 CURVE",
"288 803 LINE"
);
}
);
vertOrigin = 90;
vertWidth = 1312;
width = 515;
}
);
unicode = 1B1A9;
},
{
glyphname = u1B1AA;
lastChange = "2020-03-18 15:51:28 +0000";
layers = (
{
layerId = "CFFEBDE4-599A-46B2-9328-D96E42CD9C81";
paths = (
{
closed = 1;
nodes = (
"318 939 LINE",
"229 773 OFFCURVE",
"152 652 OFFCURVE",
"20 513 CURVE",
"83 460 LINE",
"221 605 OFFCURVE",
"307 731 OFFCURVE",
"396 900 CURVE"
);
},
{
closed = 1;
nodes = (
"334 720 OFFCURVE",
"361 673 OFFCURVE",
"361 610 CURVE SMOOTH",
"361 505 OFFCURVE",
"301 416 OFFCURVE",
"71 224 CURVE",
"126 161 LINE",
"371 362 OFFCURVE",
"447 480 OFFCURVE",
"447 610 CURVE SMOOTH",
"447 700 OFFCURVE",
"412 764 OFFCURVE",
"335 840 CURVE",
"284 773 LINE"
);
},
{
closed = 1;
nodes = (
"272 307 LINE",
"297 181 OFFCURVE",
"302 78 OFFCURVE",
"302 -51 CURVE SMOOTH",
"302 -139 OFFCURVE",
"299 -199 OFFCURVE",
"288 -284 CURVE",
"373 -293 LINE",
"384 -204 OFFCURVE",
"388 -126 OFFCURVE",
"388 -39 CURVE SMOOTH",
"388 106 OFFCURVE",
"377 228 OFFCURVE",
"342 385 CURVE"
);
},
{
closed = 1;
nodes = (
"-30 -186 OFFCURVE",
"-5 -225 OFFCURVE",
"63 -265 CURVE",
"134 -256 LINE",
"191 -178 OFFCURVE",
"215 -112 OFFCURVE",
"215 -41 CURVE SMOOTH",
"215 9 OFFCURVE",
"186 50 OFFCURVE",
"118 88 CURVE",
"44 78 LINE",
"-7 -4 OFFCURVE",
"-30 -68 OFFCURVE",
"-30 -120 CURVE SMOOTH"
);
},
{
closed = 1;
nodes = (
"71 41 LINE",
"118 5 OFFCURVE",
"135 -26 OFFCURVE",
"135 -55 CURVE SMOOTH",
"135 -98 OFFCURVE",
"118 -142 OFFCURVE",
"79 -218 CURVE",
"107 -218 LINE",
"65 -181 OFFCURVE",
"50 -155 OFFCURVE",
"50 -116 CURVE SMOOTH",
"50 -72 OFFCURVE",
"69 -24 OFFCURVE",
"106 44 CURVE"
);
}
);
vertOrigin = 90;
vertWidth = 1312;
width = 562;
}
);
unicode = 1B1AA;
},
{
glyphname = u1B1AB;
lastChange = "2020-03-18 15:51:28 +0000";
layers = (
{
layerId = "CFFEBDE4-599A-46B2-9328-D96E42CD9C81";
paths = (
{
closed = 1;
nodes = (
"236 939 LINE",
"236 396 OFFCURVE",
"228 232 OFFCURVE",
"185 8 CURVE",
"267 -7 LINE",
"315 232 OFFCURVE",
"320 386 OFFCURVE",
"320 934 CURVE"
);
},
{
closed = 1;
nodes = (
"273 540 LINE",
"328 459 OFFCURVE",
"364 373 OFFCURVE",
"397 277 CURVE",
"481 309 LINE",
"439 419 OFFCURVE",
"396 503 OFFCURVE",
"326 615 CURVE"
);
},
{
closed = 1;
nodes = (
"328 678 OFFCURVE",
"183 535 OFFCURVE",
"35 431 CURVE",
"64 236 OFFCURVE",
"78 93 OFFCURVE",
"78 -43 CURVE SMOOTH",
"78 -150 OFFCURVE",
"71 -205 OFFCURVE",
"59 -280 CURVE",
"143 -293 LINE",
"155 -222 OFFCURVE",
"161 -160 OFFCURVE",
"161 -32 CURVE SMOOTH",
"161 128 OFFCURVE",
"151 249 OFFCURVE",
"117 445 CURVE",
"97 362 LINE",
"238 465 OFFCURVE",
"374 604 OFFCURVE",
"498 776 CURVE",
"461 794 LINE",
"489 665 OFFCURVE",
"506 536 OFFCURVE",
"506 394 CURVE SMOOTH",
"506 304 OFFCURVE",
"504 240 OFFCURVE",
"498 161 CURVE",
"582 154 LINE",
"587 231 OFFCURVE",
"593 304 OFFCURVE",
"593 416 CURVE SMOOTH",
"593 542 OFFCURVE",
"577 692 OFFCURVE",
"544 835 CURVE",
"452 856 LINE"
);
}
);
vertOrigin = 90;
vertWidth = 1312;
width = 659;
}
);
unicode = 1B1AB;
},
{
glyphname = u1B1AC;
lastChange = "2020-03-18 15:51:28 +0000";
layers = (
{
layerId = "CFFEBDE4-599A-46B2-9328-D96E42CD9C81";
paths = (
{
closed = 1;
nodes = (
"150 431 LINE",
"265 270 OFFCURVE",
"375 75 OFFCURVE",
"465 -110 CURVE",
"537 -68 LINE",
"441 125 OFFCURVE",
"325 330 OFFCURVE",
"199 509 CURVE",
"209 435 LINE",
"294 600 OFFCURVE",
"335 714 OFFCURVE",
"388 925 CURVE",
"305 939 LINE",
"253 736 OFFCURVE",
"219 646 OFFCURVE",
"150 502 CURVE"
);
},
{
closed = 1;
nodes = (
"354 645 OFFCURVE",
"371 572 OFFCURVE",
"371 477 CURVE SMOOTH",
"371 253 OFFCURVE",
"293 32 OFFCURVE",
"95 -245 CURVE",
"157 -293 LINE",
"373 -6 OFFCURVE",
"457 243 OFFCURVE",
"457 477 CURVE SMOOTH",
"457 591 OFFCURVE",
"434 676 OFFCURVE",
"332 853 CURVE",
"297 760 LINE"
);
},
{
closed = 1;
nodes = (
"98 271 LINE",
"80 149 OFFCURVE",
"58 61 OFFCURVE",
"17 -44 CURVE",
"92 -73 LINE",
"134 33 OFFCURVE",
"161 133 OFFCURVE",
"179 253 CURVE"
);
},
{
closed = 1;
nodes = (
"-29 108 LINE",
"49 86 OFFCURVE",
"136 55 OFFCURVE",
"207 19 CURVE",
"238 96 LINE",
"168 133 OFFCURVE",
"77 165 OFFCURVE",
"-10 186 CURVE"
);
}
);
vertOrigin = 90;
vertWidth = 1312;
width = 590;
}
);
unicode = 1B1AC;
},
{
glyphname = u1B1AD;
lastChange = "2020-03-18 15:51:28 +0000";
layers = (
{
layerId = "CFFEBDE4-599A-46B2-9328-D96E42CD9C81";
paths = (
{
closed = 1;
nodes = (
"253 461 LINE",
"205 346 OFFCURVE",
"149 265 OFFCURVE",
"71 181 CURVE",
"129 134 LINE",
"211 220 OFFCURVE",
"266 301 OFFCURVE",
"322 428 CURVE"
);
},
{
closed = 1;
nodes = (
"318 260 LINE",
"261 147 OFFCURVE",
"200 65 OFFCURVE",
"114 -20 CURVE",
"174 -71 LINE",
"262 13 OFFCURVE",
"327 97 OFFCURVE",
"388 224 CURVE"
);
},
{
closed = 1;
nodes = (
"419 88 LINE",
"329 -51 OFFCURVE",
"251 -142 OFFCURVE",
"138 -238 CURVE",
"197 -293 LINE",
"313 -193 OFFCURVE",
"396 -98 OFFCURVE",
"489 50 CURVE"
);
},
{
closed = 1;
nodes = (
"215 939 LINE",
"175 662 OFFCURVE",
"93 504 OFFCURVE",
"-16 344 CURVE",
"50 299 LINE",
"165 465 OFFCURVE",
"245 625 OFFCURVE",
"295 928 CURVE"
);
},
{
closed = 1;
nodes = (
"221 769 LINE",
"275 685 OFFCURVE",
"317 610 OFFCURVE",
"345 553 CURVE SMOOTH",
"386 469 OFFCURVE",
"412 418 OFFCURVE",
"445 346 CURVE",
"522 385 LINE",
"448 561 OFFCURVE",
"373 689 OFFCURVE",
"268 827 CURVE"
);
}
);
vertOrigin = 90;
vertWidth = 1312;
width = 597;
}
);
unicode = 1B1AD;
},
{
glyphname = u1B1AE;
lastChange = "2020-03-18 15:51:28 +0000";
layers = (
{
layerId = "CFFEBDE4-599A-46B2-9328-D96E42CD9C81";
paths = (
{
closed = 1;
nodes = (
"395 403 LINE",
"344 249 OFFCURVE",
"294 135 OFFCURVE",
"218 26 CURVE",
"280 -20 LINE",
"363 104 OFFCURVE",
"420 218 OFFCURVE",
"470 376 CURVE"
);
},
{
closed = 1;
nodes = (
"515 190 LINE",
"448 20 OFFCURVE",
"392 -85 OFFCURVE",
"272 -250 CURVE",
"340 -293 LINE",
"456 -135 OFFCURVE",
"515 -24 OFFCURVE",
"588 159 CURVE"
);
},
{
closed = 1;
nodes = (
"230 264 LINE",
"325 438 OFFCURVE",
"391 624 OFFCURVE",
"451 925 CURVE",
"368 939 LINE",
"310 664 OFFCURVE",
"259 486 OFFCURVE",
"182 332 CURVE",
"213 330 LINE",
"179 451 OFFCURVE",
"144 534 OFFCURVE",
"97 637 CURVE",
"20 599 LINE",
"74 486 OFFCURVE",
"116 388 OFFCURVE",
"148 274 CURVE"
);
},
{
closed = 1;
nodes = (
"338 763 LINE",
"382 695 OFFCURVE",
"420 641 OFFCURVE",
"454 588 CURVE SMOOTH",
"504 509 OFFCURVE",
"545 431 OFFCURVE",
"582 358 CURVE",
"655 405 LINE",
"561 588 OFFCURVE",
"470 726 OFFCURVE",
"379 826 CURVE"
);
}
);
vertOrigin = 90;
vertWidth = 1312;
width = 715;
}
);
unicode = 1B1AE;
},
{
glyphname = u1B1AF;
lastChange = "2020-03-18 15:51:28 +0000";
layers = (
{
layerId = "CFFEBDE4-599A-46B2-9328-D96E42CD9C81";
paths = (
{
closed = 1;
nodes = (
"122 76 OFFCURVE",
"145 93 OFFCURVE",
"145 132 CURVE SMOOTH",
"145 171 OFFCURVE",
"122 188 OFFCURVE",
"94 188 CURVE SMOOTH",
"65 188 OFFCURVE",
"42 171 OFFCURVE",
"42 132 CURVE SMOOTH",
"42 93 OFFCURVE",
"65 76 OFFCURVE",
"94 76 CURVE SMOOTH"
);
},
{
closed = 1;
nodes = (
"314 715 OFFCURVE",
"337 732 OFFCURVE",
"337 771 CURVE SMOOTH",
"337 810 OFFCURVE",
"314 827 OFFCURVE",
"286 827 CURVE SMOOTH",
"257 827 OFFCURVE",
"234 810 OFFCURVE",
"234 771 CURVE SMOOTH",
"234 732 OFFCURVE",
"257 715 OFFCURVE",
"286 715 CURVE SMOOTH"
);
},
{
closed = 1;
nodes = (
"196 425 OFFCURVE",
"241 274 OFFCURVE",
"241 97 CURVE SMOOTH",
"241 -40 OFFCURVE",
"224 -135 OFFCURVE",
"167 -264 CURVE",
"245 -293 LINE",
"302 -165 OFFCURVE",
"325 -54 OFFCURVE",
"325 109 CURVE SMOOTH",
"325 294 OFFCURVE",
"277 465 OFFCURVE",
"175 639 CURVE",
"100 595 LINE"
);
},
{
closed = 1;
nodes = (
"432 634 OFFCURVE",
"354 475 OFFCURVE",
"231 316 CURVE",
"266 231 LINE",
"424 427 OFFCURVE",
"508 577 OFFCURVE",
"558 927 CURVE",
"474 939 LINE"
);
},
{
closed = 1;
nodes = (
"394 539 LINE",
"443 403 OFFCURVE",
"474 264 OFFCURVE",
"493 94 CURVE",
"580 106 LINE",
"563 303 OFFCURVE",
"520 450 OFFCURVE",
"449 603 CURVE"
);
}
);
vertOrigin = 90;
vertWidth = 1312;
width = 637;
}
);
unicode = 1B1AF;
},
{
glyphname = u1B1B0;
lastChange = "2020-03-18 15:51:28 +0000";
layers = (
{
layerId = "CFFEBDE4-599A-46B2-9328-D96E42CD9C81";
paths = (
{
closed = 1;
nodes = (
"507 619 OFFCURVE",
"530 636 OFFCURVE",
"530 675 CURVE SMOOTH",
"530 714 OFFCURVE",
"507 731 OFFCURVE",
"479 731 CURVE SMOOTH",
"450 731 OFFCURVE",
"427 714 OFFCURVE",
"427 675 CURVE SMOOTH",
"427 636 OFFCURVE",
"450 619 OFFCURVE",
"479 619 CURVE SMOOTH"
);
},
{
closed = 1;
nodes = (
"98 407 OFFCURVE",
"121 424 OFFCURVE",
"121 463 CURVE SMOOTH",
"121 502 OFFCURVE",
"98 519 OFFCURVE",
"70 519 CURVE SMOOTH",
"41 519 OFFCURVE",
"18 502 OFFCURVE",
"18 463 CURVE SMOOTH",
"18 424 OFFCURVE",
"41 407 OFFCURVE",
"70 407 CURVE SMOOTH"
);
},
{
closed = 1;
nodes = (
"283 338 LINE",
"301 213 OFFCURVE",
"307 118 OFFCURVE",
"307 31 CURVE SMOOTH",
"307 -75 OFFCURVE",
"299 -174 OFFCURVE",
"279 -283 CURVE",
"363 -293 LINE",
"384 -176 OFFCURVE",
"391 -76 OFFCURVE",
"391 41 CURVE SMOOTH",
"391 124 OFFCURVE",
"385 225 OFFCURVE",
"359 350 CURVE"
);
},
{
closed = 1;
nodes = (
"290 939 LINE",
"264 642 OFFCURVE",
"208 389 OFFCURVE",
"83 167 CURVE",
"154 122 LINE",
"279 352 OFFCURVE",
"343 615 OFFCURVE",
"374 933 CURVE"
);
},
{
closed = 1;
nodes = (
"220 570 OFFCURVE",
"334 469 OFFCURVE",
"477 322 CURVE",
"530 384 LINE",
"371 542 OFFCURVE",
"270 627 OFFCURVE",
"54 728 CURVE",
"20 655 LINE"
);
}
);
vertOrigin = 90;
vertWidth = 1312;
width = 590;
}
);
unicode = 1B1B0;
},
{
glyphname = u1B1B1;
lastChange = "2020-03-18 15:51:28 +0000";
layers = (
{
layerId = "CFFEBDE4-599A-46B2-9328-D96E42CD9C81";
paths = (
{
closed = 1;
nodes = (
"474 545 LINE",
"427 350 OFFCURVE",
"378 194 OFFCURVE",
"292 39 CURVE",
"335 43 LINE",
"293 297 OFFCURVE",
"231 567 OFFCURVE",
"128 808 CURVE",
"52 776 LINE",
"154 543 OFFCURVE",
"212 294 OFFCURVE",
"260 18 CURVE",
"353 0 LINE",
"449 157 OFFCURVE",
"506 320 OFFCURVE",
"559 525 CURVE"
);
},
{
closed = 1;
nodes = (
"309 448 LINE",
"397 303 OFFCURVE",
"455 176 OFFCURVE",
"502 36 CURVE",
"574 61 LINE",
"520 236 OFFCURVE",
"463 346 OFFCURVE",
"373 490 CURVE"
);
},
{
closed = 1;
nodes = (
"291 939 LINE",
"240 653 OFFCURVE",
"162 468 OFFCURVE",
"30 262 CURVE",
"95 218 LINE",
"233 432 OFFCURVE",
"304 614 OFFCURVE",
"370 925 CURVE"
);
},
{
closed = 1;
nodes = (
"64 94 LINE",
"105 -43 OFFCURVE",
"129 -153 OFFCURVE",
"143 -293 CURVE",
"219 -283 LINE",
"205 -132 OFFCURVE",
"179 -1 OFFCURVE",
"136 119 CURVE"
);
}
);
vertOrigin = 90;
vertWidth = 1312;
width = 608;
}
);
unicode = 1B1B1;
},
{
glyphname = u1B1B2;
lastChange = "2020-03-18 15:51:28 +0000";
layers = (
{
layerId = "CFFEBDE4-599A-46B2-9328-D96E42CD9C81";
paths = (
{
closed = 1;
nodes = (
"303 338 LINE",
"321 213 OFFCURVE",
"327 118 OFFCURVE",
"327 31 CURVE SMOOTH",
"327 -75 OFFCURVE",
"319 -174 OFFCURVE",
"299 -283 CURVE",
"383 -293 LINE",
"404 -176 OFFCURVE",
"411 -76 OFFCURVE",
"411 41 CURVE SMOOTH",
"411 124 OFFCURVE",
"405 225 OFFCURVE",
"379 350 CURVE"
);
},
{
closed = 1;
nodes = (
"300 939 LINE",
"274 642 OFFCURVE",
"208 455 OFFCURVE",
"103 253 CURVE",
"177 212 LINE",
"282 422 OFFCURVE",
"353 615 OFFCURVE",
"384 933 CURVE"
);
},
{
closed = 1;
nodes = (
"220 570 OFFCURVE",
"334 469 OFFCURVE",
"477 322 CURVE",
"530 384 LINE",
"371 542 OFFCURVE",
"270 627 OFFCURVE",
"54 728 CURVE",
"20 655 LINE"
);
},
{
closed = 1;
nodes = (
"10 -186 OFFCURVE",
"35 -225 OFFCURVE",
"103 -265 CURVE",
"174 -256 LINE",
"231 -178 OFFCURVE",
"255 -112 OFFCURVE",
"255 -41 CURVE SMOOTH",
"255 9 OFFCURVE",
"226 50 OFFCURVE",
"158 88 CURVE",
"84 78 LINE",
"33 -4 OFFCURVE",
"10 -68 OFFCURVE",
"10 -120 CURVE SMOOTH"
);
},
{
closed = 1;
nodes = (
"111 41 LINE",
"158 5 OFFCURVE",
"175 -26 OFFCURVE",
"175 -55 CURVE SMOOTH",
"175 -98 OFFCURVE",
"158 -142 OFFCURVE",
"119 -218 CURVE",
"147 -218 LINE",
"105 -181 OFFCURVE",
"90 -155 OFFCURVE",
"90 -116 CURVE SMOOTH",
"90 -72 OFFCURVE",
"109 -24 OFFCURVE",
"146 44 CURVE"
);
}
);
vertOrigin = 90;
vertWidth = 1312;
width = 632;
}
);
unicode = 1B1B2;
},
{
glyphname = u1B1B3;
lastChange = "2020-03-18 15:51:28 +0000";
layers = (
{
layerId = "CFFEBDE4-599A-46B2-9328-D96E42CD9C81";
paths = (
{
closed = 1;
nodes = (
"517 152 OFFCURVE",
"540 169 OFFCURVE",
"540 208 CURVE SMOOTH",
"540 247 OFFCURVE",
"517 264 OFFCURVE",
"489 264 CURVE SMOOTH",
"460 264 OFFCURVE",
"437 247 OFFCURVE",
"437 208 CURVE SMOOTH",
"437 169 OFFCURVE",
"460 152 OFFCURVE",
"489 152 CURVE SMOOTH"
);
},
{
closed = 1;
nodes = (
"157 -145 OFFCURVE",
"180 -128 OFFCURVE",
"180 -89 CURVE SMOOTH",
"180 -50 OFFCURVE",
"157 -33 OFFCURVE",
"129 -33 CURVE SMOOTH",
"100 -33 OFFCURVE",
"77 -50 OFFCURVE",
"77 -89 CURVE SMOOTH",
"77 -128 OFFCURVE",
"100 -145 OFFCURVE",
"129 -145 CURVE SMOOTH"
);
},
{
closed = 1;
nodes = (
"318 939 LINE",
"242 744 OFFCURVE",
"152 609 OFFCURVE",
"20 453 CURVE",
"83 400 LINE",
"221 562 OFFCURVE",
"320 702 OFFCURVE",
"401 911 CURVE"
);
},
{
closed = 1;
nodes = (
"331 634 OFFCURVE",
"351 593 OFFCURVE",
"351 530 CURVE SMOOTH",
"351 450 OFFCURVE",
"291 335 OFFCURVE",
"61 134 CURVE",
"116 71 LINE",
"352 282 OFFCURVE",
"437 425 OFFCURVE",
"437 530 CURVE SMOOTH",
"437 620 OFFCURVE",
"409 678 OFFCURVE",
"315 760 CURVE",
"264 693 LINE"
);
},
{
closed = 1;
nodes = (
"242 249 LINE",
"267 123 OFFCURVE",
"272 40 OFFCURVE",
"272 -51 CURVE SMOOTH",
"272 -139 OFFCURVE",
"269 -199 OFFCURVE",
"258 -284 CURVE",
"343 -293 LINE",
"354 -204 OFFCURVE",
"358 -126 OFFCURVE",
"358 -39 CURVE SMOOTH",
"358 68 OFFCURVE",
"347 170 OFFCURVE",
"312 327 CURVE"
);
}
);
vertOrigin = 90;
vertWidth = 1312;
width = 580;
}
);
unicode = 1B1B3;
},
{
glyphname = u1B1B4;
lastChange = "2020-03-18 15:51:28 +0000";
layers = (
{
layerId = "CFFEBDE4-599A-46B2-9328-D96E42CD9C81";
paths = (
{
closed = 1;
nodes = (
"300 375 OFFCURVE",
"238 224 OFFCURVE",
"158 80 CURVE",
"222 12 LINE",
"312 174 OFFCURVE",
"367 301 OFFCURVE",
"425 479 CURVE",
"387 484 LINE",
"420 385 OFFCURVE",
"442 290 OFFCURVE",
"464 165 CURVE",
"489 271 LINE",
"410 77 OFFCURVE",
"356 -31 OFFCURVE",
"277 -158 CURVE",
"309 -183 LINE",
"254 8 OFFCURVE",
"193 158 OFFCURVE",
"107 340 CURVE",
"96 239 LINE",
"202 479 OFFCURVE",
"262 647 OFFCURVE",
"328 919 CURVE",
"245 939 LINE",
"181 675 OFFCURVE",
"125 519 OFFCURVE",
"30 301 CURVE",
"124 99 OFFCURVE",
"180 -40 OFFCURVE",
"241 -235 CURVE",
"320 -243 LINE",
"413 -101 OFFCURVE",
"482 26 OFFCURVE",
"550 195 CURVE",
"528 326 OFFCURVE",
"502 433 OFFCURVE",
"462 560 CURVE",
"362 571 LINE"
);
}
);
vertOrigin = 90;
vertWidth = 1312;
width = 620;
}
);
unicode = 1B1B4;
},
{
glyphname = u1B1B5;
lastChange = "2020-03-18 15:51:28 +0000";
layers = (
{
layerId = "CFFEBDE4-599A-46B2-9328-D96E42CD9C81";
paths = (
{
closed = 1;
nodes = (
"506 124 OFFCURVE",
"529 141 OFFCURVE",
"529 180 CURVE SMOOTH",
"529 219 OFFCURVE",
"506 236 OFFCURVE",
"478 236 CURVE SMOOTH",
"449 236 OFFCURVE",
"426 219 OFFCURVE",
"426 180 CURVE SMOOTH",
"426 141 OFFCURVE",
"449 124 OFFCURVE",
"478 124 CURVE SMOOTH"
);
},
{
closed = 1;
nodes = (
"506 435 OFFCURVE",
"529 452 OFFCURVE",
"529 491 CURVE SMOOTH",
"529 530 OFFCURVE",
"506 547 OFFCURVE",
"478 547 CURVE SMOOTH",
"449 547 OFFCURVE",
"426 530 OFFCURVE",
"426 491 CURVE SMOOTH",
"426 452 OFFCURVE",
"449 435 OFFCURVE",
"478 435 CURVE SMOOTH"
);
},
{
closed = 1;
nodes = (
"176 -293 LINE",
"293 -107 OFFCURVE",
"355 42 OFFCURVE",
"355 263 CURVE SMOOTH",
"355 458 OFFCURVE",
"281 671 OFFCURVE",
"122 851 CURVE",
"58 800 LINE",
"215 626 OFFCURVE",
"275 440 OFFCURVE",
"275 260 CURVE SMOOTH",
"275 66 OFFCURVE",
"224 -84 OFFCURVE",
"107 -255 CURVE"
);
},
{
closed = 1;
nodes = (
"341 939 LINE",
"261 756 OFFCURVE",
"180 641 OFFCURVE",
"30 519 CURVE",
"82 457 LINE",
"245 597 OFFCURVE",
"332 710 OFFCURVE",
"411 905 CURVE"
);
},
{
closed = 1;
nodes = (
"46 40 LINE",
"198 -26 OFFCURVE",
"332 -117 OFFCURVE",
"433 -206 CURVE",
"483 -144 LINE",
"366 -44 OFFCURVE",
"246 40 OFFCURVE",
"85 113 CURVE"
);
}
);
vertOrigin = 90;
vertWidth = 1312;
width = 559;
}
);
unicode = 1B1B5;
},
{
glyphname = u1B1B6;
lastChange = "2020-03-18 15:51:28 +0000";
layers = (
{
background = {
paths = (
{
closed = 1;
nodes = (
"304 -199 LINE",
"249 -8 OFFCURVE",
"181 171 OFFCURVE",
"73 363 CURVE",
"3 316 LINE",
"106 134 OFFCURVE",
"176 -46 OFFCURVE",
"237 -243 CURVE",
"318 -253 LINE",
"488 28 OFFCURVE",
"583 312 OFFCURVE",
"645 605 CURVE",
"563 618 LINE",
"504 333 OFFCURVE",
"403 53 OFFCURVE",
"263 -199 CURVE"
);
},
{
closed = 1;
nodes = (
"373 939 LINE",
"328 587 OFFCURVE",
"281 387 OFFCURVE",
"164 67 CURVE",
"221 -1 LINE",
"348 347 OFFCURVE",
"407 574 OFFCURVE",
"456 929 CURVE"
);
},
{
closed = 1;
nodes = (
"74 665 LINE",
"216 448 OFFCURVE",
"320 245 OFFCURVE",
"399 19 CURVE",
"456 88 LINE",
"380 317 OFFCURVE",
"285 491 OFFCURVE",
"146 713 CURVE"
);
}
);
};
layerId = "CFFEBDE4-599A-46B2-9328-D96E42CD9C81";
paths = (
{
closed = 1;
nodes = (
"342 -54 LINE",
"488 211 OFFCURVE",
"562 392 OFFCURVE",
"633 724 CURVE",
"545 743 LINE",
"484 441 OFFCURVE",
"417 263 OFFCURVE",
"312 57 CURVE"
);
},
{
closed = 1;
nodes = (
"374 939 LINE",
"332 685 OFFCURVE",
"286 477 OFFCURVE",
"187 301 CURVE",
"244 243 LINE",
"370 454 OFFCURVE",
"411 664 OFFCURVE",
"458 929 CURVE"
);
},
{
closed = 1;
nodes = (
"121 768 LINE",
"261 591 OFFCURVE",
"344 435 OFFCURVE",
"423 251 CURVE",
"478 320 LINE",
"403 491 OFFCURVE",
"320 655 OFFCURVE",
"186 822 CURVE"
);
},
{
closed = 1;
nodes = (
"281 -130 OFFCURVE",
"263 -182 OFFCURVE",
"208 -182 CURVE SMOOTH",
"159 -182 OFFCURVE",
"137 -154 OFFCURVE",
"137 -115 CURVE SMOOTH",
"137 -86 OFFCURVE",
"143 -65 OFFCURVE",
"166 -30 CURVE",
"91 3 LINE",
"63 -40 OFFCURVE",
"51 -80 OFFCURVE",
"51 -123 CURVE SMOOTH",
"51 -208 OFFCURVE",
"102 -266 OFFCURVE",
"200 -266 CURVE SMOOTH",
"312 -266 OFFCURVE",
"365 -182 OFFCURVE",
"365 -60 CURVE SMOOTH",
"365 94 OFFCURVE",
"288 315 OFFCURVE",
"116 572 CURVE",
"47 524 LINE",
"217 263 OFFCURVE",
"281 69 OFFCURVE",
"281 -69 CURVE SMOOTH"
);
}
);
vertOrigin = 90;
vertWidth = 1312;
width = 643;
}
);
unicode = 1B1B6;
},
{
glyphname = u1B1B7;
lastChange = "2020-03-18 15:51:28 +0000";
layers = (
{
layerId = "CFFEBDE4-599A-46B2-9328-D96E42CD9C81";
paths = (
{
closed = 1;
nodes = (
"473 939 LINE",
"378 766 OFFCURVE",
"297 649 OFFCURVE",
"200 550 CURVE",
"237 554 LINE",
"230 635 OFFCURVE",
"217 700 OFFCURVE",
"185 786 CURVE",
"105 763 LINE",
"136 668 OFFCURVE",
"154 603 OFFCURVE",
"167 514 CURVE",
"248 490 LINE",
"373 610 OFFCURVE",
"460 718 OFFCURVE",
"557 898 CURVE"
);
},
{
closed = 1;
nodes = (
"256 273 LINE",
"414 397 OFFCURVE",
"494 486 OFFCURVE",
"614 676 CURVE",
"537 718 LINE",
"440 556 OFFCURVE",
"357 459 OFFCURVE",
"205 346 CURVE"
);
},
{
closed = 1;
nodes = (
"156 179 LINE",
"150 293 OFFCURVE",
"130 388 OFFCURVE",
"95 501 CURVE",
"15 477 LINE",
"46 376 OFFCURVE",
"67 279 OFFCURVE",
"73 174 CURVE"
);
},
{
closed = 1;
nodes = (
"501 -287 LINE",
"501 -76 OFFCURVE",
"489 58 OFFCURVE",
"439 216 CURVE",
"364 181 LINE",
"398 16 OFFCURVE",
"407 -94 OFFCURVE",
"407 -293 CURVE"
);
},
{
closed = 1;
nodes = (
"258 -186 LINE",
"405 -120 OFFCURVE",
"533 -34 OFFCURVE",
"657 78 CURVE",
"595 145 LINE",
"466 24 OFFCURVE",
"377 -34 OFFCURVE",
"224 -105 CURVE"
);
},
{
closed = 1;
nodes = (
"521 343 OFFCURVE",
"471 255 OFFCURVE",
"200 109 CURVE",
"240 31 LINE",
"553 203 OFFCURVE",
"608 304 OFFCURVE",
"608 445 CURVE SMOOTH",
"608 515 OFFCURVE",
"578 588 OFFCURVE",
"540 637 CURVE",
"494 569 LINE",
"509 531 OFFCURVE",
"521 488 OFFCURVE",
"521 443 CURVE"
);
}
);
vertOrigin = 90;
vertWidth = 1312;
width = 700;
}
);
unicode = 1B1B7;
},
{
glyphname = u1B1B8;
lastChange = "2020-03-18 15:51:28 +0000";
layers = (
{
layerId = "CFFEBDE4-599A-46B2-9328-D96E42CD9C81";
paths = (
{
closed = 1;
nodes = (
"57 161 OFFCURVE",
"80 178 OFFCURVE",
"80 217 CURVE SMOOTH",
"80 256 OFFCURVE",
"57 273 OFFCURVE",
"29 273 CURVE SMOOTH",
"0 273 OFFCURVE",
"-23 256 OFFCURVE",
"-23 217 CURVE SMOOTH",
"-23 178 OFFCURVE",
"0 161 OFFCURVE",
"29 161 CURVE SMOOTH"
);
},
{
closed = 1;
nodes = (
"135 -103 OFFCURVE",
"158 -86 OFFCURVE",
"158 -47 CURVE SMOOTH",
"158 -8 OFFCURVE",
"135 9 OFFCURVE",
"107 9 CURVE SMOOTH",
"80 9 OFFCURVE",
"55 -8 OFFCURVE",
"55 -47 CURVE SMOOTH",
"55 -86 OFFCURVE",
"78 -103 OFFCURVE",
"107 -103 CURVE SMOOTH"
);
},
{
closed = 1;
nodes = (
"286 939 LINE",
"232 718 OFFCURVE",
"175 564 OFFCURVE",
"58 384 CURVE",
"127 341 LINE",
"240 516 OFFCURVE",
"302 683 OFFCURVE",
"367 921 CURVE"
);
},
{
closed = 1;
nodes = (
"35 786 LINE",
"240 469 OFFCURVE",
"342 158 OFFCURVE",
"356 -293 CURVE",
"437 -283 LINE",
"423 207 OFFCURVE",
"295 527 OFFCURVE",
"101 831 CURVE"
);
},
{
closed = 1;
nodes = (
"403 667 LINE",
"325 435 OFFCURVE",
"255 285 OFFCURVE",
"147 122 CURVE",
"211 77 LINE",
"318 239 OFFCURVE",
"398 396 OFFCURVE",
"478 636 CURVE"
);
}
);
vertOrigin = 90;
vertWidth = 1312;
width = 549;
}
);
unicode = 1B1B8;
},
{
glyphname = u1B1B9;
lastChange = "2020-03-18 15:51:28 +0000";
layers = (
{
layerId = "CFFEBDE4-599A-46B2-9328-D96E42CD9C81";
paths = (
{
closed = 1;
nodes = (
"392 939 LINE",
"316 674 OFFCURVE",
"241 508 OFFCURVE",
"83 328 CURVE",
"149 278 LINE",
"289 450 OFFCURVE",
"392 650 OFFCURVE",
"470 920 CURVE"
);
},
{
closed = 1;
nodes = (
"483 471 LINE",
"414 328 OFFCURVE",
"334 193 OFFCURVE",
"238 93 CURVE",
"293 38 LINE",
"388 137 OFFCURVE",
"468 262 OFFCURVE",
"552 431 CURVE"
);
},
{
closed = 1;
nodes = (
"425 212 LINE",
"369 419 OFFCURVE",
"292 601 OFFCURVE",
"167 808 CURVE",
"98 767 LINE",
"223 557 OFFCURVE",
"301 366 OFFCURVE",
"357 175 CURVE"
);
},
{
closed = 1;
nodes = (
"130 39 LINE",
"182 -60 OFFCURVE",
"200 -108 OFFCURVE",
"242 -225 CURVE",
"320 -194 LINE",
"268 -60 OFFCURVE",
"238 -9 OFFCURVE",
"168 93 CURVE"
);
},
{
closed = 1;
nodes = (
"108 174 LINE",
"94 25 OFFCURVE",
"63 -122 OFFCURVE",
"10 -272 CURVE",
"87 -293 LINE",
"140 -129 OFFCURVE",
"173 29 OFFCURVE",
"186 168 CURVE"
);
}
);
vertOrigin = 90;
vertWidth = 1312;
width = 586;
}
);
unicode = 1B1B9;
},
{
glyphname = u1B1BA;
lastChange = "2020-03-18 15:51:28 +0000";
layers = (
{
background = {
paths = (
{
closed = 1;
nodes = (
"190 356 OFFCURVE",
"298 239 OFFCURVE",
"370 131 CURVE",
"370 189 LINE",
"293 12 OFFCURVE",
"223 -110 OFFCURVE",
"136 -251 CURVE",
"205 -293 LINE",
"298 -146 OFFCURVE",
"370 -19 OFFCURVE",
"451 168 CURVE",
"361 294 OFFCURVE",
"254 416 OFFCURVE",
"147 528 CURVE",
"147 491 LINE",
"215 620 OFFCURVE",
"274 759 OFFCURVE",
"323 917 CURVE",
"241 939 LINE",
"193 782 OFFCURVE",
"147 661 OFFCURVE",
"60 496 CURVE"
);
},
{
closed = 1;
nodes = (
"367 614 LINE",
"276 416 OFFCURVE",
"184 265 OFFCURVE",
"74 102 CURVE",
"136 54 LINE",
"261 237 OFFCURVE",
"349 380 OFFCURVE",
"437 581 CURVE"
);
}
);
};
layerId = "CFFEBDE4-599A-46B2-9328-D96E42CD9C81";
paths = (
{
closed = 1;
nodes = (
"136 559 OFFCURVE",
"198 714 OFFCURVE",
"252 917 CURVE",
"170 939 LINE",
"120 752 OFFCURVE",
"70 607 OFFCURVE",
"-10 434 CURVE",
"22 310 OFFCURVE",
"59 195 OFFCURVE",
"100 89 CURVE",
"158 77 LINE",
"239 217 OFFCURVE",
"290 329 OFFCURVE",
"340 475 CURVE",
"304 473 LINE",
"343 374 OFFCURVE",
"372 283 OFFCURVE",
"398 163 CURVE",
"396 227 LINE",
"341 59 OFFCURVE",
"270 -78 OFFCURVE",
"169 -253 CURVE",
"234 -293 LINE",
"335 -121 OFFCURVE",
"406 11 OFFCURVE",
"473 209 CURVE",
"447 328 OFFCURVE",
"412 436 OFFCURVE",
"360 563 CURVE",
"287 556 LINE",
"229 382 OFFCURVE",
"180 273 OFFCURVE",
"115 152 CURVE",
"157 157 LINE",
"125 240 OFFCURVE",
"91 342 OFFCURVE",
"61 472 CURVE",
"64 398 LINE"
);
}
);
vertOrigin = 90;
vertWidth = 1312;
width = 553;
}
);
unicode = 1B1BA;
},
{
glyphname = u1B1BB;
lastChange = "2020-03-18 15:51:28 +0000";
layers = (
{
layerId = "CFFEBDE4-599A-46B2-9328-D96E42CD9C81";
paths = (
{
closed = 1;
nodes = (
"237 869 LINE",
"291 746 OFFCURVE",
"332 626 OFFCURVE",
"364 492 CURVE",
"380 602 LINE",
"309 444 OFFCURVE",
"249 351 OFFCURVE",
"170 257 CURVE",
"204 173 LINE",
"294 271 OFFCURVE",
"365 386 OFFCURVE",
"436 522 CURVE",
"398 681 OFFCURVE",
"355 803 OFFCURVE",
"292 929 CURVE",
"212 939 LINE",
"151 793 OFFCURVE",
"103 705 OFFCURVE",
"30 597 CURVE",
"118 359 OFFCURVE",
"148 157 OFFCURVE",
"148 0 CURVE SMOOTH",
"148 -116 OFFCURVE",
"142 -202 OFFCURVE",
"128 -283 CURVE",
"207 -293 LINE",
"222 -196 OFFCURVE",
"228 -128 OFFCURVE",
"228 11 CURVE SMOOTH",
"228 180 OFFCURVE",
"190 366 OFFCURVE",
"112 611 CURVE",
"90 539 LINE",
"168 655 OFFCURVE",
"219 744 OFFCURVE",
"271 875 CURVE"
);
},
{
closed = 1;
nodes = (
"302 769 LINE",
"231 613 OFFCURVE",
"189 539 OFFCURVE",
"108 434 CURVE",
"148 366 LINE",
"234 473 OFFCURVE",
"290 558 OFFCURVE",
"350 698 CURVE"
);
}
);
vertOrigin = 90;
vertWidth = 1312;
width = 476;
}
);
unicode = 1B1BB;
},
{
glyphname = u1B1BC;
lastChange = "2020-03-18 15:51:28 +0000";
layers = (
{
layerId = "CFFEBDE4-599A-46B2-9328-D96E42CD9C81";
paths = (
{
closed = 1;
nodes = (
"365 -263 LINE",
"448 -182 OFFCURVE",
"521 -100 OFFCURVE",
"593 14 CURVE",
"575 110 OFFCURVE",
"561 163 OFFCURVE",
"528 257 CURVE",
"459 275 LINE",
"391 158 OFFCURVE",
"318 64 OFFCURVE",
"225 -29 CURVE",
"262 -122 OFFCURVE",
"280 -175 OFFCURVE",
"300 -251 CURVE"
);
},
{
closed = 1;
nodes = (
"364 -208 LINE",
"346 -127 OFFCURVE",
"330 -83 OFFCURVE",
"298 -3 CURVE",
"276 -96 LINE",
"372 6 OFFCURVE",
"443 93 OFFCURVE",
"505 204 CURVE",
"459 204 LINE",
"486 123 OFFCURVE",
"497 76 OFFCURVE",
"511 0 CURVE",
"542 87 LINE",
"466 -42 OFFCURVE",
"414 -107 OFFCURVE",
"336 -186 CURVE"
);
},
{
closed = 1;
nodes = (
"329 939 LINE",
"243 685 OFFCURVE",
"162 516 OFFCURVE",
"24 338 CURVE",
"86 290 LINE",
"242 499 OFFCURVE",
"319 661 OFFCURVE",
"407 920 CURVE"
);
},
{
closed = 1;
nodes = (
"393 543 LINE",
"333 400 OFFCURVE",
"270 288 OFFCURVE",
"155 154 CURVE",
"210 99 LINE",
"318 218 OFFCURVE",
"388 340 OFFCURVE",
"463 509 CURVE"
);
},
{
closed = 1;
nodes = (
"329 285 LINE",
"295 453 OFFCURVE",
"232 619 OFFCURVE",
"126 813 CURVE",
"53 774 LINE",
"163 562 OFFCURVE",
"228 404 OFFCURVE",
"270 232 CURVE"
);
}
);
vertOrigin = 90;
vertWidth = 1312;
width = 590;
}
);
unicode = 1B1BC;
},
{
glyphname = u1B1BD;
lastChange = "2020-03-18 15:51:28 +0000";
layers = (
{
layerId = "CFFEBDE4-599A-46B2-9328-D96E42CD9C81";
paths = (
{
closed = 1;
nodes = (
"162 546 OFFCURVE",
"222 434 OFFCURVE",
"222 281 CURVE SMOOTH",
"222 143 OFFCURVE",
"186 25 OFFCURVE",
"77 -126 CURVE",
"139 -172 LINE",
"262 -16 OFFCURVE",
"308 116 OFFCURVE",
"308 291 CURVE SMOOTH",
"308 448 OFFCURVE",
"240 584 OFFCURVE",
"81 734 CURVE",
"30 672 LINE"
);
},
{
closed = 1;
nodes = (
"290 939 LINE",
"256 696 OFFCURVE",
"186 527 OFFCURVE",
"55 354 CURVE",
"120 307 LINE",
"249 484 OFFCURVE",
"332 670 OFFCURVE",
"370 928 CURVE"
);
},
{
closed = 1;
nodes = (
"307 -74 OFFCURVE",
"248 66 OFFCURVE",
"119 203 CURVE",
"64 150 LINE",
"188 15 OFFCURVE",
"235 -104 OFFCURVE",
"250 -293 CURVE",
"328 -283 LINE"
);
},
{
closed = 1;
nodes = (
"256 751 LINE",
"325 624 OFFCURVE",
"412 484 OFFCURVE",
"545 343 CURVE",
"605 404 LINE",
"477 536 OFFCURVE",
"399 655 OFFCURVE",
"315 788 CURVE"
);
},
{
closed = 1;
nodes = (
"472 484 OFFCURVE",
"496 587 OFFCURVE",
"573 712 CURVE",
"506 748 LINE",
"418 602 OFFCURVE",
"392 484 OFFCURVE",
"392 345 CURVE SMOOTH",
"392 205 OFFCURVE",
"438 79 OFFCURVE",
"547 -38 CURVE",
"611 15 LINE",
"512 130 OFFCURVE",
"472 242 OFFCURVE",
"472 356 CURVE SMOOTH"
);
}
);
vertOrigin = 90;
vertWidth = 1312;
width = 655;
}
);
unicode = 1B1BD;
},
{
color = 3;
glyphname = u1B1BE;
lastChange = "2020-03-18 16:16:04 +0000";
layers = (
{
layerId = "CFFEBDE4-599A-46B2-9328-D96E42CD9C81";
paths = (
{
closed = 1;
nodes = (
"366 826 OFFCURVE",
"372 722 OFFCURVE",
"372 611 CURVE SMOOTH",
"372 415 OFFCURVE",
"333 294 OFFCURVE",
"225 157 CURVE",
"292 109 LINE",
"414 265 OFFCURVE",
"458 406 OFFCURVE",
"458 624 CURVE SMOOTH",
"458 737 OFFCURVE",
"453 838 OFFCURVE",
"439 939 CURVE",
"354 929 LINE"
);
},
{
closed = 1;
nodes = (
"195 554 LINE",
"181 398 OFFCURVE",
"138 340 OFFCURVE",
"74 274 CURVE",
"132 223 LINE",
"203 300 OFFCURVE",
"259 379 OFFCURVE",
"273 546 CURVE"
);
},
{
closed = 1;
nodes = (
"440 186 OFFCURVE",
"464 282 OFFCURVE",
"535 396 CURVE",
"604 357 LINE",
"537 248 OFFCURVE",
"522 166 OFFCURVE",
"522 98 CURVE SMOOTH",
"522 15 OFFCURVE",
"539 -44 OFFCURVE",
"572 -97 CURVE",
"511 -135 LINE",
"466 -73 OFFCURVE",
"440 2 OFFCURVE",
"440 98 CURVE SMOOTH"
);
},
{
closed = 1;
nodes = (
"130 39 LINE",
"182 -60 OFFCURVE",
"200 -108 OFFCURVE",
"242 -225 CURVE",
"320 -194 LINE",
"268 -60 OFFCURVE",
"238 -9 OFFCURVE",
"168 93 CURVE"
);
},
{
closed = 1;
nodes = (
"108 174 LINE",
"94 25 OFFCURVE",
"63 -122 OFFCURVE",
"10 -272 CURVE",
"87 -293 LINE",
"140 -129 OFFCURVE",
"173 29 OFFCURVE",
"186 168 CURVE"
);
}
);
vertOrigin = 90;
vertWidth = 1312;
width = 654;
}
);
unicode = 1B1BE;
},
{
glyphname = u1B1BF;
lastChange = "2020-03-18 15:51:28 +0000";
layers = (
{
layerId = "CFFEBDE4-599A-46B2-9328-D96E42CD9C81";
paths = (
{
closed = 1;
nodes = (
"477 939 LINE",
"433 626 OFFCURVE",
"369 403 OFFCURVE",
"283 189 CURVE",
"331 193 LINE",
"273 305 OFFCURVE",
"232 413 OFFCURVE",
"174 554 CURVE",
"90 525 LINE",
"144 390 OFFCURVE",
"199 271 OFFCURVE",
"262 154 CURVE",
"353 154 LINE",
"458 382 OFFCURVE",
"521 612 OFFCURVE",
"563 927 CURVE"
);
},
{
closed = 1;
nodes = (
"510 271 LINE",
"433 67 OFFCURVE",
"326 -96 OFFCURVE",
"201 -244 CURVE",
"264 -293 LINE",
"386 -147 OFFCURVE",
"504 26 OFFCURVE",
"586 240 CURVE"
);
},
{
closed = 1;
nodes = (
"100 133 OFFCURVE",
"123 150 OFFCURVE",
"123 189 CURVE SMOOTH",
"123 228 OFFCURVE",
"100 245 OFFCURVE",
"72 245 CURVE SMOOTH",
"43 245 OFFCURVE",
"20 228 OFFCURVE",
"20 189 CURVE SMOOTH",
"20 150 OFFCURVE",
"43 133 OFFCURVE",
"72 133 CURVE SMOOTH"
);
},
{
closed = 1;
nodes = (
"308 605 OFFCURVE",
"331 622 OFFCURVE",
"331 661 CURVE SMOOTH",
"331 700 OFFCURVE",
"308 717 OFFCURVE",
"280 717 CURVE SMOOTH",
"251 717 OFFCURVE",
"228 700 OFFCURVE",
"228 661 CURVE SMOOTH",
"228 622 OFFCURVE",
"251 605 OFFCURVE",
"280 605 CURVE SMOOTH"
);
}
);
vertOrigin = 90;
vertWidth = 1312;
width = 626;
}
);
unicode = 1B1BF;
},
{
glyphname = u1B1C0;
lastChange = "2020-03-18 15:51:28 +0000";
layers = (
{
layerId = "CFFEBDE4-599A-46B2-9328-D96E42CD9C81";
paths = (
{
closed = 1;
nodes = (
"320 -293 LINE",
"345 -165 OFFCURVE",
"362 -41 OFFCURVE",
"362 151 CURVE SMOOTH",
"362 389 OFFCURVE",
"289 643 OFFCURVE",
"172 888 CURVE",
"102 855 LINE",
"221 594 OFFCURVE",
"280 371 OFFCURVE",
"280 142 CURVE SMOOTH",
"280 -50 OFFCURVE",
"262 -169 OFFCURVE",
"238 -282 CURVE"
);
},
{
closed = 1;
nodes = (
"348 939 LINE",
"251 753 OFFCURVE",
"161 625 OFFCURVE",
"30 459 CURVE",
"67 321 OFFCURVE",
"86 223 OFFCURVE",
"101 94 CURVE",
"173 67 LINE",
"298 194 OFFCURVE",
"410 336 OFFCURVE",
"517 489 CURVE",
"499 651 OFFCURVE",
"466 780 OFFCURVE",
"422 924 CURVE"
);
},
{
closed = 1;
nodes = (
"350 881 LINE",
"390 744 OFFCURVE",
"420 606 OFFCURVE",
"438 485 CURVE",
"462 562 LINE",
"367 414 OFFCURVE",
"255 267 OFFCURVE",
"146 156 CURVE",
"176 133 LINE",
"161 249 OFFCURVE",
"140 360 OFFCURVE",
"110 468 CURVE",
"77 394 LINE",
"199 543 OFFCURVE",
"314 704 OFFCURVE",
"390 852 CURVE"
);
}
);
vertOrigin = 90;
vertWidth = 1312;
width = 565;
}
);
unicode = 1B1C0;
},
{
glyphname = u1B1C1;
lastChange = "2020-03-18 15:51:28 +0000";
layers = (
{
layerId = "CFFEBDE4-599A-46B2-9328-D96E42CD9C81";
paths = (
{
closed = 1;
nodes = (
"122 176 OFFCURVE",
"145 193 OFFCURVE",
"145 232 CURVE SMOOTH",
"145 271 OFFCURVE",
"122 288 OFFCURVE",
"94 288 CURVE SMOOTH",
"65 288 OFFCURVE",
"42 271 OFFCURVE",
"42 232 CURVE SMOOTH",
"42 193 OFFCURVE",
"65 176 OFFCURVE",
"94 176 CURVE SMOOTH"
);
},
{
closed = 1;
nodes = (
"651 461 OFFCURVE",
"674 478 OFFCURVE",
"674 517 CURVE SMOOTH",
"674 556 OFFCURVE",
"651 573 OFFCURVE",
"623 573 CURVE SMOOTH",
"594 573 OFFCURVE",
"571 556 OFFCURVE",
"571 517 CURVE SMOOTH",
"571 478 OFFCURVE",
"594 461 OFFCURVE",
"623 461 CURVE SMOOTH"
);
},
{
closed = 1;
nodes = (
"198 477 OFFCURVE",
"241 324 OFFCURVE",
"241 147 CURVE SMOOTH",
"241 10 OFFCURVE",
"224 -135 OFFCURVE",
"167 -264 CURVE",
"245 -293 LINE",
"302 -165 OFFCURVE",
"325 -4 OFFCURVE",
"325 159 CURVE SMOOTH",
"325 344 OFFCURVE",
"277 515 OFFCURVE",
"175 689 CURVE",
"102 647 LINE"
);
},
{
closed = 1;
nodes = (
"411 634 OFFCURVE",
"345 435 OFFCURVE",
"241 276 CURVE",
"276 191 LINE",
"415 387 OFFCURVE",
"487 581 OFFCURVE",
"518 931 CURVE",
"434 939 LINE"
);
},
{
closed = 1;
nodes = (
"394 489 LINE",
"443 353 OFFCURVE",
"474 214 OFFCURVE",
"493 44 CURVE",
"580 56 LINE",
"563 253 OFFCURVE",
"520 400 OFFCURVE",
"449 553 CURVE"
);
}
);
vertOrigin = 90;
vertWidth = 1312;
width = 666;
}
);
unicode = 1B1C1;
},
{
glyphname = u1B1C2;
lastChange = "2020-03-18 15:51:28 +0000";
layers = (
{
layerId = "CFFEBDE4-599A-46B2-9328-D96E42CD9C81";
paths = (
{
closed = 1;
nodes = (
"294 939 LINE",
"212 703 OFFCURVE",
"134 573 OFFCURVE",
"15 423 CURVE",
"79 370 LINE",
"210 531 OFFCURVE",
"289 679 OFFCURVE",
"378 915 CURVE"
);
},
{
closed = 1;
nodes = (
"395 627 LINE",
"292 417 OFFCURVE",
"208 272 OFFCURVE",
"60 103 CURVE",
"117 44 LINE",
"247 191 OFFCURVE",
"359 365 OFFCURVE",
"467 586 CURVE"
);
},
{
closed = 1;
nodes = (
"268 -293 LINE",
"381 -169 OFFCURVE",
"475 2 OFFCURVE",
"548 178 CURVE",
"475 213 LINE",
"411 63 OFFCURVE",
"333 -89 OFFCURVE",
"233 -222 CURVE",
"258 -227 LINE",
"265 -118 OFFCURVE",
"268 -10 OFFCURVE",
"268 134 CURVE SMOOTH",
"268 294 OFFCURVE",
"256 456 OFFCURVE",
"219 670 CURVE",
"150 576 LINE",
"175 421 OFFCURVE",
"184 302 OFFCURVE",
"184 129 CURVE SMOOTH",
"184 -45 OFFCURVE",
"183 -155 OFFCURVE",
"176 -274 CURVE"
);
},
{
closed = 1;
nodes = (
"308 163 LINE",
"373 50 OFFCURVE",
"429 -75 OFFCURVE",
"470 -193 CURVE",
"546 -159 LINE",
"496 -27 OFFCURVE",
"441 89 OFFCURVE",
"379 202 CURVE"
);
}
);
vertOrigin = 90;
vertWidth = 1312;
width = 600;
}
);
unicode = 1B1C2;
},
{
glyphname = u1B1C3;
lastChange = "2020-03-18 15:51:28 +0000";
layers = (
{
layerId = "CFFEBDE4-599A-46B2-9328-D96E42CD9C81";
paths = (
{
closed = 1;
nodes = (
"385 870 LINE",
"447 696 OFFCURVE",
"477 527 OFFCURVE",
"477 354 CURVE SMOOTH",
"477 226 OFFCURVE",
"468 135 OFFCURVE",
"452 31 CURVE",
"531 23 LINE",
"545 135 OFFCURVE",
"555 229 OFFCURVE",
"555 327 CURVE SMOOTH",
"555 564 OFFCURVE",
"522 736 OFFCURVE",
"449 930 CURVE",
"369 939 LINE",
"251 744 OFFCURVE",
"180 657 OFFCURVE",
"45 528 CURVE",
"71 363 OFFCURVE",
"76 240 OFFCURVE",
"76 116 CURVE SMOOTH",
"76 -46 OFFCURVE",
"66 -159 OFFCURVE",
"43 -283 CURVE",
"116 -293 LINE",
"136 -163 OFFCURVE",
"149 -51 OFFCURVE",
"149 116 CURVE SMOOTH",
"149 288 OFFCURVE",
"145 387 OFFCURVE",
"119 535 CURVE",
"103 471 LINE",
"239 607 OFFCURVE",
"323 701 OFFCURVE",
"426 880 CURVE"
);
},
{
closed = 1;
nodes = (
"167 413 LINE",
"260 333 OFFCURVE",
"313 279 OFFCURVE",
"403 166 CURVE",
"457 223 LINE",
"356 348 OFFCURVE",
"306 393 OFFCURVE",
"210 474 CURVE"
);
},
{
closed = 1;
nodes = (
"319 636 LINE",
"295 433 OFFCURVE",
"250 217 OFFCURVE",
"193 25 CURVE",
"268 0 LINE",
"329 205 OFFCURVE",
"367 399 OFFCURVE",
"397 624 CURVE"
);
}
);
vertOrigin = 90;
vertWidth = 1312;
width = 615;
}
);
unicode = 1B1C3;
},
{
glyphname = u1B1C4;
lastChange = "2020-03-18 15:51:28 +0000";
layers = (
{
background = {
paths = (
{
closed = 1;
nodes = (
"56 289 LINE",
"177 99 OFFCURVE",
"250 -70 OFFCURVE",
"311 -293 CURVE",
"394 -270 LINE",
"327 -29 OFFCURVE",
"249 145 OFFCURVE",
"123 360 CURVE",
"125 289 LINE",
"225 500 OFFCURVE",
"286 679 OFFCURVE",
"334 919 CURVE",
"250 939 LINE",
"206 714 OFFCURVE",
"138 533 OFFCURVE",
"56 360 CURVE"
);
},
{
closed = 1;
nodes = (
"262 578 OFFCURVE",
"294 420 OFFCURVE",
"294 343 CURVE SMOOTH",
"294 212 OFFCURVE",
"229 80 OFFCURVE",
"64 -136 CURVE",
"124 -188 LINE",
"291 20 OFFCURVE",
"378 200 OFFCURVE",
"378 343 CURVE SMOOTH",
"378 470 OFFCURVE",
"320 637 OFFCURVE",
"85 816 CURVE",
"30 750 LINE"
);
}
);
};
layerId = "CFFEBDE4-599A-46B2-9328-D96E42CD9C81";
paths = (
{
closed = 1;
nodes = (
"56 287 LINE",
"177 99 OFFCURVE",
"256 -52 OFFCURVE",
"311 -293 CURVE",
"388 -273 LINE",
"323 -6 OFFCURVE",
"246 147 OFFCURVE",
"119 349 CURVE",
"118 290 LINE",
"216 482 OFFCURVE",
"289 672 OFFCURVE",
"329 928 CURVE",
"249 939 LINE",
"210 698 OFFCURVE",
"144 533 OFFCURVE",
"56 358 CURVE"
);
},
{
closed = 1;
nodes = (
"206 594 OFFCURVE",
"263 494 OFFCURVE",
"263 347 CURVE SMOOTH",
"263 192 OFFCURVE",
"217 71 OFFCURVE",
"66 -138 CURVE",
"125 -183 LINE",
"278 27 OFFCURVE",
"341 170 OFFCURVE",
"341 347 CURVE SMOOTH",
"341 524 OFFCURVE",
"270 644 OFFCURVE",
"77 816 CURVE",
"25 755 LINE"
);
},
{
closed = 1;
nodes = (
"386 274 OFFCURVE",
"417 204 OFFCURVE",
"512 134 CURVE",
"593 155 LINE",
"640 267 OFFCURVE",
"663 352 OFFCURVE",
"663 433 CURVE SMOOTH",
"663 514 OFFCURVE",
"623 570 OFFCURVE",
"527 645 CURVE",
"451 635 LINE",
"400 514 OFFCURVE",
"386 438 OFFCURVE",
"386 360 CURVE SMOOTH"
);
},
{
closed = 1;
nodes = (
"482 587 LINE",
"550 517 OFFCURVE",
"583 483 OFFCURVE",
"583 418 CURVE SMOOTH",
"583 361 OFFCURVE",
"566 283 OFFCURVE",
"527 184 CURVE",
"551 200 LINE",
"498 248 OFFCURVE",
"469 303 OFFCURVE",
"469 369 CURVE SMOOTH",
"469 425 OFFCURVE",
"481 485 OFFCURVE",
"516 584 CURVE"
);
}
);
vertOrigin = 90;
vertWidth = 1312;
width = 673;
}
);
unicode = 1B1C4;
},
{
glyphname = u1B1C5;
lastChange = "2020-03-18 15:51:28 +0000";
layers = (
{
layerId = "CFFEBDE4-599A-46B2-9328-D96E42CD9C81";
paths = (
{
closed = 1;
nodes = (
"206 -55 OFFCURVE",
"229 -38 OFFCURVE",
"229 1 CURVE SMOOTH",
"229 40 OFFCURVE",
"206 57 OFFCURVE",
"178 57 CURVE SMOOTH",
"149 57 OFFCURVE",
"126 40 OFFCURVE",
"126 1 CURVE SMOOTH",
"126 -38 OFFCURVE",
"149 -55 OFFCURVE",
"178 -55 CURVE SMOOTH"
);
},
{
closed = 1;
nodes = (
"467 356 OFFCURVE",
"490 373 OFFCURVE",
"490 412 CURVE SMOOTH",
"490 451 OFFCURVE",
"467 468 OFFCURVE",
"439 468 CURVE SMOOTH",
"410 468 OFFCURVE",
"387 451 OFFCURVE",
"387 412 CURVE SMOOTH",
"387 373 OFFCURVE",
"410 356 OFFCURVE",
"439 356 CURVE SMOOTH"
);
},
{
closed = 1;
nodes = (
"414 939 LINE",
"290 574 OFFCURVE",
"190 374 OFFCURVE",
"20 142 CURVE",
"84 89 LINE",
"254 317 OFFCURVE",
"373 554 OFFCURVE",
"496 915 CURVE"
);
},
{
closed = 1;
nodes = (
"523 307 LINE",
"423 99 OFFCURVE",
"313 -79 OFFCURVE",
"169 -242 CURVE",
"234 -293 LINE",
"393 -104 OFFCURVE",
"490 45 OFFCURVE",
"600 269 CURVE"
);
},
{
closed = 1;
nodes = (
"419 -17 LINE",
"336 279 OFFCURVE",
"257 481 OFFCURVE",
"129 728 CURVE",
"52 686 LINE",
"175 447 OFFCURVE",
"263 235 OFFCURVE",
"340 -49 CURVE"
);
}
);
vertOrigin = 90;
vertWidth = 1312;
width = 620;
}
);
unicode = 1B1C5;
},
{
glyphname = u1B1C6;
lastChange = "2020-03-18 15:51:28 +0000";
layers = (
{
layerId = "CFFEBDE4-599A-46B2-9328-D96E42CD9C81";
paths = (
{
closed = 1;
nodes = (
"189 -54 OFFCURVE",
"212 -37 OFFCURVE",
"212 2 CURVE SMOOTH",
"212 41 OFFCURVE",
"189 58 OFFCURVE",
"161 58 CURVE SMOOTH",
"132 58 OFFCURVE",
"109 41 OFFCURVE",
"109 2 CURVE SMOOTH",
"109 -37 OFFCURVE",
"132 -54 OFFCURVE",
"161 -54 CURVE SMOOTH"
);
},
{
closed = 1;
nodes = (
"462 386 OFFCURVE",
"485 403 OFFCURVE",
"485 442 CURVE SMOOTH",
"485 481 OFFCURVE",
"462 498 OFFCURVE",
"434 498 CURVE SMOOTH",
"405 498 OFFCURVE",
"382 481 OFFCURVE",
"382 442 CURVE SMOOTH",
"382 403 OFFCURVE",
"405 386 OFFCURVE",
"434 386 CURVE SMOOTH"
);
},
{
closed = 1;
nodes = (
"187 388 LINE",
"256 230 OFFCURVE",
"300 91 OFFCURVE",
"335 -53 CURVE",
"414 -22 LINE",
"376 130 OFFCURVE",
"330 284 OFFCURVE",
"252 456 CURVE"
);
},
{
closed = 1;
nodes = (
"381 939 LINE",
"287 633 OFFCURVE",
"170 376 OFFCURVE",
"20 162 CURVE",
"84 109 LINE",
"234 319 OFFCURVE",
"373 613 OFFCURVE",
"466 911 CURVE"
);
},
{
closed = 1;
nodes = (
"522 319 LINE",
"426 102 OFFCURVE",
"313 -79 OFFCURVE",
"169 -242 CURVE",
"234 -293 LINE",
"393 -104 OFFCURVE",
"493 48 OFFCURVE",
"599 281 CURVE"
);
}
);
vertOrigin = 90;
vertWidth = 1312;
width = 620;
}
);
unicode = 1B1C6;
},
{
glyphname = u1B1C7;
lastChange = "2020-03-18 15:51:28 +0000";
layers = (
{
layerId = "CFFEBDE4-599A-46B2-9328-D96E42CD9C81";
paths = (
{
closed = 1;
nodes = (
"437 939 LINE",
"315 741 OFFCURVE",
"180 585 OFFCURVE",
"20 449 CURVE",
"69 382 LINE",
"252 526 OFFCURVE",
"379 683 OFFCURVE",
"513 901 CURVE"
);
},
{
closed = 1;
nodes = (
"441 719 OFFCURVE",
"461 679 OFFCURVE",
"461 613 CURVE SMOOTH",
"461 509 OFFCURVE",
"375 365 OFFCURVE",
"61 150 CURVE",
"107 83 LINE",
"437 302 OFFCURVE",
"544 478 OFFCURVE",
"544 624 CURVE SMOOTH",
"544 698 OFFCURVE",
"520 759 OFFCURVE",
"443 820 CURVE",
"381 773 LINE"
);
},
{
closed = 1;
nodes = (
"106 815 LINE",
"260 490 OFFCURVE",
"301 272 OFFCURVE",
"301 23 CURVE SMOOTH",
"301 -90 OFFCURVE",
"294 -174 OFFCURVE",
"275 -283 CURVE",
"357 -293 LINE",
"375 -174 OFFCURVE",
"381 -86 OFFCURVE",
"381 33 CURVE SMOOTH",
"381 262 OFFCURVE",
"347 520 OFFCURVE",
"177 853 CURVE"
);
},
{
closed = 1;
nodes = (
"173 -120 OFFCURVE",
"196 -103 OFFCURVE",
"196 -64 CURVE SMOOTH",
"196 -25 OFFCURVE",
"173 -8 OFFCURVE",
"145 -8 CURVE SMOOTH",
"116 -8 OFFCURVE",
"93 -25 OFFCURVE",
"93 -64 CURVE SMOOTH",
"93 -103 OFFCURVE",
"116 -120 OFFCURVE",
"145 -120 CURVE SMOOTH"
);
},
{
closed = 1;
nodes = (
"570 158 OFFCURVE",
"593 175 OFFCURVE",
"593 214 CURVE SMOOTH",
"593 253 OFFCURVE",
"570 270 OFFCURVE",
"542 270 CURVE SMOOTH",
"513 270 OFFCURVE",
"490 253 OFFCURVE",
"490 214 CURVE SMOOTH",
"490 175 OFFCURVE",
"513 158 OFFCURVE",
"542 158 CURVE SMOOTH"
);
}
);
vertOrigin = 90;
vertWidth = 1312;
width = 623;
}
);
unicode = 1B1C7;
},
{
glyphname = u1B1C8;
lastChange = "2020-03-18 15:51:28 +0000";
layers = (
{
layerId = "CFFEBDE4-599A-46B2-9328-D96E42CD9C81";
paths = (
{
closed = 1;
nodes = (
"366 636 LINE",
"311 416 OFFCURVE",
"243 246 OFFCURVE",
"155 63 CURVE",
"204 -24 LINE",
"297 164 OFFCURVE",
"359 309 OFFCURVE",
"415 506 CURVE"
);
},
{
closed = 1;
nodes = (
"242 778 LINE",
"332 620 OFFCURVE",
"403 468 OFFCURVE",
"488 256 CURVE",
"499 408 LINE",
"434 189 OFFCURVE",
"353 -8 OFFCURVE",
"276 -168 CURVE",
"305 -186 LINE",
"247 -20 OFFCURVE",
"190 133 OFFCURVE",
"105 303 CURVE",
"96 201 LINE",
"195 430 OFFCURVE",
"255 604 OFFCURVE",
"333 919 CURVE",
"247 939 LINE",
"173 638 OFFCURVE",
"107 442 OFFCURVE",
"30 260 CURVE",
"118 79 OFFCURVE",
"180 -76 OFFCURVE",
"231 -243 CURVE",
"319 -253 LINE",
"418 -62 OFFCURVE",
"498 111 OFFCURVE",
"564 331 CURVE",
"484 514 OFFCURVE",
"408 678 OFFCURVE",
"306 854 CURVE"
);
}
);
vertOrigin = 90;
vertWidth = 1312;
width = 584;
}
);
unicode = 1B1C8;
},
{
glyphname = u1B1C9;
lastChange = "2020-03-18 15:51:28 +0000";
layers = (
{
layerId = "CFFEBDE4-599A-46B2-9328-D96E42CD9C81";
paths = (
{
closed = 1;
nodes = (
"387 939 LINE",
"294 775 OFFCURVE",
"178 632 OFFCURVE",
"45 504 CURVE",
"103 440 LINE",
"248 585 OFFCURVE",
"358 716 OFFCURVE",
"460 903 CURVE"
);
},
{
closed = 1;
nodes = (
"397 724 OFFCURVE",
"412 678 OFFCURVE",
"412 627 CURVE SMOOTH",
"412 534 OFFCURVE",
"345 416 OFFCURVE",
"152 263 CURVE",
"201 195 LINE",
"407 359 OFFCURVE",
"500 496 OFFCURVE",
"500 627 CURVE SMOOTH",
"500 700 OFFCURVE",
"474 767 OFFCURVE",
"391 853 CURVE",
"337 785 LINE"
);
},
{
closed = 1;
nodes = (
"354 406 LINE",
"380 272 OFFCURVE",
"381 214 OFFCURVE",
"381 142 CURVE SMOOTH",
"381 40 OFFCURVE",
"372 -25 OFFCURVE",
"361 -104 CURVE",
"449 -113 LINE",
"461 -33 OFFCURVE",
"470 49 OFFCURVE",
"470 142 CURVE SMOOTH",
"470 228 OFFCURVE",
"458 330 OFFCURVE",
"416 475 CURVE"
);
},
{
closed = 1;
nodes = (
"237 157 LINE",
"176 -12 OFFCURVE",
"107 -128 OFFCURVE",
"15 -241 CURVE",
"78 -293 LINE",
"189 -149 OFFCURVE",
"252 -34 OFFCURVE",
"313 125 CURVE"
);
},
{
closed = 1;
nodes = (
"34 53 LINE",
"126 -50 OFFCURVE",
"183 -134 OFFCURVE",
"242 -254 CURVE",
"313 -213 LINE",
"252 -91 OFFCURVE",
"179 9 OFFCURVE",
"97 106 CURVE"
);
}
);
vertOrigin = 90;
vertWidth = 1312;
width = 560;
}
);
unicode = 1B1C9;
},
{
glyphname = u1B1CA;
lastChange = "2020-03-18 15:51:28 +0000";
layers = (
{
layerId = "CFFEBDE4-599A-46B2-9328-D96E42CD9C81";
paths = (
{
closed = 1;
nodes = (
"338 103 LINE",
"441 217 OFFCURVE",
"483 284 OFFCURVE",
"542 408 CURVE",
"514 406 LINE",
"529 318 OFFCURVE",
"530 213 OFFCURVE",
"519 88 CURVE",
"605 88 LINE",
"616 232 OFFCURVE",
"604 360 OFFCURVE",
"581 463 CURVE",
"494 473 LINE",
"430 348 OFFCURVE",
"381 268 OFFCURVE",
"308 182 CURVE"
);
},
{
closed = 1;
nodes = (
"147 589 LINE",
"250 377 OFFCURVE",
"272 192 OFFCURVE",
"272 4 CURVE SMOOTH",
"272 -110 OFFCURVE",
"265 -192 OFFCURVE",
"251 -286 CURVE",
"331 -293 LINE",
"343 -199 OFFCURVE",
"352 -97 OFFCURVE",
"352 9 CURVE SMOOTH",
"352 230 OFFCURVE",
"315 431 OFFCURVE",
"199 657 CURVE"
);
},
{
closed = 1;
nodes = (
"275 939 LINE",
"172 711 OFFCURVE",
"76 565 OFFCURVE",
"-40 420 CURVE",
"17 368 LINE",
"150 519 OFFCURVE",
"244 686 OFFCURVE",
"348 912 CURVE"
);
},
{
closed = 1;
nodes = (
"379 665 LINE",
"271 454 OFFCURVE",
"183 327 OFFCURVE",
"41 178 CURVE",
"97 119 LINE",
"224 261 OFFCURVE",
"330 401 OFFCURVE",
"449 633 CURVE"
);
}
);
vertOrigin = 90;
vertWidth = 1312;
width = 635;
}
);
unicode = 1B1CA;
},
{
glyphname = u1B1CB;
lastChange = "2020-03-18 15:51:28 +0000";
layers = (
{
layerId = "CFFEBDE4-599A-46B2-9328-D96E42CD9C81";
paths = (
{
closed = 1;
nodes = (
"161 64 OFFCURVE",
"184 81 OFFCURVE",
"184 120 CURVE SMOOTH",
"184 159 OFFCURVE",
"161 176 OFFCURVE",
"133 176 CURVE SMOOTH",
"104 176 OFFCURVE",
"81 159 OFFCURVE",
"81 120 CURVE SMOOTH",
"81 81 OFFCURVE",
"104 64 OFFCURVE",
"133 64 CURVE SMOOTH"
);
},
{
closed = 1;
nodes = (
"94 -118 OFFCURVE",
"117 -101 OFFCURVE",
"117 -62 CURVE SMOOTH",
"117 -23 OFFCURVE",
"94 -6 OFFCURVE",
"66 -6 CURVE SMOOTH",
"37 -6 OFFCURVE",
"14 -23 OFFCURVE",
"14 -62 CURVE SMOOTH",
"14 -101 OFFCURVE",
"37 -118 OFFCURVE",
"66 -118 CURVE SMOOTH"
);
},
{
closed = 1;
nodes = (
"80 411 LINE",
"195 263 OFFCURVE",
"307 95 OFFCURVE",
"415 -90 CURVE",
"487 -48 LINE",
"373 145 OFFCURVE",
"255 323 OFFCURVE",
"129 489 CURVE",
"139 415 LINE",
"216 580 OFFCURVE",
"274 721 OFFCURVE",
"318 925 CURVE",
"235 939 LINE",
"192 743 OFFCURVE",
"141 626 OFFCURVE",
"80 482 CURVE"
);
},
{
closed = 1;
nodes = (
"282 657 OFFCURVE",
"301 572 OFFCURVE",
"301 442 CURVE SMOOTH",
"301 258 OFFCURVE",
"260 65 OFFCURVE",
"122 -262 CURVE",
"197 -293 LINE",
"340 34 OFFCURVE",
"387 248 OFFCURVE",
"387 442 CURVE SMOOTH",
"387 591 OFFCURVE",
"362 688 OFFCURVE",
"262 853 CURVE",
"227 760 LINE"
);
}
);
vertOrigin = 90;
vertWidth = 1312;
width = 500;
}
);
unicode = 1B1CB;
},
{
glyphname = u1B1CC;
lastChange = "2020-03-18 15:51:28 +0000";
layers = (
{
layerId = "CFFEBDE4-599A-46B2-9328-D96E42CD9C81";
paths = (
{
closed = 1;
nodes = (
"412 680 LINE",
"308 513 OFFCURVE",
"232 425 OFFCURVE",
"133 335 CURVE",
"174 277 LINE",
"277 371 OFFCURVE",
"369 468 OFFCURVE",
"475 642 CURVE"
);
},
{
closed = 1;
nodes = (
"271 6 OFFCURVE",
"302 -62 OFFCURVE",
"401 -127 CURVE",
"475 -115 LINE",
"531 -9 OFFCURVE",
"552 60 OFFCURVE",
"552 138 CURVE SMOOTH",
"552 225 OFFCURVE",
"514 274 OFFCURVE",
"422 340 CURVE",
"338 328 LINE",
"281 199 OFFCURVE",
"271 138 OFFCURVE",
"271 76 CURVE SMOOTH"
);
},
{
closed = 1;
nodes = (
"372 278 LINE",
"449 223 OFFCURVE",
"472 187 OFFCURVE",
"472 134 CURVE SMOOTH",
"472 79 OFFCURVE",
"459 27 OFFCURVE",
"419 -63 CURVE",
"437 -57 LINE",
"381 -15 OFFCURVE",
"351 21 OFFCURVE",
"351 86 CURVE SMOOTH",
"351 137 OFFCURVE",
"360 181 OFFCURVE",
"401 280 CURVE"
);
},
{
closed = 1;
nodes = (
"324 939 LINE",
"249 781 OFFCURVE",
"178 664 OFFCURVE",
"66 536 CURVE",
"106 384 OFFCURVE",
"121 233 OFFCURVE",
"121 123 CURVE SMOOTH",
"121 -15 OFFCURVE",
"103 -151 OFFCURVE",
"69 -279 CURVE",
"147 -293 LINE",
"187 -148 OFFCURVE",
"201 -22 OFFCURVE",
"201 123 CURVE SMOOTH",
"201 246 OFFCURVE",
"183 408 OFFCURVE",
"140 547 CURVE",
"145 498 LINE",
"253 635 OFFCURVE",
"324 732 OFFCURVE",
"402 907 CURVE"
);
}
);
vertOrigin = 90;
vertWidth = 1312;
width = 572;
}
);
unicode = 1B1CC;
},
{
glyphname = u1B1CD;
lastChange = "2020-03-18 15:51:28 +0000";
layers = (
{
layerId = "CFFEBDE4-599A-46B2-9328-D96E42CD9C81";
paths = (
{
closed = 1;
nodes = (
"409 939 LINE",
"323 701 OFFCURVE",
"231 531 OFFCURVE",
"103 368 CURVE",
"163 316 LINE",
"291 481 OFFCURVE",
"405 684 OFFCURVE",
"484 914 CURVE"
);
},
{
closed = 1;
nodes = (
"530 362 LINE",
"466 223 OFFCURVE",
"397 102 OFFCURVE",
"287 -35 CURVE",
"346 -88 LINE",
"466 55 OFFCURVE",
"531 170 OFFCURVE",
"603 329 CURVE"
);
},
{
closed = 1;
nodes = (
"265 538 LINE",
"328 387 OFFCURVE",
"361 254 OFFCURVE",
"395 81 CURVE",
"465 119 LINE",
"435 309 OFFCURVE",
"396 437 OFFCURVE",
"320 619 CURVE"
);
},
{
closed = 1;
nodes = (
"237 157 LINE",
"176 -12 OFFCURVE",
"107 -128 OFFCURVE",
"15 -241 CURVE",
"78 -293 LINE",
"189 -149 OFFCURVE",
"252 -34 OFFCURVE",
"313 125 CURVE"
);
},
{
closed = 1;
nodes = (
"34 53 LINE",
"126 -50 OFFCURVE",
"183 -133 OFFCURVE",
"242 -254 CURVE",
"313 -213 LINE",
"252 -91 OFFCURVE",
"179 9 OFFCURVE",
"97 106 CURVE"
);
}
);
vertOrigin = 90;
vertWidth = 1312;
width = 643;
}
);
unicode = 1B1CD;
},
{
glyphname = u1B1CE;
lastChange = "2020-03-18 15:51:28 +0000";
layers = (
{
layerId = "CFFEBDE4-599A-46B2-9328-D96E42CD9C81";
paths = (
{
closed = 1;
nodes = (
"383 248 OFFCURVE",
"301 349 OFFCURVE",
"211 438 CURVE",
"219 393 LINE",
"268 545 OFFCURVE",
"301 669 OFFCURVE",
"349 924 CURVE",
"263 939 LINE",
"222 714 OFFCURVE",
"190 584 OFFCURVE",
"130 397 CURVE",
"242 293 OFFCURVE",
"331 176 OFFCURVE",
"409 68 CURVE",
"496 82 LINE",
"548 232 OFFCURVE",
"585 375 OFFCURVE",
"619 556 CURVE",
"533 576 LINE",
"498 394 OFFCURVE",
"469 274 OFFCURVE",
"425 134 CURVE",
"463 143 LINE"
);
},
{
closed = 1;
nodes = (
"232 -101 LINE",
"272 -3 OFFCURVE",
"312 117 OFFCURVE",
"346 274 CURVE",
"271 298 LINE",
"241 156 OFFCURVE",
"208 56 OFFCURVE",
"167 -54 CURVE"
);
},
{
closed = 1;
nodes = (
"364 -248 LINE",
"278 -114 OFFCURVE",
"197 -11 OFFCURVE",
"70 115 CURVE",
"14 53 LINE",
"130 -60 OFFCURVE",
"211 -167 OFFCURVE",
"295 -293 CURVE"
);
}
);
vertOrigin = 90;
vertWidth = 1312;
width = 651;
}
);
unicode = 1B1CE;
},
{
glyphname = u1B1CF;
lastChange = "2020-03-18 15:51:28 +0000";
layers = (
{
layerId = "CFFEBDE4-599A-46B2-9328-D96E42CD9C81";
paths = (
{
closed = 1;
nodes = (
"184 292 LINE",
"169 414 OFFCURVE",
"148 496 OFFCURVE",
"116 602 CURVE",
"40 576 LINE",
"78 452 OFFCURVE",
"92 385 OFFCURVE",
"114 256 CURVE",
"208 230 LINE",
"358 464 OFFCURVE",
"430 645 OFFCURVE",
"492 919 CURVE",
"407 939 LINE",
"349 669 OFFCURVE",
"276 485 OFFCURVE",
"158 293 CURVE"
);
},
{
closed = 1;
nodes = (
"339 -293 LINE",
"375 -145 OFFCURVE",
"389 -9 OFFCURVE",
"389 189 CURVE SMOOTH",
"389 402 OFFCURVE",
"345 623 OFFCURVE",
"241 846 CURVE",
"161 810 LINE",
"266 584 OFFCURVE",
"303 394 OFFCURVE",
"303 173 CURVE SMOOTH",
"303 6 OFFCURVE",
"289 -127 OFFCURVE",
"253 -277 CURVE"
);
},
{
closed = 1;
nodes = (
"538 428 OFFCURVE",
"561 445 OFFCURVE",
"561 484 CURVE SMOOTH",
"561 523 OFFCURVE",
"538 540 OFFCURVE",
"510 540 CURVE SMOOTH",
"481 540 OFFCURVE",
"458 523 OFFCURVE",
"458 484 CURVE SMOOTH",
"458 445 OFFCURVE",
"481 428 OFFCURVE",
"510 428 CURVE SMOOTH"
);
},
{
closed = 1;
nodes = (
"547 173 OFFCURVE",
"570 190 OFFCURVE",
"570 229 CURVE SMOOTH",
"570 268 OFFCURVE",
"547 285 OFFCURVE",
"519 285 CURVE SMOOTH",
"490 285 OFFCURVE",
"467 268 OFFCURVE",
"467 229 CURVE SMOOTH",
"467 190 OFFCURVE",
"490 173 OFFCURVE",
"519 173 CURVE SMOOTH"
);
}
);
vertOrigin = 90;
vertWidth = 1312;
width = 600;
}
);
unicode = 1B1CF;
},
{
glyphname = u1B1D0;
lastChange = "2020-03-18 15:51:28 +0000";
layers = (
{
layerId = "CFFEBDE4-599A-46B2-9328-D96E42CD9C81";
paths = (
{
closed = 1;
nodes = (
"110 121 OFFCURVE",
"71 53 OFFCURVE",
"71 -46 CURVE SMOOTH",
"71 -159 OFFCURVE",
"133 -253 OFFCURVE",
"309 -293 CURVE",
"335 -216 LINE",
"195 -180 OFFCURVE",
"157 -122 OFFCURVE",
"157 -30 CURVE SMOOTH",
"157 36 OFFCURVE",
"186 87 OFFCURVE",
"242 123 CURVE",
"230 219 LINE",
"123 248 OFFCURVE",
"79 299 OFFCURVE",
"79 392 CURVE SMOOTH",
"79 454 OFFCURVE",
"99 504 OFFCURVE",
"152 555 CURVE",
"93 612 LINE",
"26 548 OFFCURVE",
"-9 476 OFFCURVE",
"-9 387 CURVE SMOOTH",
"-9 259 OFFCURVE",
"58 180 OFFCURVE",
"193 142 CURVE",
"193 178 LINE"
);
},
{
closed = 1;
nodes = (
"449 939 LINE",
"363 701 OFFCURVE",
"291 561 OFFCURVE",
"163 398 CURVE",
"223 346 LINE",
"351 511 OFFCURVE",
"445 684 OFFCURVE",
"524 914 CURVE"
);
},
{
closed = 1;
nodes = (
"570 362 LINE",
"506 223 OFFCURVE",
"437 102 OFFCURVE",
"327 -35 CURVE",
"386 -88 LINE",
"506 55 OFFCURVE",
"571 170 OFFCURVE",
"643 329 CURVE"
);
},
{
closed = 1;
nodes = (
"305 538 LINE",
"368 387 OFFCURVE",
"401 254 OFFCURVE",
"435 81 CURVE",
"505 119 LINE",
"475 309 OFFCURVE",
"436 437 OFFCURVE",
"360 619 CURVE"
);
}
);
vertOrigin = 90;
vertWidth = 1312;
width = 672;
}
);
unicode = 1B1D0;
},
{
glyphname = u1B1D1;
lastChange = "2020-03-18 15:51:28 +0000";
layers = (
{
layerId = "CFFEBDE4-599A-46B2-9328-D96E42CD9C81";
paths = (
{
closed = 1;
nodes = (
"236 336 LINE",
"328 224 OFFCURVE",
"395 132 OFFCURVE",
"470 9 CURVE",
"532 53 LINE",
"453 178 OFFCURVE",
"387 272 OFFCURVE",
"283 398 CURVE",
"280 340 LINE",
"353 441 OFFCURVE",
"405 542 OFFCURVE",
"469 690 CURVE",
"399 719 LINE",
"341 582 OFFCURVE",
"293 489 OFFCURVE",
"236 407 CURVE"
);
},
{
closed = 1;
nodes = (
"399 521 OFFCURVE",
"410 465 OFFCURVE",
"410 394 CURVE SMOOTH",
"410 246 OFFCURVE",
"374 130 OFFCURVE",
"241 -92 CURVE",
"302 -127 LINE",
"451 111 OFFCURVE",
"488 256 OFFCURVE",
"488 388 CURVE SMOOTH",
"488 479 OFFCURVE",
"465 570 OFFCURVE",
"405 680 CURVE",
"367 602 LINE"
);
},
{
closed = 1;
nodes = (
"314 939 LINE",
"236 752 OFFCURVE",
"162 624 OFFCURVE",
"66 496 CURVE",
"103 350 OFFCURVE",
"121 214 OFFCURVE",
"121 83 CURVE SMOOTH",
"121 -55 OFFCURVE",
"112 -157 OFFCURVE",
"90 -283 CURVE",
"169 -293 LINE",
"194 -164 OFFCURVE",
"201 -62 OFFCURVE",
"201 83 CURVE SMOOTH",
"201 227 OFFCURVE",
"182 359 OFFCURVE",
"144 517 CURVE",
"145 458 LINE",
"237 582 OFFCURVE",
"311 703 OFFCURVE",
"392 907 CURVE"
);
}
);
vertOrigin = 90;
vertWidth = 1312;
width = 576;
}
);
unicode = 1B1D1;
},
{
glyphname = u1B1D2;
lastChange = "2020-03-18 15:51:28 +0000";
layers = (
{
layerId = "CFFEBDE4-599A-46B2-9328-D96E42CD9C81";
paths = (
{
closed = 1;
nodes = (
"458 -30 OFFCURVE",
"498 -106 OFFCURVE",
"597 -170 CURVE",
"644 -113 LINE",
"560 -50 OFFCURVE",
"536 6 OFFCURVE",
"536 91 CURVE SMOOTH",
"536 156 OFFCURVE",
"558 218 OFFCURVE",
"615 284 CURVE",
"555 327 LINE",
"483 246 OFFCURVE",
"458 170 OFFCURVE",
"458 81 CURVE SMOOTH"
);
},
{
closed = 1;
nodes = (
"682 36 OFFCURVE",
"705 53 OFFCURVE",
"705 92 CURVE SMOOTH",
"705 131 OFFCURVE",
"682 148 OFFCURVE",
"654 148 CURVE SMOOTH",
"625 148 OFFCURVE",
"602 131 OFFCURVE",
"602 92 CURVE SMOOTH",
"602 53 OFFCURVE",
"625 36 OFFCURVE",
"654 36 CURVE SMOOTH"
);
},
{
closed = 1;
nodes = (
"437 939 LINE",
"315 741 OFFCURVE",
"180 585 OFFCURVE",
"20 449 CURVE",
"69 382 LINE",
"252 526 OFFCURVE",
"379 683 OFFCURVE",
"513 901 CURVE"
);
},
{
closed = 1;
nodes = (
"441 719 OFFCURVE",
"461 669 OFFCURVE",
"461 599 CURVE SMOOTH",
"461 479 OFFCURVE",
"375 345 OFFCURVE",
"71 130 CURVE",
"117 63 LINE",
"437 282 OFFCURVE",
"544 448 OFFCURVE",
"544 610 CURVE SMOOTH",
"544 688 OFFCURVE",
"520 759 OFFCURVE",
"443 820 CURVE",
"381 773 LINE"
);
},
{
closed = 1;
nodes = (
"106 815 LINE",
"260 490 OFFCURVE",
"301 272 OFFCURVE",
"301 23 CURVE SMOOTH",
"301 -90 OFFCURVE",
"294 -174 OFFCURVE",
"275 -283 CURVE",
"357 -293 LINE",
"375 -174 OFFCURVE",
"381 -86 OFFCURVE",
"381 33 CURVE SMOOTH",
"381 262 OFFCURVE",
"347 520 OFFCURVE",
"177 853 CURVE"
);
}
);
vertOrigin = 90;
vertWidth = 1312;
width = 745;
}
);
unicode = 1B1D2;
},
{
glyphname = u1B1D3;
lastChange = "2020-03-18 15:51:28 +0000";
layers = (
{
layerId = "CFFEBDE4-599A-46B2-9328-D96E42CD9C81";
paths = (
{
closed = 1;
nodes = (
"393 178 OFFCURVE",
"295 289 OFFCURVE",
"177 398 CURVE",
"185 353 LINE",
"234 505 OFFCURVE",
"277 669 OFFCURVE",
"325 924 CURVE",
"239 939 LINE",
"198 714 OFFCURVE",
"156 544 OFFCURVE",
"96 357 CURVE",
"226 236 OFFCURVE",
"341 106 OFFCURVE",
"409 12 CURVE",
"506 12 LINE",
"558 125 OFFCURVE",
"601 264 OFFCURVE",
"638 416 CURVE",
"554 443 LINE",
"518 293 OFFCURVE",
"482 183 OFFCURVE",
"435 64 CURVE",
"473 73 LINE"
);
},
{
closed = 1;
nodes = (
"232 -101 LINE",
"338 168 OFFCURVE",
"402 325 OFFCURVE",
"470 586 CURVE",
"388 614 LINE",
"324 368 OFFCURVE",
"274 227 OFFCURVE",
"167 -54 CURVE"
);
},
{
closed = 1;
nodes = (
"364 -248 LINE",
"278 -114 OFFCURVE",
"197 -11 OFFCURVE",
"70 115 CURVE",
"14 53 LINE",
"130 -60 OFFCURVE",
"211 -167 OFFCURVE",
"295 -293 CURVE"
);
}
);
vertOrigin = 90;
vertWidth = 1312;
width = 701;
}
);
unicode = 1B1D3;
},
{
glyphname = u1B1D4;
lastChange = "2020-03-18 15:51:28 +0000";
layers = (
{
layerId = "CFFEBDE4-599A-46B2-9328-D96E42CD9C81";
paths = (
{
closed = 1;
nodes = (
"10 -186 OFFCURVE",
"35 -225 OFFCURVE",
"103 -265 CURVE",
"174 -256 LINE",
"231 -178 OFFCURVE",
"255 -112 OFFCURVE",
"255 -41 CURVE SMOOTH",
"255 9 OFFCURVE",
"226 50 OFFCURVE",
"158 88 CURVE",
"84 78 LINE",
"33 -4 OFFCURVE",
"10 -68 OFFCURVE",
"10 -120 CURVE SMOOTH"
);
},
{
closed = 1;
nodes = (
"111 41 LINE",
"158 5 OFFCURVE",
"175 -26 OFFCURVE",
"175 -55 CURVE SMOOTH",
"175 -98 OFFCURVE",
"158 -142 OFFCURVE",
"119 -218 CURVE",
"147 -218 LINE",
"105 -181 OFFCURVE",
"90 -155 OFFCURVE",
"90 -116 CURVE SMOOTH",
"90 -72 OFFCURVE",
"109 -24 OFFCURVE",
"146 44 CURVE"
);
},
{
closed = 1;
nodes = (
"286 939 LINE",
"232 718 OFFCURVE",
"175 564 OFFCURVE",
"58 384 CURVE",
"127 341 LINE",
"240 516 OFFCURVE",
"302 683 OFFCURVE",
"367 921 CURVE"
);
},
{
closed = 1;
nodes = (
"35 786 LINE",
"263 469 OFFCURVE",
"349 109 OFFCURVE",
"386 -293 CURVE",
"467 -283 LINE",
"430 158 OFFCURVE",
"318 527 OFFCURVE",
"101 831 CURVE"
);
},
{
closed = 1;
nodes = (
"403 667 LINE",
"325 448 OFFCURVE",
"257 312 OFFCURVE",
"149 162 CURVE",
"213 117 LINE",
"320 266 OFFCURVE",
"398 411 OFFCURVE",
"478 636 CURVE"
);
}
);
vertOrigin = 90;
vertWidth = 1312;
width = 599;
}
);
unicode = 1B1D4;
},
{
glyphname = u1B1D5;
lastChange = "2020-03-18 15:51:28 +0000";
layers = (
{
layerId = "CFFEBDE4-599A-46B2-9328-D96E42CD9C81";
paths = (
{
closed = 1;
nodes = (
"46 411 OFFCURVE",
"69 428 OFFCURVE",
"69 467 CURVE SMOOTH",
"69 506 OFFCURVE",
"46 523 OFFCURVE",
"18 523 CURVE SMOOTH",
"-11 523 OFFCURVE",
"-34 506 OFFCURVE",
"-34 467 CURVE SMOOTH",
"-34 428 OFFCURVE",
"-11 411 OFFCURVE",
"18 411 CURVE SMOOTH"
);
},
{
closed = 1;
nodes = (
"234 790 OFFCURVE",
"257 807 OFFCURVE",
"257 846 CURVE SMOOTH",
"257 885 OFFCURVE",
"234 902 OFFCURVE",
"206 902 CURVE SMOOTH",
"177 902 OFFCURVE",
"154 885 OFFCURVE",
"154 846 CURVE SMOOTH",
"154 807 OFFCURVE",
"177 790 OFFCURVE",
"206 790 CURVE SMOOTH"
);
},
{
closed = 1;
nodes = (
"367 939 LINE",
"287 645 OFFCURVE",
"194 428 OFFCURVE",
"13 158 CURVE",
"82 115 LINE",
"260 382 OFFCURVE",
"355 605 OFFCURVE",
"446 921 CURVE"
);
},
{
closed = 1;
nodes = (
"24 713 LINE",
"274 396 OFFCURVE",
"372 73 OFFCURVE",
"396 -293 CURVE",
"477 -283 LINE",
"453 122 OFFCURVE",
"326 459 OFFCURVE",
"87 763 CURVE"
);
},
{
closed = 1;
nodes = (
"317 235 LINE",
"262 100 OFFCURVE",
"204 -5 OFFCURVE",
"113 -130 CURVE",
"182 -179 LINE",
"258 -69 OFFCURVE",
"314 33 OFFCURVE",
"375 197 CURVE"
);
}
);
vertOrigin = 90;
vertWidth = 1312;
width = 610;
}
);
unicode = 1B1D5;
},
{
glyphname = u1B1D6;
lastChange = "2020-03-18 15:51:28 +0000";
layers = (
{
layerId = "CFFEBDE4-599A-46B2-9328-D96E42CD9C81";
paths = (
{
closed = 1;
nodes = (
"307 939 LINE",
"236 750 OFFCURVE",
"139 562 OFFCURVE",
"-8 361 CURVE",
"59 311 LINE",
"203 509 OFFCURVE",
"306 704 OFFCURVE",
"388 915 CURVE"
);
},
{
closed = 1;
nodes = (
"21 786 LINE",
"239 485 OFFCURVE",
"377 191 OFFCURVE",
"466 -123 CURVE",
"543 -99 LINE",
"454 254 OFFCURVE",
"294 543 OFFCURVE",
"87 831 CURVE"
);
},
{
closed = 1;
nodes = (
"259 440 LINE",
"196 289 OFFCURVE",
"134 193 OFFCURVE",
"43 61 CURVE",
"109 12 LINE",
"195 137 OFFCURVE",
"252 226 OFFCURVE",
"314 402 CURVE"
);
},
{
closed = 1;
nodes = (
"140 -214 OFFCURVE",
"165 -253 OFFCURVE",
"233 -293 CURVE",
"304 -284 LINE",
"361 -206 OFFCURVE",
"385 -140 OFFCURVE",
"385 -69 CURVE SMOOTH",
"385 -19 OFFCURVE",
"356 22 OFFCURVE",
"288 60 CURVE",
"214 50 LINE",
"163 -32 OFFCURVE",
"140 -96 OFFCURVE",
"140 -148 CURVE SMOOTH"
);
},
{
closed = 1;
nodes = (
"241 13 LINE",
"288 -23 OFFCURVE",
"305 -54 OFFCURVE",
"305 -83 CURVE SMOOTH",
"305 -126 OFFCURVE",
"288 -170 OFFCURVE",
"249 -246 CURVE",
"277 -246 LINE",
"235 -209 OFFCURVE",
"220 -183 OFFCURVE",
"220 -144 CURVE SMOOTH",
"220 -100 OFFCURVE",
"239 -52 OFFCURVE",
"276 16 CURVE"
);
}
);
vertOrigin = 90;
vertWidth = 1312;
width = 600;
}
);
unicode = 1B1D6;
},
{
glyphname = u1B1D7;
lastChange = "2020-03-18 15:51:28 +0000";
layers = (
{
layerId = "CFFEBDE4-599A-46B2-9328-D96E42CD9C81";
paths = (
{
closed = 1;
nodes = (
"157 143 LINE",
"214 71 OFFCURVE",
"230 19 OFFCURVE",
"230 -54 CURVE SMOOTH",
"230 -138 OFFCURVE",
"207 -193 OFFCURVE",
"164 -253 CURVE",
"230 -293 LINE",
"285 -225 OFFCURVE",
"312 -148 OFFCURVE",
"312 -61 CURVE SMOOTH",
"312 15 OFFCURVE",
"296 99 OFFCURVE",
"223 185 CURVE"
);
},
{
closed = 1;
nodes = (
"133 -138 OFFCURVE",
"156 -121 OFFCURVE",
"156 -82 CURVE SMOOTH",
"156 -43 OFFCURVE",
"133 -26 OFFCURVE",
"105 -26 CURVE SMOOTH",
"76 -26 OFFCURVE",
"53 -43 OFFCURVE",
"53 -82 CURVE SMOOTH",
"53 -121 OFFCURVE",
"76 -138 OFFCURVE",
"105 -138 CURVE SMOOTH"
);
},
{
closed = 1;
nodes = (
"449 939 LINE",
"363 701 OFFCURVE",
"291 561 OFFCURVE",
"163 398 CURVE",
"223 346 LINE",
"351 511 OFFCURVE",
"445 684 OFFCURVE",
"524 914 CURVE"
);
},
{
closed = 1;
nodes = (
"570 362 LINE",
"506 223 OFFCURVE",
"447 115 OFFCURVE",
"337 -22 CURVE",
"396 -75 LINE",
"516 68 OFFCURVE",
"571 170 OFFCURVE",
"643 329 CURVE"
);
},
{
closed = 1;
nodes = (
"305 538 LINE",
"368 387 OFFCURVE",
"401 254 OFFCURVE",
"435 81 CURVE",
"505 119 LINE",
"475 309 OFFCURVE",
"436 437 OFFCURVE",
"360 619 CURVE"
);
}
);
vertOrigin = 90;
vertWidth = 1312;
width = 636;
}
);
unicode = 1B1D7;
},
{
glyphname = u1B1D8;
lastChange = "2020-03-18 15:51:28 +0000";
layers = (
{
layerId = "CFFEBDE4-599A-46B2-9328-D96E42CD9C81";
paths = (
{
closed = 1;
nodes = (
"483 455 OFFCURVE",
"506 472 OFFCURVE",
"506 511 CURVE SMOOTH",
"506 550 OFFCURVE",
"483 567 OFFCURVE",
"455 567 CURVE SMOOTH",
"426 567 OFFCURVE",
"403 550 OFFCURVE",
"403 511 CURVE SMOOTH",
"403 472 OFFCURVE",
"426 455 OFFCURVE",
"455 455 CURVE SMOOTH"
);
},
{
closed = 1;
nodes = (
"483 117 OFFCURVE",
"506 134 OFFCURVE",
"506 173 CURVE SMOOTH",
"506 212 OFFCURVE",
"483 229 OFFCURVE",
"455 229 CURVE SMOOTH",
"426 229 OFFCURVE",
"403 212 OFFCURVE",
"403 173 CURVE SMOOTH",
"403 134 OFFCURVE",
"426 117 OFFCURVE",
"455 117 CURVE SMOOTH"
);
},
{
closed = 1;
nodes = (
"56 287 LINE",
"177 99 OFFCURVE",
"256 -52 OFFCURVE",
"311 -293 CURVE",
"388 -273 LINE",
"323 -6 OFFCURVE",
"246 147 OFFCURVE",
"119 349 CURVE",
"118 290 LINE",
"216 482 OFFCURVE",
"289 672 OFFCURVE",
"329 928 CURVE",
"249 939 LINE",
"210 698 OFFCURVE",
"144 533 OFFCURVE",
"56 358 CURVE"
);
},
{
closed = 1;
nodes = (
"206 594 OFFCURVE",
"263 494 OFFCURVE",
"263 347 CURVE SMOOTH",
"263 192 OFFCURVE",
"217 71 OFFCURVE",
"66 -138 CURVE",
"125 -183 LINE",
"278 27 OFFCURVE",
"341 170 OFFCURVE",
"341 347 CURVE SMOOTH",
"341 524 OFFCURVE",
"270 644 OFFCURVE",
"77 816 CURVE",
"25 755 LINE"
);
}
);
vertOrigin = 90;
vertWidth = 1312;
width = 526;
}
);
unicode = 1B1D8;
},
{
glyphname = u1B1D9;
lastChange = "2020-03-18 15:51:28 +0000";
layers = (
{
layerId = "CFFEBDE4-599A-46B2-9328-D96E42CD9C81";
paths = (
{
closed = 1;
nodes = (
"284 143 OFFCURVE",
"303 65 OFFCURVE",
"303 -47 CURVE SMOOTH",
"303 -118 OFFCURVE",
"292 -183 OFFCURVE",
"264 -276 CURVE",
"348 -293 LINE",
"376 -203 OFFCURVE",
"389 -117 OFFCURVE",
"389 -20 CURVE SMOOTH",
"389 83 OFFCURVE",
"369 170 OFFCURVE",
"255 370 CURVE SMOOTH",
"143 567 OFFCURVE",
"130 623 OFFCURVE",
"130 710 CURVE SMOOTH",
"130 756 OFFCURVE",
"136 794 OFFCURVE",
"153 851 CURVE",
"76 872 LINE",
"54 812 OFFCURVE",
"44 767 OFFCURVE",
"44 706 CURVE SMOOTH",
"44 599 OFFCURVE",
"56 539 OFFCURVE",
"178 327 CURVE SMOOTH"
);
},
{
closed = 1;
nodes = (
"309 939 LINE",
"309 756 OFFCURVE",
"287 614 OFFCURVE",
"168 393 CURVE SMOOTH",
"67 205 OFFCURVE",
"40 113 OFFCURVE",
"40 34 CURVE SMOOTH",
"40 -32 OFFCURVE",
"51 -84 OFFCURVE",
"78 -138 CURVE",
"152 -111 LINE",
"131 -62 OFFCURVE",
"122 -10 OFFCURVE",
"122 43 CURVE SMOOTH",
"122 118 OFFCURVE",
"141 196 OFFCURVE",
"250 385 CURVE SMOOTH",
"358 572 OFFCURVE",
"389 714 OFFCURVE",
"389 934 CURVE"
);
},
{
closed = 1;
nodes = (
"332 809 LINE",
"406 680 OFFCURVE",
"431 599 OFFCURVE",
"431 519 CURVE SMOOTH",
"431 456 OFFCURVE",
"419 406 OFFCURVE",
"390 341 CURVE",
"460 315 LINE",
"492 381 OFFCURVE",
"507 442 OFFCURVE",
"507 533 CURVE SMOOTH",
"507 643 OFFCURVE",
"481 714 OFFCURVE",
"374 855 CURVE"
);
}
);
vertOrigin = 90;
vertWidth = 1312;
width = 557;
}
);
unicode = 1B1D9;
},
{
glyphname = u1B1DA;
lastChange = "2020-03-18 15:51:28 +0000";
layers = (
{
layerId = "CFFEBDE4-599A-46B2-9328-D96E42CD9C81";
paths = (
{
closed = 1;
nodes = (
"327 0 OFFCURVE",
"350 17 OFFCURVE",
"350 56 CURVE SMOOTH",
"350 95 OFFCURVE",
"327 112 OFFCURVE",
"299 112 CURVE SMOOTH",
"270 112 OFFCURVE",
"247 95 OFFCURVE",
"247 56 CURVE SMOOTH",
"247 17 OFFCURVE",
"270 0 OFFCURVE",
"299 0 CURVE SMOOTH"
);
},
{
closed = 1;
nodes = (
"436 705 LINE",
"359 528 OFFCURVE",
"280 411 OFFCURVE",
"137 276 CURVE",
"174 208 LINE",
"331 350 OFFCURVE",
"426 490 OFFCURVE",
"507 674 CURVE"
);
},
{
closed = 1;
nodes = (
"207 673 LINE",
"322 475 OFFCURVE",
"379 272 OFFCURVE",
"409 74 CURVE",
"487 88 LINE",
"455 305 OFFCURVE",
"388 512 OFFCURVE",
"265 738 CURVE"
);
},
{
closed = 1;
nodes = (
"294 939 LINE",
"229 755 OFFCURVE",
"169 645 OFFCURVE",
"56 520 CURVE",
"90 397 OFFCURVE",
"108 270 OFFCURVE",
"108 160 CURVE SMOOTH",
"108 -5 OFFCURVE",
"86 -128 OFFCURVE",
"40 -269 CURVE",
"116 -293 LINE",
"162 -152 OFFCURVE",
"188 -24 OFFCURVE",
"188 148 CURVE SMOOTH",
"188 288 OFFCURVE",
"170 416 OFFCURVE",
"130 538 CURVE",
"135 482 LINE",
"238 607 OFFCURVE",
"297 700 OFFCURVE",
"374 916 CURVE"
);
}
);
vertOrigin = 90;
vertWidth = 1312;
width = 560;
}
);
unicode = 1B1DA;
},
{
glyphname = u1B1DB;
lastChange = "2020-03-18 15:51:28 +0000";
layers = (
{
layerId = "CFFEBDE4-599A-46B2-9328-D96E42CD9C81";
paths = (
{
closed = 1;
nodes = (
"150 206 OFFCURVE",
"173 223 OFFCURVE",
"173 262 CURVE SMOOTH",
"173 301 OFFCURVE",
"150 318 OFFCURVE",
"122 318 CURVE SMOOTH",
"93 318 OFFCURVE",
"70 301 OFFCURVE",
"70 262 CURVE SMOOTH",
"70 223 OFFCURVE",
"93 206 OFFCURVE",
"122 206 CURVE SMOOTH"
);
},
{
closed = 1;
nodes = (
"419 574 OFFCURVE",
"442 591 OFFCURVE",
"442 630 CURVE SMOOTH",
"442 669 OFFCURVE",
"419 686 OFFCURVE",
"391 686 CURVE SMOOTH",
"362 686 OFFCURVE",
"339 669 OFFCURVE",
"339 630 CURVE SMOOTH",
"339 591 OFFCURVE",
"362 574 OFFCURVE",
"391 574 CURVE SMOOTH"
);
},
{
closed = 1;
nodes = (
"161 597 LINE",
"241 437 OFFCURVE",
"291 217 OFFCURVE",
"291 -2 CURVE SMOOTH",
"291 -115 OFFCURVE",
"284 -191 OFFCURVE",
"270 -284 CURVE",
"349 -293 LINE",
"362 -198 OFFCURVE",
"371 -117 OFFCURVE",
"371 8 CURVE SMOOTH",
"371 248 OFFCURVE",
"318 474 OFFCURVE",
"215 665 CURVE"
);
},
{
closed = 1;
nodes = (
"307 939 LINE",
"205 712 OFFCURVE",
"100 546 OFFCURVE",
"-30 406 CURVE",
"27 354 LINE",
"171 507 OFFCURVE",
"274 665 OFFCURVE",
"381 912 CURVE"
);
},
{
closed = 1;
nodes = (
"479 559 LINE",
"372 365 OFFCURVE",
"246 184 OFFCURVE",
"79 24 CURVE",
"136 -32 LINE",
"306 125 OFFCURVE",
"441 318 OFFCURVE",
"552 517 CURVE"
);
}
);
vertOrigin = 90;
vertWidth = 1312;
width = 583;
}
);
unicode = 1B1DB;
},
{
glyphname = u1B1DC;
lastChange = "2020-03-18 15:51:28 +0000";
layers = (
{
layerId = "CFFEBDE4-599A-46B2-9328-D96E42CD9C81";
paths = (
{
closed = 1;
nodes = (
"504 939 LINE",
"445 765 OFFCURVE",
"375 649 OFFCURVE",
"267 530 CURVE",
"325 341 OFFCURVE",
"345 237 OFFCURVE",
"345 118 CURVE SMOOTH",
"345 -20 OFFCURVE",
"318 -140 OFFCURVE",
"266 -267 CURVE",
"341 -293 LINE",
"393 -157 OFFCURVE",
"425 -41 OFFCURVE",
"425 128 CURVE SMOOTH",
"425 254 OFFCURVE",
"401 358 OFFCURVE",
"345 548 CURVE",
"340 488 LINE",
"444 602 OFFCURVE",
"522 734 OFFCURVE",
"584 916 CURVE"
);
},
{
closed = 1;
nodes = (
"644 216 LINE",
"633 432 OFFCURVE",
"584 602 OFFCURVE",
"500 777 CURVE",
"457 673 LINE",
"515 540 OFFCURVE",
"550 386 OFFCURVE",
"560 204 CURVE"
);
},
{
closed = 1;
nodes = (
"22 -16 OFFCURVE",
"47 -55 OFFCURVE",
"115 -95 CURVE",
"186 -86 LINE",
"243 -8 OFFCURVE",
"267 58 OFFCURVE",
"267 129 CURVE SMOOTH",
"267 179 OFFCURVE",
"238 220 OFFCURVE",
"170 258 CURVE",
"96 248 LINE",
"45 166 OFFCURVE",
"22 102 OFFCURVE",
"22 50 CURVE SMOOTH"
);
},
{
closed = 1;
nodes = (
"123 211 LINE",
"170 175 OFFCURVE",
"187 144 OFFCURVE",
"187 115 CURVE SMOOTH",
"187 72 OFFCURVE",
"170 28 OFFCURVE",
"131 -48 CURVE",
"159 -48 LINE",
"117 -11 OFFCURVE",
"102 15 OFFCURVE",
"102 54 CURVE SMOOTH",
"102 98 OFFCURVE",
"121 146 OFFCURVE",
"158 214 CURVE"
);
}
);
vertOrigin = 90;
vertWidth = 1312;
width = 631;
}
);
unicode = 1B1DC;
},
